<svg width="24" height="24" viewBox="0 0 24 24" fill="none" xmlns="http://www.w3.org/2000/svg">
<circle cx="12" cy="12" r="12" fill="black"/>
<path fill-rule="evenodd" clip-rule="evenodd" d="M16.6871 11.1752C17.044 11.5967 17.675 11.649 18.0964 11.2921C18.5179 10.9352 18.5702 10.3042 18.2133 9.88271L17.4502 10.529C18.2133 9.88271 18.2133 9.88266 18.2132 9.88259L18.213 9.88235L18.2123 9.88152L18.2097 9.87845L18.1998 9.86681L18.162 9.82234C18.129 9.78358 18.0807 9.727 18.019 9.65508C17.8958 9.51128 17.719 9.30602 17.5041 9.05918C17.0747 8.56603 16.4909 7.90455 15.8764 7.23476C15.2644 6.56771 14.6108 5.88036 14.0442 5.341C13.7622 5.07255 13.4871 4.82668 13.2402 4.63493C13.1169 4.53915 12.9874 4.44647 12.8577 4.36884C12.7405 4.29871 12.5645 4.20473 12.3572 4.15662C12.022 4.07882 11.7266 4.16312 11.5737 4.21643C11.3946 4.27888 11.2223 4.36815 11.07 4.45784C10.7629 4.63869 10.4189 4.89205 10.0704 5.17193C9.36699 5.73675 8.53738 6.49714 7.75561 7.24623C6.96983 7.99918 6.21541 8.7571 5.65852 9.32559C5.37976 9.61016 5.14976 9.848 4.9892 10.015C4.90891 10.0985 4.84594 10.1643 4.80288 10.2094L4.75352 10.2612L4.74063 10.2748L4.73724 10.2783L4.73633 10.2793L4.73606 10.2796C4.73599 10.2797 4.73593 10.2797 5.3874 10.8974L4.73593 10.2797C4.35593 10.6805 4.37278 11.3134 4.77356 11.6934C5.17433 12.0734 5.80727 12.0566 6.18727 11.6558L6.1874 11.6557L6.18805 11.655L6.19089 11.652L6.20267 11.6396L6.24969 11.5903C6.29115 11.5468 6.35239 11.4828 6.43084 11.4012C6.58777 11.238 6.81342 11.0047 7.08724 10.7251C7.63552 10.1654 8.37403 9.42362 9.13933 8.6903C9.83291 8.02571 10.5349 7.38126 11.1312 6.88755L11.1312 6.88978L11.1312 6.91848L11.1312 6.94725L11.1312 6.97607L11.1312 7.00495L11.1312 7.0339L11.1312 7.0629L11.1312 7.09196L11.1312 7.12107L11.1312 7.15024L11.1312 7.17947L11.1312 7.20875L11.1312 7.23809L11.1312 7.26748L11.1312 7.29693L11.1312 7.32642L11.1312 7.35598L11.1312 7.38558L11.1312 7.41523L11.1312 7.44494L11.1312 7.47469L11.1312 7.5045L11.1312 7.53435L11.1312 7.56426L11.1312 7.59421L11.1312 7.62421L11.1312 7.65425L11.1312 7.68435L11.1312 7.71449L11.1312 7.74467L11.1312 7.7749L11.1312 7.80517L11.1312 7.83549L11.1312 7.86585L11.1312 7.89626L11.1312 7.9267L11.1312 7.95719L11.1312 7.98772L11.1312 8.01829L11.1312 8.04889L11.1312 8.07954L11.1312 8.11023L11.1312 8.14096L11.1312 8.17172L11.1312 8.20252L11.1312 8.23336L11.1312 8.26423L11.1312 8.29514L11.1312 8.32608L11.1312 8.35706L11.1312 8.38808L11.1312 8.41912L11.1312 8.4502L11.1312 8.48131L11.1312 8.51246L11.1312 8.54363L11.1312 8.57484L11.1312 8.60607L11.1312 8.63734L11.1312 8.66863L11.1312 8.69996L11.1312 8.73131L11.1312 8.76268L11.1312 8.79409L11.1312 8.82552L11.1312 8.85698L11.1312 8.88846L11.1312 8.91997L11.1312 8.9515L11.1312 8.98306L11.1312 9.01463L11.1312 9.04623L11.1312 9.07786L11.1312 9.1095L11.1312 9.14117L11.1312 9.17285L11.1312 9.20456L11.1312 9.23628L11.1312 9.26803L11.1312 9.29979L11.1312 9.33157L11.1312 9.36336L11.1312 9.39517L11.1312 9.427L11.1312 9.45885L11.1312 9.49071L11.1312 9.52258L11.1312 9.55447L11.1312 9.58637L11.1312 9.61828L11.1312 9.65021L11.1312 9.68214L11.1312 9.71409L11.1312 9.74605L11.1312 9.77802L11.1312 9.80999L11.1312 9.84198L11.1312 9.87398L11.1312 9.90598L11.1312 9.93799L11.1312 9.97001L11.1312 10.002L11.1312 10.0341L11.1312 10.0661L11.1312 10.0981L11.1312 10.1302L11.1312 10.1622L11.1312 10.1943L11.1312 10.2263L11.1312 10.2584L11.1312 10.2904L11.1312 10.3225L11.1312 10.3545L11.1312 10.3866L11.1312 10.4186L11.1312 10.4507L11.1312 10.4827L11.1312 10.5148L11.1312 10.5468L11.1312 10.5789L11.1312 10.6109L11.1312 10.6429L11.1312 10.675L11.1312 10.707L11.1312 10.739L11.1312 10.771L11.1312 10.803L11.1312 10.835L11.1312 10.867L11.1312 10.899L11.1312 10.9309L11.1312 10.9629L11.1312 10.9948L11.1312 11.0268L11.1312 11.0587L11.1312 11.0906L11.1312 11.1225L11.1312 11.1544L11.1312 11.1862L11.1312 11.2181L11.1312 11.2499L11.1312 11.2817L11.1312 11.3135L11.1312 11.3453L11.1312 11.3771L11.1312 11.4089L11.1312 11.4406L11.1312 11.4723L11.1312 11.504L11.1312 11.5357L11.1312 11.5673L11.1312 11.599L11.1312 11.6306L11.1312 11.6622L11.1312 11.6937L11.1312 11.7253L11.1312 11.7568L11.1312 11.7883L11.1312 11.8198L11.1312 11.8512L11.1312 11.8826L11.1312 11.914L11.1312 11.9454L11.1312 11.9767L11.1312 12.0081L11.1312 12.0393L11.1312 12.0706L11.1312 12.1018L11.1312 12.133L11.1312 12.1642L11.1312 12.1953L11.1312 12.2264L11.1312 12.2575L11.1312 12.2885L11.1312 12.3195L11.1312 12.3505L11.1312 12.3814L11.1312 12.4123L11.1312 12.4431L11.1312 12.474L11.1312 12.5047L11.1312 12.5355L11.1312 12.5662L11.1312 12.5969L11.1312 12.6275L11.1312 12.6581L11.1312 12.6886L11.1312 12.7192L11.1312 12.7496L11.1312 12.7801L11.1312 12.8104L11.1312 12.8408L11.1312 12.8711L11.1312 12.9013L11.1312 12.9315L11.1312 12.9617L11.1312 12.9918L11.1312 13.0219L11.1312 13.0519L11.1312 13.0819L11.1312 13.1118L11.1312 13.1417L11.1312 13.1716L11.1312 13.2013L11.1312 13.2311L11.1312 13.2608L11.1312 13.2904L11.1312 13.32L11.1312 13.3495L11.1312 13.379L11.1312 13.4084L11.1312 13.4378L11.1312 13.4671L11.1312 13.4963L11.1312 13.5255L11.1312 13.5547L11.1312 13.5838L11.1312 13.6128L11.1312 13.6418L11.1312 13.6707L11.1312 13.6996L11.1312 13.7284L11.1312 13.7571L11.1312 13.7858L11.1312 13.8144L11.1312 13.843L11.1312 13.8714L11.1312 13.8999L11.1312 13.9282L11.1312 13.9566L11.1312 13.9848L11.1312 14.013L11.1312 14.0411L11.1312 14.0691L11.1312 14.0971L11.1312 14.125L11.1312 14.1529L11.1312 14.1806L11.1312 14.2083L11.1312 14.236L11.1312 14.2635L11.1312 14.291L11.1312 14.3185L11.1312 14.3458L11.1312 14.3731L11.1312 14.4003L11.1312 14.4275L11.1312 14.4545L11.1312 14.4815L11.1312 14.5084L11.1312 14.5353L11.1312 14.562L11.1312 14.5887L11.1312 14.6153L11.1312 14.6419L11.1312 14.6683L11.1312 14.6947L11.1312 14.721L11.1312 14.7472L11.1312 14.7734L11.1312 14.7994L11.1312 14.8254L11.1312 14.8513L11.1312 14.8771L11.1312 14.9029L11.1312 14.9285L11.1312 14.9541L11.1312 14.9795L11.1312 15.0049L11.1312 15.0303L11.1312 15.0555L11.1312 15.0806L11.1312 15.1057L11.1312 15.1306L11.1312 15.1555L11.1312 15.1803L11.1312 15.205L11.1312 15.2296L11.1312 15.2541L11.1312 15.2785L11.1312 15.3029L11.1312 15.3271L11.1312 15.3512L11.1312 15.3753L11.1312 15.3993L11.1312 15.4231L11.1312 15.4469L11.1312 15.4706L11.1312 15.4942L11.1312 15.5176L11.1312 15.541L11.1312 15.5643L11.1312 15.5875L11.1312 15.6106L11.1312 15.6336L11.1312 15.6565L11.1312 15.6793L11.1312 15.702L11.1312 15.7246L11.1312 15.747L11.1312 15.7694L11.1312 15.7917L11.1312 15.8139L11.1312 15.836L11.1312 15.8579L11.1312 15.8798L11.1312 15.9016L11.1312 15.9232L11.1312 15.9448L11.1312 15.9662L11.1312 15.9875L11.1312 16.0088L11.1312 16.0299L11.1312 16.0509L11.1312 16.0718L11.1312 16.0926L11.1312 16.1132L11.1312 16.1338L11.1312 16.1543L11.1312 16.1746L11.1312 16.1948L11.1312 16.2149L11.1312 16.2349L11.1312 16.2548L11.1312 16.2746L11.1312 16.2942L11.1312 16.3137L11.1312 16.3332L11.1312 16.3525L11.1312 16.3716L11.1312 16.3907L11.1312 16.4096L11.1312 16.4284L11.1312 16.4471L11.1312 16.4657L11.1312 16.4842L11.1312 16.5025L11.1312 16.5207L11.1312 16.5388L11.1312 16.5568L11.1312 16.5746L11.1312 16.5923L11.1312 16.6099L11.1312 16.6274L11.1312 16.6447L11.1312 16.6619L11.1312 16.679L11.1312 16.696L11.1312 16.7128L11.1312 16.7295L11.1312 16.7461L11.1312 16.7625L11.1312 16.7788L11.1312 16.795L11.1312 16.811L11.1312 16.8269L11.1312 16.8427L11.1312 16.8584L11.1312 16.8739L11.1312 16.8893L11.1312 16.9045L11.1312 16.9196L11.1312 16.9346L11.1312 16.9494L11.1312 16.9641L11.1312 16.9787L11.1312 16.9931L11.1312 17.0073L11.1312 17.0215L11.1312 17.0355L11.1312 17.0493L11.1312 17.0631L11.1312 17.0766L11.1312 17.0901L11.1312 17.1034L11.1312 17.1165L11.1312 17.1295L11.1312 17.1424L11.1312 17.1551L11.1312 17.1676L11.1312 17.1801L11.1312 17.1923L11.1312 17.2045L11.1312 17.2165L11.1312 17.2283L11.1312 17.24L11.1312 17.2515L11.1312 17.2629L11.1312 17.2741L11.1312 17.2852L11.1312 17.2961L11.1312 17.3069L11.1312 17.3175L11.1312 17.328L11.1312 17.3383L11.1312 17.3485L11.1312 17.3585L11.1312 17.3683L11.1312 17.378L11.1312 17.3876L11.1312 17.397L11.1312 17.4062L11.1312 17.4153L11.1312 17.4242L11.1312 17.4329L11.1312 17.4415L11.1312 17.4499L11.1312 17.4582L11.1312 17.4663L11.1312 17.4743L11.1312 17.4821L11.1312 17.4897L11.1312 17.4971L11.1312 17.5044L11.1312 17.5116L11.1312 17.5185L11.1312 17.5253L11.1312 17.5319L11.1312 17.5384L11.1312 17.5447L11.1312 17.5508L11.1312 17.5568L11.1312 17.5626L11.1312 17.5682L11.1312 17.5737L11.1312 17.5789L11.1312 17.5841L11.1312 17.589L11.1312 17.5938L11.1312 17.5984L11.1312 17.6028L11.1312 17.607L11.1312 17.6111L11.1312 17.615L11.1312 17.6187L11.1312 17.6222L11.1312 17.6256L11.1312 17.6288L11.1312 17.6318L11.1312 17.6346L11.1312 17.6373L11.1312 17.6398L11.1312 17.6421L11.1312 17.6442L11.1312 17.6461L11.1312 17.6479L11.1312 17.6494L11.1312 17.6508L11.1312 17.652L11.1312 17.6531L11.1312 17.6539L11.1312 17.6545L11.1312 17.655L11.1312 17.6553L12.1312 17.6554L11.1312 17.6554C11.1312 18.2077 11.5789 18.6554 12.1312 18.6554C12.6835 18.6554 13.1312 18.2077 13.1312 17.6554L12.1312 17.6554L13.1312 17.6553L13.1312 17.655L13.1312 17.6545L13.1312 17.6539L13.1312 17.6531L13.1312 17.652L13.1312 17.6508L13.1312 17.6494L13.1312 17.6479L13.1312 17.6461L13.1312 17.6442L13.1312 17.6421L13.1312 17.6398L13.1312 17.6373L13.1312 17.6346L13.1312 17.6318L13.1312 17.6288L13.1312 17.6256L13.1312 17.6222L13.1312 17.6187L13.1312 17.615L13.1312 17.6111L13.1312 17.607L13.1312 17.6028L13.1312 17.5984L13.1312 17.5938L13.1312 17.589L13.1312 17.5841L13.1312 17.5789L13.1312 17.5737L13.1312 17.5682L13.1312 17.5626L13.1312 17.5568L13.1312 17.5508L13.1312 17.5447L13.1312 17.5384L13.1312 17.5319L13.1312 17.5253L13.1312 17.5185L13.1312 17.5116L13.1312 17.5044L13.1312 17.4971L13.1312 17.4897L13.1312 17.4821L13.1312 17.4743L13.1312 17.4663L13.1312 17.4582L13.1312 17.4499L13.1312 17.4415L13.1312 17.4329L13.1312 17.4242L13.1312 17.4153L13.1312 17.4062L13.1312 17.397L13.1312 17.3876L13.1312 17.378L13.1312 17.3683L13.1312 17.3585L13.1312 17.3485L13.1312 17.3383L13.1312 17.328L13.1312 17.3175L13.1312 17.3069L13.1312 17.2961L13.1312 17.2852L13.1312 17.2741L13.1312 17.2629L13.1312 17.2515L13.1312 17.24L13.1312 17.2283L13.1312 17.2165L13.1312 17.2045L13.1312 17.1923L13.1312 17.1801L13.1312 17.1676L13.1312 17.1551L13.1312 17.1424L13.1312 17.1295L13.1312 17.1165L13.1312 17.1034L13.1312 17.0901L13.1312 17.0766L13.1312 17.0631L13.1312 17.0493L13.1312 17.0355L13.1312 17.0215L13.1312 17.0073L13.1312 16.9931L13.1312 16.9787L13.1312 16.9641L13.1312 16.9494L13.1312 16.9346L13.1312 16.9196L13.1312 16.9045L13.1312 16.8893L13.1312 16.8739L13.1312 16.8584L13.1312 16.8427L13.1312 16.8269L13.1312 16.811L13.1312 16.795L13.1312 16.7788L13.1312 16.7625L13.1312 16.7461L13.1312 16.7295L13.1312 16.7128L13.1312 16.696L13.1312 16.679L13.1312 16.6619L13.1312 16.6447L13.1312 16.6274L13.1312 16.6099L13.1312 16.5923L13.1312 16.5746L13.1312 16.5568L13.1312 16.5388L13.1312 16.5207L13.1312 16.5025L13.1312 16.4842L13.1312 16.4657L13.1312 16.4471L13.1312 16.4284L13.1312 16.4096L13.1312 16.3907L13.1312 16.3716L13.1312 16.3525L13.1312 16.3332L13.1312 16.3137L13.1312 16.2942L13.1312 16.2746L13.1312 16.2548L13.1312 16.2349L13.1312 16.2149L13.1312 16.1948L13.1312 16.1746L13.1312 16.1543L13.1312 16.1338L13.1312 16.1132L13.1312 16.0926L13.1312 16.0718L13.1312 16.0509L13.1312 16.0299L13.1312 16.0088L13.1312 15.9875L13.1312 15.9662L13.1312 15.9448L13.1312 15.9232L13.1312 15.9016L13.1312 15.8798L13.1312 15.8579L13.1312 15.836L13.1312 15.8139L13.1312 15.7917L13.1312 15.7694L13.1312 15.747L13.1312 15.7246L13.1312 15.702L13.1312 15.6793L13.1312 15.6565L13.1312 15.6336L13.1312 15.6106L13.1312 15.5875L13.1312 15.5643L13.1312 15.541L13.1312 15.5176L13.1312 15.4942L13.1312 15.4706L13.1312 15.4469L13.1312 15.4231L13.1312 15.3993L13.1312 15.3753L13.1312 15.3512L13.1312 15.3271L13.1312 15.3029L13.1312 15.2785L13.1312 15.2541L13.1312 15.2296L13.1312 15.205L13.1312 15.1803L13.1312 15.1555L13.1312 15.1306L13.1312 15.1057L13.1312 15.0806L13.1312 15.0555L13.1312 15.0303L13.1312 15.0049L13.1312 14.9795L13.1312 14.9541L13.1312 14.9285L13.1312 14.9029L13.1312 14.8771L13.1312 14.8513L13.1312 14.8254L13.1312 14.7994L13.1312 14.7734L13.1312 14.7472L13.1312 14.721L13.1312 14.6947L13.1312 14.6683L13.1312 14.6419L13.1312 14.6153L13.1312 14.5887L13.1312 14.562L13.1312 14.5353L13.1312 14.5084L13.1312 14.4815L13.1312 14.4545L13.1312 14.4275L13.1312 14.4003L13.1312 14.3731L13.1312 14.3458L13.1312 14.3185L13.1312 14.291L13.1312 14.2635L13.1312 14.236L13.1312 14.2083L13.1312 14.1806L13.1312 14.1529L13.1312 14.125L13.1312 14.0971L13.1312 14.0691L13.1312 14.0411L13.1312 14.013L13.1312 13.9848L13.1312 13.9566L13.1312 13.9282L13.1312 13.8999L13.1312 13.8714L13.1312 13.843L13.1312 13.8144L13.1312 13.7858L13.1312 13.7571L13.1312 13.7284L13.1312 13.6996L13.1312 13.6707L13.1312 13.6418L13.1312 13.6128L13.1312 13.5838L13.1312 13.5547L13.1312 13.5255L13.1312 13.4963L13.1312 13.4671L13.1312 13.4378L13.1312 13.4084L13.1312 13.379L13.1312 13.3495L13.1312 13.32L13.1312 13.2904L13.1312 13.2608L13.1312 13.2311L13.1312 13.2013L13.1312 13.1716L13.1312 13.1417L13.1312 13.1118L13.1312 13.0819L13.1312 13.0519L13.1312 13.0219L13.1312 12.9918L13.1312 12.9617L13.1312 12.9315L13.1312 12.9013L13.1312 12.8711L13.1312 12.8408L13.1312 12.8104L13.1312 12.7801L13.1312 12.7496L13.1312 12.7192L13.1312 12.6886L13.1312 12.6581L13.1312 12.6275L13.1312 12.5969L13.1312 12.5662L13.1312 12.5355L13.1312 12.5047L13.1312 12.474L13.1312 12.4431L13.1312 12.4123L13.1312 12.3814L13.1312 12.3505L13.1312 12.3195L13.1312 12.2885L13.1312 12.2575L13.1312 12.2264L13.1312 12.1953L13.1312 12.1642L13.1312 12.133L13.1312 12.1018L13.1312 12.0706L13.1312 12.0393L13.1312 12.0081L13.1312 11.9767L13.1312 11.9454L13.1312 11.914L13.1312 11.8826L13.1312 11.8512L13.1312 11.8198L13.1312 11.7883L13.1312 11.7568L13.1312 11.7253L13.1312 11.6937L13.1312 11.6622L13.1312 11.6306L13.1312 11.599L13.1312 11.5673L13.1312 11.5357L13.1312 11.504L13.1312 11.4723L13.1312 11.4406L13.1312 11.4089L13.1312 11.3771L13.1312 11.3453L13.1312 11.3135L13.1312 11.2817L13.1312 11.2499L13.1312 11.2181L13.1312 11.1862L13.1312 11.1544L13.1312 11.1225L13.1312 11.0906L13.1312 11.0587L13.1312 11.0268L13.1312 10.9948L13.1312 10.9629L13.1312 10.9309L13.1312 10.899L13.1312 10.867L13.1312 10.835L13.1312 10.803L13.1312 10.771L13.1312 10.739L13.1312 10.707L13.1312 10.675L13.1312 10.6429L13.1312 10.6109L13.1312 10.5789L13.1312 10.5468L13.1312 10.5148L13.1312 10.4827L13.1312 10.4507L13.1312 10.4186L13.1312 10.3866L13.1312 10.3545L13.1312 10.3225L13.1312 10.2904L13.1312 10.2584L13.1312 10.2263L13.1312 10.1943L13.1312 10.1622L13.1312 10.1302L13.1312 10.0981L13.1312 10.0661L13.1312 10.0341L13.1312 10.002L13.1312 9.97001L13.1312 9.93799L13.1312 9.90598L13.1312 9.87398L13.1312 9.84198L13.1312 9.80999L13.1312 9.77802L13.1312 9.74605L13.1312 9.71409L13.1312 9.68214L13.1312 9.65021L13.1312 9.61828L13.1312 9.58637L13.1312 9.55447L13.1312 9.52258L13.1312 9.49071L13.1312 9.45885L13.1312 9.427L13.1312 9.39517L13.1312 9.36336L13.1312 9.33157L13.1312 9.29979L13.1312 9.26803L13.1312 9.23628L13.1312 9.20456L13.1312 9.17285L13.1312 9.14117L13.1312 9.1095L13.1312 9.07786L13.1312 9.04623L13.1312 9.01463L13.1312 8.98306L13.1312 8.9515L13.1312 8.91997L13.1312 8.88846L13.1312 8.85698L13.1312 8.82552L13.1312 8.79409L13.1312 8.76268L13.1312 8.73131L13.1312 8.69996L13.1312 8.66863L13.1312 8.63734L13.1312 8.60607L13.1312 8.57484L13.1312 8.54363L13.1312 8.51246L13.1312 8.48131L13.1312 8.4502L13.1312 8.41912L13.1312 8.38808L13.1312 8.35706L13.1312 8.32608L13.1312 8.29514L13.1312 8.26423L13.1312 8.23336L13.1312 8.20252L13.1312 8.17172L13.1312 8.14096L13.1312 8.11023L13.1312 8.07954L13.1312 8.04889L13.1312 8.01829L13.1312 7.98772L13.1312 7.95719L13.1312 7.9267L13.1312 7.89626L13.1312 7.86585L13.1312 7.83549L13.1312 7.80517L13.1312 7.7749L13.1312 7.74467L13.1312 7.71449L13.1312 7.68435L13.1312 7.65425L13.1312 7.62421L13.1312 7.59421L13.1312 7.56426L13.1312 7.53435L13.1312 7.5045L13.1312 7.47469L13.1312 7.44494L13.1312 7.41523L13.1312 7.38558L13.1312 7.35598L13.1312 7.32643L13.1312 7.29693L13.1312 7.26748L13.1312 7.24708C13.5352 7.65407 13.9732 8.11875 14.4027 8.58689C15.0016 9.23967 15.5732 9.88726 15.9957 10.3725C16.2068 10.6149 16.3801 10.8162 16.5005 10.9567C16.5607 11.0269 16.6076 11.0818 16.6393 11.1191L16.6753 11.1614L16.6843 11.172L16.6865 11.1745L16.687 11.1751L16.6871 11.1752L16.6871 11.1752Z" fill="#F4F1E8"/>
</svg>
