<svg width="345" height="210" viewBox="0 0 345 210" fill="none" xmlns="http://www.w3.org/2000/svg">
<path d="M1 9.63877C1.39547 8.05076 0.587402 2.35084 1.89099 1.08248C20.0678 1.08248 44.5909 0.896902 62.8296 1.08248C135.915 1.08248 207.109 1.48246 279.282 1.48246C302.738 1.48246 325.013 1.48246 342.895 1.77627C343.87 3.72489 343.76 47.2909 343.87 53.3683C344.453 85.6476 342.887 117.956 342.887 150.239C342.887 169.112 340.65 189.008 342.352 207.865C339.283 208.745 310.081 208.099 307.675 208.092C253.287 207.921 196.164 209 141.781 209C93.8313 209 50.9879 207.86 2.99708 207.86C0.868003 207.86 1.67176 186.463 1.67176 185.146C1.67176 126.645 0.999949 68.1243 1 9.63877Z" fill="white"/>
<path d="M1.89099 1.08248V0.0824785H1.48478L1.19364 0.365753L1.89099 1.08248ZM1 9.63877L0.0296383 9.39711L1.06565e-07 9.51612L0 9.63877L1 9.63877ZM307.675 208.092L307.671 209.092L307.671 209.092L307.675 208.092ZM342.352 207.865L342.627 208.826L343.422 208.598L343.348 207.775L342.352 207.865ZM342.895 1.77627L343.789 1.3287C343.622 0.995398 343.284 0.782528 342.911 0.776405L342.895 1.77627ZM62.8296 1.08248L62.8194 2.08248H62.8296V1.08248ZM343.87 53.3683L344.87 53.3503L344.87 53.3503L343.87 53.3683ZM1.19364 0.365753C0.611385 0.932269 0.384961 1.82759 0.269119 2.57876C0.143722 3.3919 0.110214 4.33321 0.10497 5.23494C0.099971 6.09432 0.122946 7.10374 0.122741 7.80998C0.122508 8.61302 0.0936206 9.14019 0.0296383 9.39711L1.97036 9.88043C2.10412 9.34334 2.12252 8.56252 2.12274 7.81056C2.12299 6.9618 2.09957 6.16922 2.10494 5.24657C2.11006 4.36628 2.14367 3.54554 2.24575 2.88359C2.35739 2.15967 2.5188 1.86687 2.58835 1.7992L1.19364 0.365753ZM307.671 209.092C308.903 209.096 316.718 209.258 324.758 209.311C328.754 209.337 332.777 209.336 335.997 209.272C337.606 209.241 339.023 209.193 340.14 209.126C341.214 209.06 342.12 208.972 342.627 208.826L342.076 206.903C341.817 206.978 341.138 207.061 340.019 207.129C338.942 207.195 337.555 207.241 335.958 207.273C332.764 207.336 328.761 207.337 324.772 207.311C316.842 207.259 308.853 207.095 307.678 207.092L307.671 209.092ZM342.911 0.776405C325.02 0.48243 302.735 0.482459 279.282 0.482459V2.48246C302.741 2.48246 325.007 2.48249 342.878 2.77613L342.911 0.776405ZM62.8398 0.0825303C44.5949 -0.103109 20.0546 0.0824785 1.89099 0.0824785V2.08248C20.081 2.08248 44.5869 1.89691 62.8194 2.08243L62.8398 0.0825303ZM279.282 0.482459C243.197 0.482459 207.357 0.382469 171.401 0.282473C135.445 0.182478 99.374 0.0824785 62.8296 0.0824785V2.08248C99.3708 2.08248 135.439 2.18247 171.395 2.28247C207.351 2.38246 243.194 2.48246 279.282 2.48246V0.482459ZM344.87 53.3503C344.815 50.3139 344.815 37.9327 344.707 26.0149C344.653 20.0661 344.571 14.2397 344.443 9.77611C344.378 7.54569 344.302 5.64608 344.21 4.23829C344.164 3.53585 344.114 2.94304 344.058 2.48749C344.03 2.26044 343.998 2.05433 343.963 1.87935C343.932 1.72905 343.883 1.51597 343.789 1.3287L342 2.22384C341.968 2.15836 341.977 2.14835 342.003 2.27758C342.024 2.38213 342.048 2.53201 342.073 2.73256C342.122 3.13224 342.169 3.68116 342.214 4.36834C342.304 5.73979 342.379 7.61095 342.443 9.83383C342.572 14.2769 342.653 20.0871 342.707 26.0331C342.815 37.9049 342.815 50.3454 342.87 53.3864L344.87 53.3503ZM343.887 150.239C343.887 118.049 345.453 85.6129 344.87 53.3503L342.87 53.3864C343.454 85.6824 341.887 117.863 341.887 150.239H343.887ZM343.348 207.775C342.502 198.412 342.634 188.775 342.98 179.094C343.326 169.434 343.887 159.699 343.887 150.239H341.887C341.887 159.652 341.329 169.302 340.981 179.022C340.635 188.722 340.499 198.461 341.356 207.955L343.348 207.775ZM141.781 210C196.223 210 253.252 208.921 307.671 209.092L307.678 207.092C253.321 206.921 196.104 208 141.781 208V210ZM2.99708 208.86C26.9852 208.86 49.6877 209.145 72.3919 209.43C95.0946 209.715 117.799 210 141.781 210V208C117.813 208 95.1213 207.715 72.417 207.43C49.7144 207.145 26.9997 206.86 2.99708 206.86V208.86ZM0.671756 185.146C0.671756 185.704 0.471286 191.528 0.536084 197.009C0.568766 199.773 0.668188 202.529 0.897849 204.606C1.01171 205.636 1.16299 206.553 1.37352 207.234C1.47677 207.567 1.61475 207.914 1.81489 208.197C2.00873 208.471 2.39283 208.86 2.99708 208.86V206.86C3.33519 206.86 3.47608 207.082 3.44778 207.042C3.42578 207.011 3.36271 206.896 3.28419 206.643C3.13116 206.148 2.99593 205.383 2.88574 204.386C2.6673 202.41 2.56846 199.735 2.53594 196.985C2.47035 191.437 2.67176 185.905 2.67176 185.146H0.671756ZM0 9.63877C-2.54115e-05 38.8849 0.167933 68.1394 0.335875 97.3924C0.503823 126.646 0.671756 155.899 0.671756 185.146H2.67176C2.67176 155.892 2.50378 126.634 2.33584 97.3809C2.16789 68.1269 1.99997 38.8782 2 9.63877L0 9.63877Z" fill="black"/>
</svg>
