<svg width="40" height="40" viewBox="0 0 40 40" fill="none" xmlns="http://www.w3.org/2000/svg">
<path d="M33.4431 7.87824H34.4431C34.4431 7.32595 33.9953 6.87824 33.4431 6.87824V7.87824ZM15.9748 7.85558V6.85554L15.966 6.85561L15.9748 7.85558ZM8.08505 7.87824L8.35977 8.83976L8.08505 7.87824ZM7.89237 23.7598L8.87494 23.574L8.87494 23.574L7.89237 23.7598ZM10.1418 32.5362L9.26766 33.0218L10.1418 32.5362ZM29.2953 34.7799L29.0508 33.8102L29.2953 34.7799ZM33.4431 6.87824C30.5508 6.87824 27.6314 6.87258 24.7108 6.86691C21.7906 6.86124 18.8693 6.85558 15.9748 6.85558V8.85558C18.867 8.85558 21.7864 8.86124 24.707 8.86691C27.6272 8.87257 30.5485 8.87824 33.4431 8.87824V6.87824ZM15.966 6.85561C14.7103 6.86662 13.3127 6.73707 11.8427 6.66694C10.4495 6.60048 8.96696 6.58625 7.81033 6.91672L8.35977 8.83976C9.15932 8.61132 10.3305 8.59708 11.7474 8.66467C13.0876 8.72861 14.6568 8.86717 15.9835 8.85554L15.966 6.85561ZM7.81033 6.91672C7.07334 7.12728 6.71873 7.79905 6.54137 8.26153C6.34111 8.78375 6.21727 9.43308 6.13771 10.1215C5.97714 11.5109 5.9725 13.2941 6.04474 15.0961C6.18933 18.7028 6.6513 22.5791 6.90979 23.9457L8.87494 23.574C8.63912 22.3272 8.18489 18.5521 8.04313 15.016C7.9722 13.2465 7.98183 11.5855 8.12449 10.3511C8.19653 9.72774 8.29653 9.27034 8.40877 8.97764C8.54393 8.6252 8.59049 8.77384 8.35977 8.83976L7.81033 6.91672ZM6.90979 23.9457C7.14751 25.2025 7.41427 26.9066 7.76386 28.5102C8.11356 30.1144 8.57654 31.7778 9.26766 33.0218L11.016 32.0505C10.4763 31.0792 10.0617 29.6611 9.71797 28.0842C9.3741 26.5069 9.13152 24.9305 8.87494 23.574L6.90979 23.9457ZM9.26766 33.0218C9.85576 34.0804 10.8626 34.7644 11.9537 35.2152C13.0482 35.6674 14.3199 35.9238 15.5826 36.0726C18.0956 36.3688 20.8185 36.2598 22.3923 36.2598V34.2598C20.7026 34.2598 18.1755 34.3644 15.8167 34.0864C14.6435 33.9481 13.5739 33.7206 12.7173 33.3667C11.8572 33.0114 11.3031 32.5673 11.016 32.0505L9.26766 33.0218ZM22.3923 36.2598C24.5974 36.2598 27.4894 36.2667 29.5399 35.7495L29.0508 33.8102C27.2953 34.253 24.6897 34.2598 22.3923 34.2598V36.2598ZM29.5399 35.7495C30.5076 35.5054 31.2111 34.7789 31.7225 33.9469C32.2399 33.1052 32.6415 32.0282 32.9618 30.8386C33.6041 28.4537 33.9758 25.3995 34.1915 22.3249C34.6234 16.1686 34.4431 9.68841 34.4431 7.87824H32.4431C32.4431 9.76443 32.6218 16.1214 32.1964 22.185C31.9834 25.2203 31.6223 28.1218 31.0307 30.3185C30.7341 31.4196 30.3935 32.2899 30.0187 32.8995C29.6381 33.5187 29.2995 33.7475 29.0508 33.8102L29.5399 35.7495Z" fill="black"/>
<path d="M8.26611 16.4225H32.7427" stroke="black" stroke-width="2" stroke-linecap="round"/>
<path d="M15.2009 5.81603V10.1193" stroke="black" stroke-width="2" stroke-linecap="round"/>
<path d="M23.7682 5.00003V11.1192" stroke="black" stroke-width="2" stroke-linecap="round"/>
<path d="M13.5694 23.7656C14.3924 22.7598 17.3924 19.7598 18.85 22.5417C19.2806 23.3604 19.0538 26.6212 17.5129 26.6212C16.2696 25.9866 20.3924 24.7323 21.3204 25.9866C21.8924 26.7598 22.3924 27.6872 21.8924 29.2598C21.4845 30.5429 19.8924 31.2598 19.2806 31.5165" stroke="black" stroke-width="2" stroke-linecap="round"/>
<path d="M26.216 22.1337C25.9187 24.3259 25.808 26.4577 25.808 28.6608" stroke="black" stroke-width="2" stroke-linecap="round"/>
</svg>
