<svg width="40" height="40" viewBox="0 0 40 40" fill="none" xmlns="http://www.w3.org/2000/svg">
<path d="M9.31304 11.4591C13.1909 6.56869 18.9102 5.64816 24.783 6.49582C32.7628 8.58343 36.3919 15.8592 33.9459 23.3247C31.8488 29.7254 26.1785 33.7138 19.598 33.7138C14.412 33.7138 7.20624 32.579 5.36906 26.8115C3.66946 21.4759 6.05302 15.5703 9.31304 11.4591Z" stroke="#AAAAAA" stroke-width="2" stroke-linecap="round"/>
<path d="M30.1767 22.3467C29.2834 24.9843 26.7742 27.8979 24.2842 29.2281C21.9665 30.4664 17.5179 29.7963 15.0546 29.2281C10.0472 28.0732 8.67137 24.4471 9.24889 19.8353C10.1121 12.9421 17.1843 9.58706 23.4902 10.4675C29.1841 11.9084 31.9989 16.9669 30.1767 22.3467Z" stroke="#AAAAAA" stroke-width="2" stroke-linecap="round"/>
<path d="M9.86499 24.0539C9.86499 24.0539 17.61 19.7887 21.8656 19.26C24.5262 18.9295 27.5186 17.5674 30.1353 17.5674" stroke="#AAAAAA" stroke-width="2" stroke-linecap="round"/>
<path d="M13.108 13.5133C16.8666 17.2339 24.0975 22.1162 26.5 27" stroke="#AAAAAA" stroke-width="2" stroke-linecap="round"/>
<path d="M21.2162 11.0809C19.7332 16.9778 17.973 23.5961 17.973 29.7296" stroke="#AAAAAA" stroke-width="2" stroke-linecap="round"/>
</svg>
