<svg width="40" height="40" viewBox="0 0 40 40" fill="none" xmlns="http://www.w3.org/2000/svg">
<path d="M15.5007 10.7092L16.3127 11.2929C16.435 11.1229 16.5007 10.9187 16.5007 10.7092H15.5007ZM7.58787 11.4048L8.4071 11.9783L8.41361 11.969L8.41992 11.9595L7.58787 11.4048ZM9.15868 18.2118L8.36933 18.8258L9.15868 18.2118ZM6.54061 21.3535V22.3535H6.68067L6.81533 22.315L6.54061 21.3535ZM9.68231 28.1605L10.1737 29.0314L9.68231 28.1605ZM13.8712 28.1605L12.9167 28.4588L13.8712 28.1605ZM12.8239 31.8258H11.8239V31.8258L12.8239 31.8258ZM22.7726 32.873L23.759 33.0374L22.7726 32.873ZM32.1977 27.6369L31.3172 27.1628L32.1977 27.6369ZM33.7685 23.448L33.0614 24.1551L33.0614 24.1551L33.7685 23.448ZM30.1032 20.8299L29.656 21.7243L30.1032 20.8299ZM32.1977 17.6882L32.7264 18.537L32.1977 17.6882ZM32.7213 9.31041L33.5406 8.73694L33.5222 8.71071L33.5022 8.68571L32.7213 9.31041ZM27.4852 7.73957L27.9531 8.62335L27.9978 8.59968L28.0399 8.57162L27.4852 7.73957ZM18.8836 5.05496V6.05496H18.9298L18.9758 6.0507L18.8836 5.05496ZM14.6888 10.1254C14.6021 10.246 14.5731 10.2273 14.6078 10.2197C14.6109 10.219 14.543 10.2341 14.3435 10.1656C14.1443 10.0972 13.9046 9.97815 13.5897 9.80571C13.3008 9.64742 12.927 9.43153 12.5625 9.24729C11.8316 8.87787 10.8589 8.48225 9.7788 8.63687C8.64646 8.79895 7.64108 9.52224 6.75582 10.8501L8.41992 11.9595C9.10549 10.9312 9.67096 10.6727 10.0622 10.6167C10.5056 10.5532 11.0093 10.7032 11.6603 11.0322C11.9867 11.1972 12.2802 11.3688 12.6289 11.5598C12.9519 11.7367 13.3203 11.9288 13.6939 12.0571C14.0672 12.1854 14.5366 12.2827 15.0357 12.1734C15.5663 12.0572 15.992 11.739 16.3127 11.2929L14.6888 10.1254ZM6.76864 10.8314C5.82877 12.174 5.27345 13.2567 5.07953 14.1768C4.86869 15.1773 5.08855 15.9822 5.61649 16.6228C6.06468 17.1667 6.72369 17.5561 7.17089 17.8431C7.68017 18.1699 8.07775 18.4509 8.36933 18.8258L9.94803 17.5979C9.42555 16.9261 8.76157 16.4874 8.25098 16.1598C7.6783 15.7923 7.35911 15.5926 7.15995 15.3509C7.04054 15.206 6.94389 15.0289 7.03654 14.5893C7.14612 14.0693 7.51429 13.2537 8.4071 11.9783L6.76864 10.8314ZM6.54061 20.3535C6.2078 20.3535 5.89079 20.468 5.63632 20.6891C5.40022 20.8943 5.26785 21.147 5.19142 21.3593C5.04425 21.7681 5.02866 22.2395 5.05416 22.6567C5.10704 23.5219 5.36867 24.5925 5.74251 25.5855C6.11344 26.5708 6.63696 27.5923 7.27898 28.3029C7.59972 28.658 8.0067 28.999 8.50198 29.1749C9.0385 29.3654 9.626 29.3404 10.1737 29.0314L9.19094 27.2895C9.17594 27.298 9.19416 27.2983 9.17139 27.2902C9.10737 27.2675 8.96504 27.1858 8.76303 26.9622C8.35953 26.5156 7.94376 25.756 7.61425 24.8808C7.28765 24.0133 7.08769 23.1441 7.05044 22.5347C7.0414 22.3867 7.04284 22.2674 7.05068 22.1762C7.05455 22.1312 7.05965 22.0969 7.06452 22.0722C7.06946 22.0472 7.07331 22.0364 7.07316 22.0368C7.07311 22.037 7.06687 22.0546 7.0493 22.0827C7.03141 22.1112 6.99956 22.1541 6.94828 22.1987C6.82924 22.3021 6.67707 22.3535 6.54061 22.3535V20.3535ZM10.1737 29.0314C10.8264 28.6632 11.6251 28.3714 12.2502 28.3137C12.5626 28.2849 12.7469 28.3227 12.8336 28.3606C12.8803 28.381 12.896 28.3923 12.9167 28.4588L14.8257 27.8622C14.6243 27.2177 14.188 26.7703 13.6359 26.5286C13.124 26.3044 12.5629 26.2764 12.0664 26.3222C11.0735 26.4138 9.99999 26.8331 9.19094 27.2895L10.1737 29.0314ZM12.9167 28.4588C12.9231 28.4793 12.9406 28.5632 12.8847 28.7711C12.828 28.9817 12.722 29.2286 12.5714 29.5454C12.4347 29.8328 12.2468 30.2056 12.1065 30.5571C11.9652 30.9109 11.8239 31.3537 11.8239 31.8258H13.8239C13.8239 31.7321 13.8559 31.5692 13.9639 31.2988C14.0727 31.0262 14.2101 30.7564 14.3776 30.4043C14.531 30.0815 14.708 29.692 14.816 29.2907C14.9247 28.8866 14.9885 28.3831 14.8257 27.8622L12.9167 28.4588ZM23.759 33.0374C23.9042 32.1663 24.1762 30.4305 24.2768 29.9275L22.3156 29.5352C22.2068 30.0794 21.9211 31.8991 21.7862 32.7086L23.759 33.0374ZM24.2768 29.9275C24.3247 29.6881 24.372 29.6852 24.3114 29.747C24.2093 29.8512 24.0726 29.8736 24.0201 29.8702C24.014 29.8698 24.0888 29.8776 24.2785 29.9724C24.4567 30.0615 24.6704 30.193 24.9308 30.3668C25.412 30.6879 26.0866 31.1821 26.7326 31.5548C27.3814 31.9291 28.1938 32.3022 29.056 32.3022V30.3022C28.7361 30.3022 28.3028 30.1517 27.7319 29.8224C27.1582 29.4914 26.6387 29.102 26.0409 28.7032C25.7619 28.5169 25.4649 28.3294 25.1723 28.1833C24.8912 28.0428 24.535 27.8993 24.1491 27.8744C23.7168 27.8464 23.2514 27.9711 22.8828 28.3473C22.5557 28.6812 22.3987 29.12 22.3156 29.5352L24.2768 29.9275ZM29.056 32.3022C29.8002 32.3022 30.4432 32.1767 30.9799 31.8657C31.5319 31.5458 31.8646 31.0919 32.0907 30.6379C32.2997 30.2183 32.4485 29.7269 32.5776 29.3366C32.7174 28.9145 32.8618 28.5128 33.0782 28.111L31.3172 27.1628C31.0148 27.7243 30.8265 28.2625 30.6789 28.7082C30.5209 29.1858 30.4279 29.4904 30.3005 29.7462C30.1901 29.9677 30.0916 30.0689 29.9771 30.1352C29.8474 30.2104 29.5889 30.3022 29.056 30.3022V32.3022ZM33.0782 28.111C33.1373 28.0012 33.2904 27.7922 33.5701 27.4022C33.8193 27.0546 34.1271 26.6172 34.3911 26.158C34.6481 25.7113 34.9083 25.1693 35.0056 24.6132C35.107 24.0337 35.0454 23.3106 34.4756 22.7408L33.0614 24.1551C33.0615 24.1551 33.06 24.1536 33.0576 24.1505C33.0552 24.1473 33.0527 24.1434 33.0502 24.1389C33.045 24.1293 33.0435 24.1229 33.0436 24.1236C33.0445 24.1276 33.0527 24.1701 33.0355 24.2685C32.9983 24.4813 32.8746 24.7832 32.6574 25.1609C32.4473 25.5262 32.1908 25.8936 31.9447 26.2368C31.7291 26.5375 31.456 26.905 31.3172 27.1628L33.0782 28.111ZM34.4756 22.7409C33.3398 21.605 31.6765 20.4985 30.5504 19.9355L29.656 21.7243C30.6245 22.2085 32.1028 23.1964 33.0614 24.1551L34.4756 22.7409ZM32.7264 18.537C33.4754 18.0705 34.1929 17.5929 34.7529 17.0468C35.33 16.4842 35.7834 15.8077 35.9383 14.9413C36.0903 14.0904 35.9313 13.1832 35.5336 12.1938C35.1369 11.2073 34.4767 10.0743 33.5406 8.73694L31.9021 9.88387C32.7986 11.1645 33.3625 12.1554 33.6779 12.9399C33.9922 13.7216 34.0332 14.2329 33.9695 14.5894C33.9085 14.9305 33.7304 15.2504 33.3567 15.6148C32.9659 15.9959 32.4132 16.3759 31.669 16.8394L32.7264 18.537ZM33.5022 8.68571C32.3982 7.30568 31.3044 6.44671 30.1317 6.1761C28.9114 5.89448 27.8414 6.30026 26.9305 6.90751L28.0399 8.57162C28.6998 8.13164 29.2007 8.0138 29.682 8.12488C30.2111 8.24698 30.95 8.69704 31.9405 9.9351L33.5022 8.68571ZM27.0173 6.85578C26.46 7.15082 26.0023 7.53732 25.6413 7.85187C25.2454 8.19689 24.9987 8.42158 24.7513 8.57087C24.5431 8.69646 24.4408 8.70051 24.3552 8.68418C24.2307 8.66045 23.9508 8.5507 23.4797 8.07969L22.0655 9.4939C22.6734 10.1017 23.2985 10.5188 23.9806 10.6488C24.7016 10.7862 25.3075 10.571 25.7844 10.2834C26.2219 10.0194 26.6372 9.63689 26.9552 9.35971C27.3083 9.05206 27.6167 8.8014 27.9531 8.62335L27.0173 6.85578ZM23.4797 8.07969C23.2647 7.8646 23.1782 7.62949 23.1369 7.30047C23.1142 7.11944 23.1081 6.93738 23.0986 6.70114C23.09 6.48687 23.0782 6.20751 23.0276 5.93306C22.9752 5.64877 22.873 5.31723 22.6495 5.00553C22.4194 4.68479 22.1054 4.44688 21.7252 4.28607C21.0205 3.98801 20.0545 3.94226 18.7914 4.05922L18.9758 6.0507C20.1809 5.93911 20.7234 6.03388 20.946 6.12807C21.0295 6.16338 21.0339 6.18454 21.0242 6.17112C21.0211 6.16676 21.0414 6.19082 21.0607 6.29573C21.0819 6.41048 21.0911 6.55393 21.1003 6.78139C21.1085 6.9869 21.1168 7.26552 21.1525 7.54944C21.2278 8.15034 21.4338 8.86222 22.0655 9.4939L23.4797 8.07969ZM18.8836 4.05496C17.5808 4.05496 16.5543 4.20665 15.7919 4.58921C14.9502 5.0116 14.5043 5.67744 14.3353 6.45522C14.186 7.14256 14.2582 7.90697 14.3304 8.5679C14.4083 9.28141 14.5007 9.96871 14.5007 10.7092H16.5007C16.5007 9.8303 16.3895 9.00113 16.3185 8.35083C16.2418 7.64796 16.2199 7.20123 16.2897 6.87986C16.3399 6.64893 16.4265 6.50847 16.689 6.37676C17.0308 6.2052 17.6802 6.05496 18.8836 6.05496V4.05496ZM8.36933 18.8258C8.55867 19.0692 8.53433 19.1758 8.51164 19.2252C8.44548 19.3694 8.05114 19.8819 6.26589 20.392L6.81533 22.315C8.69538 21.7779 9.87186 21.0562 10.3293 20.0595C10.8302 18.9682 10.2823 18.0276 9.94803 17.5979L8.36933 18.8258ZM30.5504 19.9355C30.2975 19.809 30.1746 19.7152 30.1245 19.6672C30.0776 19.6223 30.1471 19.6692 30.1702 19.813C30.2203 20.1262 29.98 20.1943 30.2681 19.9594C30.4948 19.7746 30.8505 19.5679 31.3194 19.3163C31.7514 19.0845 32.2848 18.8121 32.7264 18.537L31.669 16.8394C31.3001 17.0692 30.8644 17.2907 30.3739 17.5539C29.9205 17.7971 29.4006 18.0862 29.0042 18.4094C28.6691 18.6827 28.058 19.2714 28.1953 20.1292C28.2619 20.5453 28.4895 20.8705 28.7409 21.1114C28.9891 21.3492 29.3046 21.5486 29.656 21.7243L30.5504 19.9355ZM11.8239 31.8258C11.824 32.4721 12.1182 33.011 12.4868 33.4204C12.8517 33.8257 13.3323 34.1556 13.8414 34.4219C14.8617 34.9554 16.1747 35.3255 17.468 35.5003C18.7567 35.6744 20.1262 35.6682 21.2534 35.3696C22.3436 35.0807 23.53 34.4115 23.759 33.0374L21.7862 32.7086C21.7534 32.9054 21.5653 33.2179 20.7411 33.4363C19.9539 33.6449 18.8689 33.6714 17.7359 33.5183C16.6075 33.3658 15.5315 33.0487 14.7682 32.6496C14.3856 32.4495 14.1257 32.2516 13.9731 32.0822C13.8242 31.9168 13.8239 31.8339 13.8239 31.8258L11.8239 31.8258Z" fill="#AAAAAA"/>
<path d="M17.4806 22.3928C16.1885 20.9813 17.886 17.9732 18.8 17.1082C20.2259 15.7588 22.7581 15.6669 23.1979 17.5886C23.5277 19.0298 23.0115 21.1551 21.8785 22.3928C20.1194 24.3145 18.1953 23.1735 17.4806 22.3928Z" stroke="#AAAAAA" stroke-width="2" stroke-linecap="round"/>
</svg>
