<svg width="40" height="40" viewBox="0 0 40 40" fill="none" xmlns="http://www.w3.org/2000/svg">
<path d="M15.5007 10.7093L16.3127 11.293C16.435 11.123 16.5007 10.9188 16.5007 10.7093H15.5007ZM7.58787 11.4049L8.4071 11.9784L8.41361 11.9691L8.41992 11.9596L7.58787 11.4049ZM9.15868 18.2119L8.36933 18.8259L9.15868 18.2119ZM6.54061 21.3536V22.3536H6.68067L6.81533 22.3151L6.54061 21.3536ZM9.68231 28.1606L10.1737 29.0315L9.68231 28.1606ZM13.8712 28.1606L12.9167 28.4588L13.8712 28.1606ZM12.8239 31.8259H11.8239V31.8259L12.8239 31.8259ZM22.7726 32.8731L23.759 33.0375L22.7726 32.8731ZM32.1977 27.637L31.3172 27.1629L32.1977 27.637ZM33.7685 23.448L33.0614 24.1552L33.0614 24.1552L33.7685 23.448ZM30.1032 20.83L29.656 21.7244L30.1032 20.83ZM32.1977 17.6883L32.7264 18.5371L32.1977 17.6883ZM32.7213 9.3105L33.5406 8.73704L33.5222 8.71081L33.5022 8.6858L32.7213 9.3105ZM27.4852 7.73966L27.9531 8.62344L27.9978 8.59977L28.0399 8.57171L27.4852 7.73966ZM18.8836 5.05505V6.05505H18.9298L18.9758 6.05079L18.8836 5.05505ZM14.6888 10.1255C14.6021 10.2461 14.5731 10.2274 14.6078 10.2198C14.6109 10.2191 14.543 10.2342 14.3435 10.1657C14.1443 10.0973 13.9046 9.97824 13.5897 9.8058C13.3008 9.64751 12.927 9.43162 12.5625 9.24738C11.8316 8.87796 10.8589 8.48234 9.7788 8.63696C8.64646 8.79905 7.64108 9.52233 6.75582 10.8502L8.41992 11.9596C9.10549 10.9313 9.67096 10.6728 10.0622 10.6168C10.5056 10.5533 11.0093 10.7033 11.6603 11.0323C11.9867 11.1973 12.2802 11.3689 12.6289 11.5599C12.9519 11.7368 13.3203 11.9289 13.6939 12.0572C14.0672 12.1854 14.5366 12.2828 15.0357 12.1735C15.5663 12.0573 15.992 11.7391 16.3127 11.293L14.6888 10.1255ZM6.76864 10.8315C5.82877 12.1741 5.27345 13.2568 5.07953 14.1769C4.86869 15.1774 5.08855 15.9823 5.61649 16.6229C6.06468 17.1668 6.72369 17.5562 7.17089 17.8432C7.68017 18.17 8.07775 18.451 8.36933 18.8259L9.94803 17.598C9.42555 16.9262 8.76157 16.4875 8.25098 16.1599C7.6783 15.7924 7.35911 15.5927 7.15995 15.351C7.04054 15.2061 6.94389 15.029 7.03654 14.5894C7.14612 14.0694 7.51429 13.2538 8.4071 11.9784L6.76864 10.8315ZM6.54061 20.3536C6.2078 20.3536 5.89079 20.4681 5.63632 20.6892C5.40022 20.8944 5.26785 21.1471 5.19142 21.3594C5.04425 21.7682 5.02866 22.2395 5.05416 22.6567C5.10704 23.522 5.36867 24.5926 5.74251 25.5856C6.11344 26.5708 6.63696 27.5924 7.27898 28.303C7.59972 28.6581 8.0067 28.9991 8.50198 29.175C9.0385 29.3655 9.626 29.3405 10.1737 29.0315L9.19094 27.2896C9.17594 27.2981 9.19416 27.2984 9.17139 27.2903C9.10737 27.2676 8.96504 27.1859 8.76303 26.9623C8.35953 26.5157 7.94376 25.7561 7.61425 24.8809C7.28765 24.0134 7.08769 23.1442 7.05044 22.5347C7.0414 22.3868 7.04284 22.2675 7.05068 22.1763C7.05455 22.1313 7.05965 22.097 7.06452 22.0723C7.06946 22.0473 7.07331 22.0365 7.07316 22.0369C7.07311 22.0371 7.06687 22.0547 7.0493 22.0827C7.03141 22.1113 6.99956 22.1542 6.94828 22.1988C6.82924 22.3022 6.67707 22.3536 6.54061 22.3536V20.3536ZM10.1737 29.0315C10.8264 28.6633 11.6251 28.3715 12.2502 28.3138C12.5626 28.285 12.7469 28.3227 12.8336 28.3607C12.8803 28.3811 12.896 28.3924 12.9167 28.4588L14.8257 27.8623C14.6243 27.2178 14.188 26.7704 13.6359 26.5287C13.124 26.3045 12.5629 26.2765 12.0664 26.3223C11.0735 26.4139 9.99999 26.8332 9.19094 27.2896L10.1737 29.0315ZM12.9167 28.4588C12.9231 28.4794 12.9406 28.5633 12.8847 28.7712C12.828 28.9818 12.722 29.2287 12.5714 29.5455C12.4347 29.8329 12.2468 30.2057 12.1065 30.5572C11.9652 30.9109 11.8239 31.3538 11.8239 31.8259H13.8239C13.8239 31.7322 13.8559 31.5693 13.9639 31.2989C14.0727 31.0263 14.2101 30.7565 14.3776 30.4044C14.531 30.0816 14.708 29.6921 14.816 29.2908C14.9247 28.8867 14.9885 28.3832 14.8257 27.8623L12.9167 28.4588ZM23.759 33.0375C23.9042 32.1664 24.1762 30.4305 24.2768 29.9275L22.3156 29.5353C22.2068 30.0795 21.9211 31.8992 21.7862 32.7087L23.759 33.0375ZM24.2768 29.9275C24.3247 29.6882 24.372 29.6853 24.3114 29.7471C24.2093 29.8513 24.0726 29.8737 24.0201 29.8703C24.014 29.8699 24.0888 29.8777 24.2785 29.9725C24.4567 30.0615 24.6704 30.1931 24.9308 30.3669C25.412 30.688 26.0866 31.1822 26.7326 31.5549C27.3814 31.9292 28.1938 32.3023 29.056 32.3023V30.3023C28.7361 30.3023 28.3028 30.1518 27.7319 29.8224C27.1582 29.4915 26.6387 29.1021 26.0409 28.7033C25.7619 28.517 25.4649 28.3295 25.1723 28.1834C24.8912 28.0429 24.535 27.8994 24.1491 27.8744C23.7168 27.8465 23.2514 27.9712 22.8828 28.3474C22.5557 28.6812 22.3987 29.1201 22.3156 29.5353L24.2768 29.9275ZM29.056 32.3023C29.8002 32.3023 30.4432 32.1768 30.9799 31.8657C31.5319 31.5459 31.8646 31.092 32.0907 30.638C32.2997 30.2184 32.4485 29.727 32.5776 29.3367C32.7174 28.9146 32.8618 28.5129 33.0782 28.1111L31.3172 27.1629C31.0148 27.7244 30.8265 28.2626 30.6789 28.7083C30.5209 29.1859 30.4279 29.4904 30.3005 29.7463C30.1901 29.9678 30.0916 30.069 29.9771 30.1353C29.8474 30.2105 29.5889 30.3023 29.056 30.3023V32.3023ZM33.0782 28.1111C33.1373 28.0013 33.2904 27.7923 33.5701 27.4023C33.8193 27.0547 34.1271 26.6173 34.3911 26.1581C34.6481 25.7113 34.9083 25.1694 35.0056 24.6133C35.107 24.0338 35.0454 23.3106 34.4756 22.7409L33.0614 24.1552C33.0615 24.1552 33.06 24.1537 33.0576 24.1506C33.0552 24.1474 33.0527 24.1435 33.0502 24.139C33.045 24.1294 33.0435 24.123 33.0436 24.1237C33.0445 24.1277 33.0527 24.1702 33.0355 24.2686C32.9983 24.4813 32.8746 24.7833 32.6574 25.161C32.4473 25.5263 32.1908 25.8937 31.9447 26.2369C31.7291 26.5376 31.456 26.9051 31.3172 27.1629L33.0782 28.1111ZM34.4756 22.7409C33.3398 21.6051 31.6765 20.4985 30.5504 19.9355L29.656 21.7244C30.6245 22.2086 32.1028 23.1965 33.0614 24.1552L34.4756 22.7409ZM32.7264 18.5371C33.4754 18.0706 34.1929 17.593 34.7529 17.0469C35.33 16.4843 35.7834 15.8078 35.9383 14.9414C36.0903 14.0905 35.9313 13.1833 35.5336 12.1939C35.1369 11.2073 34.4767 10.0744 33.5406 8.73704L31.9021 9.88396C32.7986 11.1646 33.3625 12.1555 33.6779 12.94C33.9922 13.7217 34.0332 14.233 33.9695 14.5895C33.9085 14.9306 33.7304 15.2505 33.3567 15.6149C32.9659 15.996 32.4132 16.376 31.669 16.8395L32.7264 18.5371ZM33.5022 8.6858C32.3982 7.30577 31.3044 6.4468 30.1317 6.17619C28.9114 5.89457 27.8414 6.30036 26.9305 6.9076L28.0399 8.57171C28.6998 8.13173 29.2007 8.01389 29.682 8.12498C30.2111 8.24707 30.95 8.69713 31.9405 9.93519L33.5022 8.6858ZM27.0173 6.85587C26.46 7.15091 26.0023 7.53741 25.6413 7.85196C25.2454 8.19698 24.9987 8.42167 24.7513 8.57096C24.5431 8.69655 24.4408 8.7006 24.3552 8.68427C24.2307 8.66054 23.9508 8.55079 23.4797 8.07978L22.0655 9.49399C22.6734 10.1018 23.2985 10.5189 23.9806 10.6489C24.7016 10.7863 25.3075 10.5711 25.7844 10.2835C26.2219 10.0195 26.6372 9.63698 26.9552 9.3598C27.3083 9.05215 27.6167 8.80149 27.9531 8.62344L27.0173 6.85587ZM23.4797 8.07978C23.2647 7.86469 23.1782 7.62958 23.1369 7.30056C23.1142 7.11953 23.1081 6.93747 23.0986 6.70124C23.09 6.48696 23.0782 6.2076 23.0276 5.93315C22.9752 5.64886 22.873 5.31732 22.6495 5.00563C22.4194 4.68488 22.1054 4.44698 21.7252 4.28616C21.0205 3.9881 20.0545 3.94235 18.7914 4.05931L18.9758 6.05079C20.1809 5.9392 20.7234 6.03397 20.946 6.12816C21.0295 6.16347 21.0339 6.18463 21.0242 6.17121C21.0211 6.16685 21.0414 6.19091 21.0607 6.29582C21.0819 6.41057 21.0911 6.55402 21.1003 6.78148C21.1085 6.987 21.1168 7.26561 21.1525 7.54953C21.2278 8.15043 21.4338 8.86231 22.0655 9.49399L23.4797 8.07978ZM18.8836 4.05505C17.5808 4.05505 16.5543 4.20674 15.7919 4.5893C14.9502 5.01169 14.5043 5.67753 14.3353 6.45531C14.186 7.14266 14.2582 7.90706 14.3304 8.56799C14.4083 9.2815 14.5007 9.9688 14.5007 10.7093H16.5007C16.5007 9.83039 16.3895 9.00122 16.3185 8.35093C16.2418 7.64806 16.2199 7.20132 16.2897 6.87995C16.3399 6.64902 16.4265 6.50856 16.689 6.37685C17.0308 6.20529 17.6802 6.05505 18.8836 6.05505V4.05505ZM8.36933 18.8259C8.55867 19.0693 8.53433 19.1759 8.51164 19.2253C8.44548 19.3695 8.05114 19.882 6.26589 20.3921L6.81533 22.3151C8.69538 21.778 9.87186 21.0562 10.3293 20.0596C10.8302 18.9683 10.2823 18.0277 9.94803 17.598L8.36933 18.8259ZM30.5504 19.9355C30.2975 19.8091 30.1746 19.7153 30.1245 19.6673C30.0776 19.6224 30.1471 19.6693 30.1702 19.8131C30.2203 20.1263 29.98 20.1944 30.2681 19.9595C30.4948 19.7746 30.8505 19.568 31.3194 19.3164C31.7514 19.0846 32.2848 18.8122 32.7264 18.5371L31.669 16.8395C31.3001 17.0693 30.8644 17.2908 30.3739 17.554C29.9205 17.7972 29.4006 18.0863 29.0042 18.4095C28.6691 18.6828 28.058 19.2715 28.1953 20.1293C28.2619 20.5454 28.4895 20.8706 28.7409 21.1115C28.9891 21.3493 29.3046 21.5487 29.656 21.7244L30.5504 19.9355ZM11.8239 31.8259C11.824 32.4722 12.1182 33.0111 12.4868 33.4205C12.8517 33.8258 13.3323 34.1557 13.8414 34.4219C14.8617 34.9555 16.1747 35.3256 17.468 35.5004C18.7567 35.6745 20.1262 35.6683 21.2534 35.3697C22.3436 35.0808 23.53 34.4115 23.759 33.0375L21.7862 32.7087C21.7534 32.9055 21.5653 33.218 20.7411 33.4364C19.9539 33.645 18.8689 33.6715 17.7359 33.5184C16.6075 33.3659 15.5315 33.0488 14.7682 32.6496C14.3856 32.4496 14.1257 32.2517 13.9731 32.0823C13.8242 31.9169 13.8239 31.834 13.8239 31.8259L11.8239 31.8259Z" fill="black"/>
<path d="M17.4808 22.3929C16.1886 20.9814 17.8862 17.9733 18.8002 17.1082C20.2261 15.7589 22.7583 15.667 23.198 17.5887C23.5278 19.0299 23.0117 21.1551 21.8787 22.3929C20.1196 24.3145 18.1955 23.1736 17.4808 22.3929Z" stroke="black" stroke-width="2" stroke-linecap="round"/>
</svg>
