<svg width="40" height="40" viewBox="0 0 40 40" fill="none" xmlns="http://www.w3.org/2000/svg">
<path d="M9.31292 11.4591C13.1908 6.56866 18.91 5.64812 24.7829 6.49579C32.7627 8.5834 36.3918 15.8592 33.9458 23.3247C31.8487 29.7254 26.1784 33.7138 19.5979 33.7138C14.4119 33.7138 7.20612 32.579 5.36893 26.8114C3.66934 21.4758 6.0529 15.5703 9.31292 11.4591Z" fill="#FFE600" stroke="black" stroke-width="2" stroke-linecap="round"/>
<path d="M30.1764 22.3467C29.2831 24.9842 26.7738 27.8978 24.2839 29.2281C21.9661 30.4663 17.5176 29.7962 15.0543 29.2281C10.0469 28.0732 8.67107 24.447 9.24859 19.8352C10.1118 12.9421 17.184 9.58702 23.4899 10.4675C29.1838 11.9084 31.9986 16.9669 30.1764 22.3467Z" stroke="white" stroke-width="2" stroke-linecap="round"/>
<path d="M9.86475 24.0539C9.86475 24.0539 17.6098 19.7887 21.8654 19.26C24.5259 18.9294 27.5184 17.5674 30.135 17.5674" stroke="white" stroke-width="2" stroke-linecap="round"/>
<path d="M13.1079 13.5132C16.8665 17.2339 24.0974 22.1162 26.4999 27" stroke="white" stroke-width="2" stroke-linecap="round"/>
<path d="M21.2159 11.0809C19.7329 16.9777 17.9727 23.5961 17.9727 29.7295" stroke="white" stroke-width="2" stroke-linecap="round"/>
</svg>
