<svg width="252" height="216" viewBox="0 0 252 216" fill="none" xmlns="http://www.w3.org/2000/svg">
<g clip-path="url(#clip0_329_3843)">
<path d="M1 9.88796C1.28825 8.25415 0.699273 2.3898 1.64941 1.08486C14.8978 1.08486 32.7718 0.893928 46.0653 1.08486C99.3347 1.08486 151.225 1.49638 203.829 1.49638C220.926 1.49638 237.161 1.49638 250.194 1.79866C250.905 3.80349 250.825 48.6262 250.905 54.879C251.33 88.0894 250.188 121.33 250.188 154.544C250.188 173.962 248.558 194.432 249.799 213.832C247.562 214.737 226.278 214.073 224.524 214.066C184.882 213.89 143.248 215 103.61 215C68.6613 215 37.4343 213.827 2.4556 213.827C0.903792 213.827 1.48962 191.813 1.48962 190.458C1.48962 130.27 0.999963 70.0605 1 9.88796Z" fill="white"/>
<path d="M1.64941 1.08486V0.0848577H1.14053L0.840996 0.496246L1.64941 1.08486ZM1 9.88796L0.0152088 9.71422L5.96046e-08 9.80043L0 9.88796L1 9.88796ZM224.524 214.066L224.528 213.066L224.524 214.066ZM249.799 213.832L250.174 214.759L250.843 214.488L250.797 213.768L249.799 213.832ZM250.194 1.79866L251.137 1.46448C250.998 1.07338 250.632 0.808553 250.218 0.798931L250.194 1.79866ZM46.0653 1.08486L46.051 2.08475L46.0581 2.08486H46.0653V1.08486ZM250.905 54.879L251.905 54.8662L250.905 54.879ZM0.840996 0.496246C0.615495 0.805954 0.481649 1.17887 0.393039 1.51788C0.300824 1.87069 0.237992 2.26572 0.193551 2.67251C0.104734 3.48548 0.0803126 4.43482 0.0765046 5.35897C0.0728195 6.25327 0.0896152 7.25707 0.0894612 8.00652C0.0892931 8.82533 0.0693196 9.40752 0.0152088 9.71422L1.98479 10.0617C2.0748 9.55151 2.0893 8.78797 2.08946 8.00693C2.08964 7.15652 2.07262 6.30633 2.07649 5.36721C2.08023 4.45792 2.10474 3.59438 2.18172 2.88972C2.22018 2.53768 2.26947 2.24771 2.32803 2.02365C2.35702 1.91274 2.38574 1.82791 2.41173 1.76556C2.4245 1.73493 2.43554 1.71232 2.44412 1.69646C2.44835 1.68865 2.45174 1.68293 2.45417 1.67905C2.45659 1.67516 2.45787 1.67342 2.45783 1.67347L0.840996 0.496246ZM224.519 215.065C225.436 215.07 231.073 215.237 236.971 215.291C239.885 215.318 242.824 215.317 245.18 215.251C246.357 215.218 247.401 215.169 248.228 215.099C248.641 215.063 249.012 215.021 249.324 214.971C249.62 214.924 249.925 214.859 250.174 214.759L249.423 212.905C249.392 212.918 249.27 212.954 249.007 212.996C248.761 213.036 248.443 213.073 248.057 213.106C247.285 213.172 246.285 213.22 245.125 213.252C242.806 213.316 239.896 213.318 236.99 213.291C231.248 213.238 225.366 213.069 224.528 213.066L224.519 215.065ZM250.218 0.798931C237.17 0.496318 220.922 0.496376 203.829 0.496376V2.49638C220.93 2.49638 237.152 2.49643 250.171 2.79839L250.218 0.798931ZM46.0797 0.0849608C32.7775 -0.106094 14.8792 0.0848577 1.64941 0.0848577V2.08486C14.9164 2.08486 32.7662 1.89395 46.051 2.08475L46.0797 0.0849608ZM203.829 0.496376C177.529 0.496376 151.408 0.393506 125.201 0.290625C98.9941 0.187746 72.7023 0.0848577 46.0653 0.0848577V2.08486C72.6977 2.08486 98.9857 2.18773 125.193 2.29061C151.399 2.39349 177.525 2.49638 203.829 2.49638V0.496376ZM251.905 54.8662C251.865 51.7414 251.865 38.9936 251.786 26.7394C251.747 20.6195 251.688 14.6276 251.594 10.0385C251.547 7.74497 251.491 5.7951 251.425 4.35249C251.391 3.63224 251.355 3.02926 251.315 2.56933C251.295 2.33995 251.273 2.13651 251.249 1.9671C251.227 1.81833 251.195 1.62823 251.137 1.46448L249.252 2.13284C249.238 2.09439 249.249 2.11322 249.269 2.25205C249.286 2.37023 249.304 2.53305 249.322 2.74361C249.359 3.16358 249.394 3.73526 249.427 4.44472C249.492 5.86151 249.547 7.79119 249.594 10.0794C249.688 14.6539 249.747 20.6344 249.786 26.7523C249.865 38.9739 249.865 51.7638 249.905 54.8918L251.905 54.8662ZM251.188 154.544C251.188 121.396 252.33 88.0648 251.905 54.8662L249.905 54.8918C250.33 88.114 249.188 121.264 249.188 154.544H251.188ZM250.797 213.768C249.558 194.397 251.188 174.085 251.188 154.544H249.188C249.188 173.838 247.558 194.466 248.801 213.896L250.797 213.768ZM103.61 216C143.332 216 184.833 214.89 224.519 215.065L224.528 213.066C184.931 212.89 143.164 214 103.61 214V216ZM2.4556 214.827C19.9347 214.827 36.4776 215.12 53.0264 215.413C69.5729 215.707 86.1256 216 103.61 216V214C86.146 214 69.6106 213.707 53.0618 213.414C36.5152 213.121 19.9552 212.827 2.4556 212.827V214.827ZM0.489618 190.458C0.489618 191.064 0.343396 197.01 0.390716 202.659C0.414517 205.5 0.486914 208.323 0.653048 210.444C0.735568 211.498 0.844059 212.419 0.991732 213.093C1.06366 213.421 1.15799 213.754 1.29496 214.028C1.36316 214.164 1.46852 214.34 1.63176 214.493C1.80498 214.656 2.0845 214.827 2.4556 214.827V212.827C2.7297 212.827 2.91642 212.956 3.00083 213.035C3.07527 213.105 3.09584 213.157 3.08308 213.132C3.05815 213.082 3.00594 212.941 2.94537 212.665C2.82806 212.129 2.72772 211.32 2.64694 210.288C2.48647 208.239 2.41436 205.474 2.39065 202.642C2.34293 196.945 2.48962 191.207 2.48962 190.458H0.489618ZM0 9.88796C-1.84774e-05 39.9766 0.122396 70.0741 0.244803 100.171C0.367214 130.269 0.489618 160.366 0.489618 190.458H2.48962C2.48962 160.361 2.36719 130.26 2.24479 100.163C2.12238 70.0653 1.99998 39.9719 2 9.88797L0 9.88796Z" fill="black"/>
</g>
<defs>
<clipPath id="clip0_329_3843">
<rect width="252" height="216" fill="white"/>
</clipPath>
</defs>
</svg>
