<svg width="24" height="24" viewBox="0 0 24 24" fill="none" xmlns="http://www.w3.org/2000/svg">
<path fill-rule="evenodd" clip-rule="evenodd" d="M5.33171 18.8369L4.5613 18.1931C4.17465 18.5844 4.20613 19.1898 4.63161 19.5453C5.05709 19.9009 5.71546 19.8719 6.10212 19.4807L5.33824 18.8424C6.10212 19.4807 6.10214 19.4807 6.10221 19.4806L6.10252 19.4803L6.10378 19.479L6.10888 19.4738L6.12922 19.4533L6.2093 19.3723L6.51802 19.0607C6.78639 18.79 7.17524 18.3982 7.6569 17.9143C8.62028 16.9464 9.95462 15.61 11.4385 14.136C11.737 13.8396 12.0414 13.5377 12.3499 13.2323C12.7195 13.5635 13.0854 13.8913 13.4447 14.2129C15.0667 15.6648 16.5537 16.9927 17.6352 17.9576C18.176 18.44 18.6154 18.8318 18.9197 19.1029L19.2704 19.4154L19.3619 19.4968L19.3852 19.5176L19.3911 19.5229L19.3926 19.5242L19.393 19.5245C19.3931 19.5246 19.3931 19.5246 19.9867 18.9608L19.3931 19.5246C19.8062 19.8924 20.4652 19.8826 20.8651 19.5028C21.265 19.1229 21.2544 18.5169 20.8413 18.1492L20.2541 18.7069C20.8413 18.1492 20.8413 18.1491 20.8412 18.1491L20.8408 18.1487L20.8394 18.1474L20.8335 18.1422L20.8102 18.1215L20.719 18.0402L20.3686 17.728C20.0646 17.4571 19.6254 17.0657 19.085 16.5835C18.004 15.6191 16.5179 14.2921 14.897 12.841C14.5269 12.5098 14.1499 12.1721 13.7692 11.8309C16.1292 9.50754 18.5687 7.14237 20.3501 5.5043C20.7566 5.13047 20.7566 4.52437 20.3501 4.15054C19.9435 3.77671 19.2844 3.77671 18.8779 4.15054C17.0811 5.80276 14.6362 8.17297 12.2784 10.4938C9.78686 8.25696 7.3125 6.02465 5.72388 4.56381C5.31734 4.18998 4.65822 4.18998 4.25169 4.56381C3.84516 4.93764 3.84516 5.54374 4.25169 5.91757C5.85603 7.39285 8.35327 9.64567 10.859 11.8951C10.5376 12.2133 10.2208 12.5274 9.91073 12.8354C8.42347 14.3127 7.08635 15.6519 6.12106 16.6217C5.63838 17.1067 5.24861 17.4994 4.97942 17.7709L4.66954 18.0837L4.58892 18.1652L4.56832 18.186L4.5631 18.1913L4.56177 18.1927L4.56143 18.193C4.56135 18.1931 4.5613 18.1931 5.33171 18.8369Z" fill="#E40C0C"/>
</svg>
