<svg width="40" height="40" viewBox="0 0 40 40" fill="none" xmlns="http://www.w3.org/2000/svg">
<path fill-rule="evenodd" clip-rule="evenodd" d="M7.36537 32.2111L6.59496 31.5673C6.20831 31.9586 6.23979 32.564 6.66528 32.9195C7.09076 33.2751 7.74913 33.2461 8.13578 32.8549L7.36537 32.2111ZM18.057 20.11C17.3226 20.8363 16.5999 21.5527 15.8967 22.2512C13.3105 24.82 10.9853 27.1488 9.30669 28.8353C8.46734 29.6787 7.78957 30.3615 7.32157 30.8336C7.08756 31.0696 6.90599 31.2529 6.78289 31.3773L6.64282 31.5189L6.60709 31.555L6.59804 31.5642L6.59575 31.5665L6.59517 31.5671C6.59504 31.5672 6.59496 31.5673 7.36537 32.2111C8.13578 32.8549 8.13584 32.8548 8.13595 32.8547L8.1365 32.8541L8.13873 32.8519L8.14765 32.8429L8.18312 32.807L8.32265 32.666C8.44538 32.542 8.62656 32.359 8.86016 32.1234C9.32735 31.6521 10.0042 30.9702 10.8425 30.1279C12.5193 28.4433 14.8417 26.1172 17.4245 23.5518C18.1163 22.8646 18.8266 22.1605 19.5479 21.4472C20.3829 22.1958 21.2097 22.9363 22.0171 23.6591C24.8385 26.1848 27.4252 28.4947 29.3066 30.1731C30.2473 31.0123 31.0116 31.6937 31.5408 32.1653L32.151 32.7089L32.31 32.8505L32.3505 32.8866L32.3608 32.8957L32.3634 32.898L32.364 32.8986C32.3642 32.8987 32.3642 32.8988 32.9566 32.3363L32.3642 32.8988C32.7773 33.2666 33.4363 33.2568 33.8362 32.8769C34.2361 32.4971 34.2255 31.8911 33.8124 31.5234L33.2238 32.0824C33.8124 31.5234 33.8124 31.5233 33.8122 31.5232L33.8116 31.5226L33.809 31.5203L33.7988 31.5112L33.7583 31.4752L33.5995 31.3337L32.9897 30.7905C32.4608 30.3191 31.6967 29.638 30.7563 28.799C28.8756 27.1211 26.2897 24.812 23.4694 22.2873C22.6511 21.5548 21.8132 20.8042 20.9672 20.0458C25.2327 15.8413 29.7112 11.4924 32.9487 8.51522C33.3553 8.14139 33.3553 7.53529 32.9487 7.16146C32.5422 6.78763 31.8831 6.78763 31.4766 7.16146C28.2228 10.1534 23.739 14.5073 19.4764 18.7087C14.9535 14.6499 10.39 10.5349 7.50329 7.88045C7.09676 7.50662 6.43764 7.50662 6.03111 7.88045C5.62457 8.25428 5.62457 8.86038 6.03111 9.23421C8.93379 11.9034 13.5207 16.0393 18.057 20.11Z" fill="black"/>
</svg>
