<svg width="40" height="40" viewBox="0 0 40 40" fill="none" xmlns="http://www.w3.org/2000/svg">
<path fill-rule="evenodd" clip-rule="evenodd" d="M18.4781 5.35377C18.1212 4.93231 17.4902 4.87999 17.0687 5.2369L17.715 6.00002C17.0687 5.2369 17.0686 5.23697 17.0685 5.23707L17.068 5.23748L17.0662 5.239L17.0594 5.24482L17.0327 5.26747L16.9295 5.35521C16.8393 5.43202 16.7073 5.5447 16.5393 5.68874C16.2032 5.97682 15.7229 6.39045 15.1451 6.89354C13.9901 7.89926 12.443 9.26455 10.8786 10.6999C9.31684 12.1329 7.72569 13.6466 6.48793 14.9469C5.87029 15.5957 5.32657 16.206 4.91514 16.7357C4.70953 17.0004 4.52654 17.2583 4.38152 17.5006C4.24398 17.7304 4.10549 18.0034 4.03912 18.2893C3.94307 18.7032 4.04224 19.1027 4.13948 19.3816C4.24586 19.6868 4.40812 20.007 4.5958 20.3257C4.97262 20.9656 5.52191 21.7161 6.16512 22.5171C7.45661 24.1255 9.21327 26.0437 10.9678 27.8747C12.7261 29.7098 14.4986 31.4741 15.8303 32.7786C16.4964 33.4312 17.053 33.9694 17.4434 34.3447C17.6385 34.5324 17.7922 34.6794 17.8972 34.7796L18.0174 34.8942L18.0485 34.9238L18.0565 34.9314L18.0586 34.9334L18.0592 34.9339C18.0593 34.934 18.0594 34.9341 18.7475 34.2084L18.0594 34.9341C18.4602 35.3141 19.0931 35.2973 19.4731 34.8965C19.8531 34.4957 19.8363 33.8628 19.4355 33.4828L18.7475 34.2084C19.4355 33.4828 19.4355 33.4827 19.4354 33.4827L19.435 33.4823L19.4332 33.4806L19.4257 33.4735L19.3958 33.4451L19.2781 33.3328C19.1747 33.2342 19.0229 33.0889 18.8296 32.9031C18.443 32.5314 17.8909 31.9975 17.2298 31.3499C15.9069 30.054 14.1506 28.3056 12.4118 26.491C10.6693 24.6724 8.96063 22.8042 7.72458 21.2649C7.18298 20.5904 6.74842 19.9991 6.44398 19.5154H6.46066H6.52109H6.58172H6.64254H6.70356H6.76476H6.82616H6.88775H6.94952H7.01149H7.07363H7.13596H7.19848H7.26117H7.32405H7.3871H7.45033H7.51374H7.57733H7.64108H7.70501H7.76911H7.83338H7.89782H7.96243H8.0272H8.09214H8.15724H8.2225H8.28793H8.35351H8.41925H8.48515H8.5512H8.61741H8.68377H8.75029H8.81695H8.88377H8.95073H9.01784H9.08509H9.15249H9.22003H9.28772H9.35554H9.4235H9.4916H9.55984H9.62821H9.69672H9.76536H9.83413H9.90303H9.97206H10.0412H10.1105H10.1799H10.2494H10.3191H10.3889H10.4588H10.5288H10.5989H10.6691H10.7395H10.81H10.8806H10.9513H11.0221H11.093H11.164H11.2351H11.3064H11.3777H11.4491H11.5207H11.5923H11.6641H11.7359H11.8078H11.8798H11.9519H12.0242H12.0964H12.1688H12.2413H12.3139H12.3865H12.4592H12.532H12.6049H12.6779H12.751H12.8241H12.8973H12.9706H13.0439H13.1173H13.1908H13.2644H13.338H13.4117H13.4855H13.5593H13.6332H13.7072H13.7812H13.8553H13.9294H14.0036H14.0779H14.1522H14.2265H14.3009H14.3754H14.4499H14.5244H14.599H14.6737H14.7484H14.8231H14.8979H14.9727H15.0475H15.1224H15.1974H15.2723H15.3473H15.4224H15.4974H15.5725H15.6476H15.7228H15.7979H15.8731H15.9484H16.0236H16.0989H16.1741H16.2494H16.3248H16.4001H16.4754H16.5508H16.6262H16.7016H16.777H16.8524H16.9278H17.0032H17.0786H17.154H17.2294H17.3049H17.3803H17.4557H17.5311H17.6065H17.6819H17.7573H17.8327H17.9081H17.9835H18.0588H18.1342H18.2095H18.2848H18.3601H18.4354H18.5106H18.5859H18.6611H18.7363H18.8114H18.8866H18.9617H19.0367H19.1118H19.1868H19.2618H19.3367H19.4116H19.4865H19.5614H19.6361H19.7109H19.7856H19.8603H19.9349H20.0095H20.084H20.1585H20.233H20.3073H20.3817H20.4559H20.5302H20.6043H20.6784H20.7525H20.8265H20.9004H20.9743H21.0481H21.1218H21.1955H21.2691H21.3426H21.4161H21.4895H21.5628H21.6361H21.7092H21.7823H21.8554H21.9283H22.0011H22.0739H22.1466H22.2192H22.2917H22.3642H22.4365H22.5088H22.5809H22.653H22.725H22.7969H22.8687H22.9404H23.012H23.0835H23.1549H23.2261H23.2973H23.3684H23.4394H23.5103H23.581H23.6517H23.7222H23.7926H23.8629H23.9331H24.0032H24.0732H24.143H24.2128H24.2824H24.3518H24.4212H24.4904H24.5595H24.6285H24.6973H24.7661H24.8346H24.9031H24.9714H25.0396H25.1076H25.1755H25.2433H25.3109H25.3784H25.4457H25.5129H25.58H25.6469H25.7136H25.7802H25.8467H25.913H25.9791H26.0451H26.1109H26.1766H26.2421H26.3075H26.3727H26.4377H26.5026H26.5673H26.6318H26.6962H26.7604H26.8244H26.8882H26.9519H27.0154H27.0788H27.1419H27.2049H27.2677H27.3303H27.3927H27.455H27.5171H27.5789H27.6406H27.7021H27.7635H27.8246H27.8855H27.9463H28.0068H28.0672H28.1273H28.1873H28.247H28.3066H28.3659H28.4251H28.484H28.5427H28.6012H28.6596H28.7177H28.7756H28.8333H28.8907H28.948H29.005H29.0618H29.1184H29.1748H29.231H29.2869H29.3426H29.3981H29.4533H29.5084H29.5632H29.6177H29.6721H29.7262H29.78H29.8337H29.8871H29.9402H29.9931H30.0458H30.0982H30.1504H30.2024H30.2541H30.3055H30.3567H30.4077H30.4584H30.5088H30.559H30.609H30.6586H30.7081H30.7572H30.8061H30.8548H30.9032H30.9513H30.9991H31.0467H31.094H31.1411H31.1878H31.2343H31.2806H31.3265H31.3722H31.4176H31.4627H31.5076H31.5521H31.5964H31.6404H31.6841H31.7276H31.7707H31.8136H31.8561H31.8984H31.9404H31.9821H32.0234H32.0645H32.1053H32.1458H32.186H32.2259H32.2655H32.3048H32.3438H32.3825H32.4208H32.4589H32.4966H32.5341H32.5712H32.608H32.6445H32.6807H32.7165H32.7521H32.7873H32.8222H32.8568H32.891H32.9249H32.9585H32.9918H33.0248H33.0574H33.0896H33.1216H33.1532H33.1845H33.2154H33.246H33.2762H33.3062H33.3357H33.3649H33.3938H33.4224H33.4506H33.4784H33.5059H33.533H33.5598H33.5862H33.6123H33.638H33.6634H33.6884H33.713H33.7373H33.7612H33.7848H33.808H33.8308H33.8532H33.8753H33.897H33.9184H33.9393H33.9599H33.9801H34H34.0194H34.0385H34.0572H34.0755H34.0934H34.111H34.1281H34.1449H34.1613H34.1773H34.1929H34.2081H34.2229H34.2373H34.2514H34.265H34.2782H34.2911H34.3035H34.3155H34.3271H34.3383H34.3491H34.3595H34.3695H34.3791H34.3883H34.397H34.4054H34.4133H34.4208H34.4279H34.4345H34.4408H34.4466H34.452H34.457H34.4615H34.4657H34.4694H34.4726H34.4755H34.4779H34.4798H34.4814H34.4825H34.4831C34.4833 19.5154 34.4833 19.5154 34.4833 18.5154V19.5154C35.0356 19.5154 35.4833 19.0677 35.4833 18.5154C35.4833 17.9631 35.0356 17.5154 34.4833 17.5154V18.5154C34.4833 17.5154 34.4833 17.5154 34.4831 17.5154H34.4825H34.4814H34.4798H34.4779H34.4755H34.4726H34.4694H34.4657H34.4615H34.457H34.452H34.4466H34.4408H34.4345H34.4279H34.4208H34.4133H34.4054H34.397H34.3883H34.3791H34.3695H34.3595H34.3491H34.3383H34.3271H34.3155H34.3035H34.2911H34.2782H34.265H34.2514H34.2373H34.2229H34.2081H34.1929H34.1773H34.1613H34.1449H34.1281H34.111H34.0934H34.0755H34.0572H34.0385H34.0194H34H33.9801H33.9599H33.9393H33.9184H33.897H33.8753H33.8532H33.8308H33.808H33.7848H33.7612H33.7373H33.713H33.6884H33.6634H33.638H33.6123H33.5862H33.5598H33.533H33.5059H33.4784H33.4506H33.4224H33.3938H33.3649H33.3357H33.3062H33.2762H33.246H33.2154H33.1845H33.1532H33.1216H33.0896H33.0574H33.0248H32.9918H32.9585H32.9249H32.891H32.8568H32.8222H32.7873H32.7521H32.7165H32.6807H32.6445H32.608H32.5712H32.5341H32.4966H32.4589H32.4208H32.3825H32.3438H32.3048H32.2655H32.2259H32.186H32.1458H32.1053H32.0645H32.0234H31.9821H31.9404H31.8984H31.8561H31.8136H31.7707H31.7276H31.6841H31.6404H31.5964H31.5521H31.5076H31.4627H31.4176H31.3722H31.3265H31.2806H31.2343H31.1878H31.1411H31.094H31.0467H30.9991H30.9513H30.9032H30.8548H30.8061H30.7572H30.7081H30.6586H30.609H30.559H30.5088H30.4584H30.4077H30.3567H30.3055H30.2541H30.2024H30.1504H30.0982H30.0458H29.9931H29.9402H29.8871H29.8337H29.78H29.7262H29.6721H29.6177H29.5632H29.5084H29.4533H29.3981H29.3426H29.2869H29.231H29.1748H29.1184H29.0618H29.005H28.948H28.8907H28.8333H28.7756H28.7177H28.6596H28.6012H28.5427H28.484H28.4251H28.3659H28.3066H28.247H28.1873H28.1273H28.0672H28.0068H27.9463H27.8855H27.8246H27.7635H27.7021H27.6406H27.5789H27.5171H27.455H27.3927H27.3303H27.2677H27.2049H27.1419H27.0788H27.0154H26.9519H26.8882H26.8244H26.7604H26.6962H26.6318H26.5673H26.5026H26.4377H26.3727H26.3075H26.2421H26.1766H26.1109H26.0451H25.9791H25.913H25.8467H25.7802H25.7136H25.6469H25.58H25.5129H25.4457H25.3784H25.3109H25.2433H25.1755H25.1076H25.0396H24.9714H24.9031H24.8346H24.7661H24.6973H24.6285H24.5595H24.4904H24.4212H24.3518H24.2824H24.2128H24.143H24.0732H24.0032H23.9331H23.8629H23.7926H23.7222H23.6517H23.581H23.5103H23.4394H23.3684H23.2973H23.2261H23.1549H23.0835H23.012H22.9404H22.8687H22.7969H22.725H22.653H22.5809H22.5088H22.4365H22.3642H22.2917H22.2192H22.1466H22.0739H22.0011H21.9283H21.8554H21.7823H21.7092H21.6361H21.5628H21.4895H21.4161H21.3426H21.2691H21.1955H21.1218H21.0481H20.9743H20.9004H20.8265H20.7525H20.6784H20.6043H20.5302H20.4559H20.3817H20.3073H20.233H20.1585H20.084H20.0095H19.9349H19.8603H19.7856H19.7109H19.6361H19.5614H19.4865H19.4116H19.3367H19.2618H19.1868H19.1118H19.0367H18.9617H18.8866H18.8114H18.7363H18.6611H18.5859H18.5106H18.4354H18.3601H18.2848H18.2095H18.1342H18.0588H17.9835H17.9081H17.8327H17.7573H17.6819H17.6065H17.5311H17.4557H17.3803H17.3049H17.2294H17.154H17.0786H17.0032H16.9278H16.8524H16.777H16.7016H16.6262H16.5508H16.4754H16.4001H16.3248H16.2494H16.1741H16.0989H16.0236H15.9484H15.8731H15.7979H15.7228H15.6476H15.5725H15.4974H15.4224H15.3473H15.2723H15.1974H15.1224H15.0475H14.9727H14.8979H14.8231H14.7484H14.6737H14.599H14.5244H14.4499H14.3754H14.3009H14.2265H14.1522H14.0779H14.0036H13.9294H13.8553H13.7812H13.7072H13.6332H13.5593H13.4855H13.4117H13.338H13.2644H13.1908H13.1173H13.0439H12.9706H12.8973H12.8241H12.751H12.6779H12.6049H12.532H12.4592H12.3865H12.3139H12.2413H12.1688H12.0964H12.0242H11.9519H11.8798H11.8078H11.7359H11.6641H11.5923H11.5207H11.4491H11.3777H11.3064H11.2351H11.164H11.093H11.0221H10.9513H10.8806H10.81H10.7395H10.6691H10.5989H10.5288H10.4588H10.3889H10.3191H10.2494H10.1799H10.1105H10.0412H9.97206H9.90303H9.83413H9.76536H9.69672H9.62821H9.55984H9.4916H9.4235H9.35554H9.28772H9.22003H9.15249H9.08509H9.01784H8.95073H8.88377H8.81695H8.75029H8.68377H8.61741H8.5512H8.48515H8.41925H8.35351H8.28793H8.2225H8.15724H8.09214H8.0272H7.96243H7.89782H7.83338H7.76911H7.70501H7.64108H7.57733H7.51374H7.45033H7.3871H7.32405H7.26117H7.19848H7.13596H7.07363H7.01149H6.94952H6.88775H6.85886C7.16019 17.1598 7.52328 16.76 7.93653 16.3258C9.12799 15.0742 10.6805 13.5959 12.2307 12.1736C13.7782 10.7538 15.3113 9.40074 16.4585 8.40188C17.0318 7.90267 17.5081 7.49246 17.8408 7.20727C18.0072 7.06468 18.1376 6.95337 18.2263 6.87784L18.3273 6.79196L18.3529 6.77021L18.3593 6.76481L18.3608 6.76351L18.3612 6.76321C18.3612 6.76316 18.3612 6.76315 17.715 6.00002L18.3612 6.76315C18.7827 6.40623 18.835 5.77523 18.4781 5.35377Z" fill="black"/>
</svg>
