<svg width="202" height="60" viewBox="0 0 202 60" fill="none" xmlns="http://www.w3.org/2000/svg">
<path fill-rule="evenodd" clip-rule="evenodd" d="M77.8323 13.725C81.5911 13.7253 87.094 13.8099 91.3346 15.4454C93.4957 16.2788 95.5265 17.587 96.7754 19.676C98.0462 21.8017 98.3336 24.4424 97.57 27.5688C96.9323 30.1798 94.8834 31.6582 92.725 32.4595C90.5807 33.2556 88.029 33.5127 85.697 33.543C83.3365 33.5737 81.0533 33.3724 79.373 33.167C78.9554 33.116 78.573 33.0644 78.2336 33.0157C78.0141 36.7806 77.8782 40.5918 77.8782 44.4C77.8782 45.4355 77.0345 46.275 75.9938 46.275C74.9531 46.275 74.1095 45.4355 74.1095 44.4C74.1095 34.4044 75.0263 24.4293 75.9349 15.4314C75.9512 15.2487 75.9939 15.0736 76.0591 14.9098C76.1695 14.6318 76.3441 14.3884 76.563 14.1958C76.9034 13.8962 77.3512 13.7192 77.8323 13.725ZM79.5163 17.4856C79.1376 21.2966 78.7702 25.2424 78.4796 29.2612C78.86 29.3182 79.3169 29.382 79.8325 29.445C81.4137 29.6383 83.5154 29.8211 85.6478 29.7934C87.8086 29.7653 89.858 29.5214 91.4076 28.9461C92.9431 28.376 93.681 27.6125 93.908 26.6833C94.5021 24.2505 94.1808 22.6709 93.5365 21.5932C92.8702 20.4787 91.6795 19.6002 89.9727 18.9419C86.9823 17.7887 83.0225 17.5346 79.5163 17.4856Z" fill="black"/>
<path fill-rule="evenodd" clip-rule="evenodd" d="M105.438 17.3274C106.477 17.2753 107.362 18.0715 107.414 19.1057L105.532 19.2C107.414 19.1057 107.414 19.1056 107.414 19.1057L107.416 19.1341L107.42 19.2132C107.423 19.2822 107.428 19.3835 107.434 19.514C107.445 19.775 107.461 20.153 107.479 20.6238C107.515 21.5652 107.558 22.8797 107.587 24.3739C107.644 27.3206 107.646 31.0309 107.416 33.9565C107.411 34.63 107.334 35.4418 107.254 36.2258C107.241 36.3563 107.228 36.4872 107.215 36.6185C107.14 37.3451 107.065 38.0838 107.016 38.8195C106.957 39.6892 106.942 40.4839 106.999 41.1538C107.06 41.8536 107.188 42.2447 107.291 42.4229C107.292 42.4232 107.291 42.4227 107.291 42.4229C107.291 42.4236 107.291 42.4249 107.303 42.4322C107.327 42.4476 107.399 42.4861 107.552 42.5196C107.883 42.5921 108.385 42.5986 109.059 42.511C109.712 42.4259 110.405 42.2697 111.079 42.1014C111.24 42.0614 111.409 42.018 111.579 41.9741C112.055 41.8521 112.545 41.7262 112.909 41.6577C113.592 41.529 114.276 41.3983 114.96 41.2675C118.849 40.5238 122.754 39.777 126.711 39.395C127.747 39.2951 128.668 40.0495 128.768 41.0802C128.869 42.1109 128.111 43.0275 127.075 43.1275C123.308 43.4912 119.598 44.1999 115.704 44.9441C115.012 45.0763 114.314 45.2096 113.609 45.3423C113.374 45.3867 113.077 45.4629 112.671 45.5671C112.474 45.6178 112.251 45.6752 111.996 45.7387C111.286 45.916 110.423 46.1154 109.547 46.2293C108.691 46.3407 107.691 46.3898 106.742 46.1819C105.756 45.9659 104.689 45.4344 104.03 44.3018C103.519 43.4234 103.323 42.3897 103.245 41.4745C103.163 40.5293 103.192 39.5185 103.255 38.5704C103.309 37.7636 103.392 36.9507 103.467 36.226C103.48 36.0981 103.492 35.9729 103.505 35.851C103.591 35.0008 103.648 34.346 103.648 33.8783V33.8036L103.654 33.7292C103.874 30.9872 103.876 27.3946 103.819 24.4456C103.791 22.9801 103.749 21.6897 103.714 20.7661C103.696 20.3045 103.68 19.935 103.669 19.6816C103.663 19.5549 103.658 19.4573 103.655 19.3917L103.652 19.3178L103.651 19.2953C103.598 18.2611 104.398 17.3794 105.438 17.3274Z" fill="black"/>
<path fill-rule="evenodd" clip-rule="evenodd" d="M174.518 32.2848C173.85 32.1231 173.328 31.7432 172.939 31.3094C171.873 30.1191 170.878 28.8119 169.934 27.5714C169.855 27.4676 169.776 27.3644 169.698 27.2616C168.751 26.019 167.846 24.8485 166.889 23.8023C166.843 23.9036 166.792 24.0276 166.737 24.1784C166.191 25.6917 165.86 28.3238 165.707 31.4404C165.406 37.5644 165.822 44.6518 165.911 45.9812C165.98 47.0144 165.194 47.9077 164.155 47.9764C163.117 48.045 162.219 47.2631 162.15 46.2298C162.06 44.8723 161.631 37.607 161.943 31.2572C162.096 28.1369 162.436 25.0019 163.191 22.9108C163.54 21.9416 164.149 20.6933 165.333 20.0895C166.82 19.3318 168.248 19.9753 169.22 20.8063L169.296 20.8712L169.365 20.9438C170.578 22.2259 171.674 23.6486 172.701 24.9961C172.774 25.0922 172.847 25.1879 172.92 25.2831C173.74 26.3608 174.518 27.3828 175.324 28.3242C175.416 28.2308 175.525 28.113 175.65 27.9651C176.307 27.1902 176.987 26.1406 177.757 24.9516C178.074 24.4626 178.406 23.9499 178.758 23.4231C179.327 22.5712 179.939 21.703 180.572 20.9658C181.18 20.2573 181.935 19.5135 182.828 19.0796C183.834 18.5905 185.082 18.4804 186.253 19.236C187.249 19.878 187.917 20.9856 188.42 22.2194C189.958 25.9947 191.412 30.3498 192.344 34.0432C192.689 35.4077 193.152 37.7086 193.523 39.6248C193.71 40.5922 193.876 41.477 193.996 42.1199C194.056 42.4415 194.104 42.7027 194.137 42.8838L194.189 43.1657C194.373 44.1848 193.693 45.1613 192.669 45.3452C191.645 45.5291 190.665 44.852 190.48 43.8329L190.43 43.5569C190.397 43.3784 190.349 43.1202 190.29 42.8019C190.172 42.1653 190.007 41.2897 189.822 40.3335C189.449 38.4024 189.004 36.2033 188.689 34.9569C187.804 31.4502 186.407 27.2606 184.927 23.6281C184.735 23.1565 184.561 22.8394 184.419 22.6343C184.391 22.5944 184.366 22.5603 184.343 22.5313C184.141 22.6675 183.838 22.9338 183.438 23.4005C182.955 23.963 182.443 24.6808 181.896 25.4995C181.632 25.8949 181.354 26.3238 181.068 26.7652C180.245 28.036 179.356 29.41 178.531 30.383C177.989 31.0217 177.247 31.7782 176.326 32.1416C175.816 32.3428 175.19 32.4474 174.518 32.2848Z" fill="black"/>
<path fill-rule="evenodd" clip-rule="evenodd" d="M152.438 14.1449C149.96 14.1449 145.932 14.2132 142.537 14.2812C140.837 14.3152 139.29 14.3492 138.169 14.3747C137.608 14.3875 137.154 14.3981 136.84 14.4056L136.35 14.4173L136.334 14.4177L136.317 14.4184C134.812 14.4816 133.497 14.8683 132.484 15.7084C131.459 16.5585 130.973 17.6826 130.761 18.7677C130.554 19.8242 130.587 20.9456 130.677 21.9644C130.741 22.6901 130.846 23.4634 130.944 24.1807L130.944 24.1807C130.982 24.4598 131.018 24.7303 131.051 24.9864L131.054 25.0122L132.202 32.3497L132.205 32.3741L132.225 32.5251C132.242 32.6546 132.266 32.8397 132.299 33.0661C132.363 33.518 132.456 34.1394 132.574 34.8141C132.793 36.0673 133.145 37.8159 133.637 38.8641C134.493 40.6884 136.387 41.5663 138.094 42.0233C139.883 42.5024 142.007 42.6645 144.068 42.6745C148.21 42.6946 152.542 42.0976 154.455 41.7956C155.483 41.6333 156.184 40.6727 156.021 39.6499C155.858 38.6272 154.893 37.9296 153.865 38.0919C152.014 38.384 147.92 38.9432 144.086 38.9245C142.159 38.9152 140.407 38.7593 139.073 38.402C137.656 38.0227 137.177 37.5459 137.052 37.2776C136.808 36.7593 136.522 35.5173 136.287 34.1718C136.178 33.5471 136.091 32.9669 136.03 32.5421C136 32.3303 135.977 32.1583 135.962 32.0403L135.944 31.9057L135.94 31.8723L135.939 31.8629L135.935 31.8323L135.837 31.2028C140.118 30.6064 144.699 30.075 148.173 30.075C149.214 30.075 150.058 29.2355 150.058 28.2C150.058 27.1644 149.214 26.325 148.173 26.325C144.41 26.325 139.577 26.8939 135.257 27.4969L134.786 24.4869C134.746 24.1753 134.706 23.8756 134.666 23.5844L134.666 23.5841C134.574 22.9039 134.487 22.2696 134.431 21.6352C134.351 20.7323 134.354 20.0238 134.46 19.4831C134.56 18.9708 134.727 18.7302 134.897 18.5888C135.079 18.4382 135.497 18.2084 136.46 18.1657L136.929 18.1545C137.243 18.1471 137.696 18.1365 138.255 18.1237C139.374 18.0983 140.917 18.0643 142.613 18.0304C146.011 17.9624 150.003 17.8949 152.438 17.8949C153.479 17.8949 154.322 17.0554 154.322 16.0199C154.322 14.9843 153.479 14.1449 152.438 14.1449Z" fill="black"/>
<g clip-path="url(#clip0_553_8748)">
<path fill-rule="evenodd" clip-rule="evenodd" d="M39.4783 6.55926C34.27 5.81892 29.0617 6.94292 26.0855 8.04C11.6807 13.3499 3.04005 37.4127 15.2172 48.7417C15.2242 50.8575 15.3702 53.1522 17.5492 54.2361C19.76 55.3359 21.7295 54.2426 23.4228 52.8337C28.4559 53.8086 36.6415 54.7524 41.4269 52.6615C52.8703 47.6615 60.3276 35.3759 57.3354 22.1068C56.5913 18.8073 54.6235 14.9377 52.1271 12.4822C52.0733 11.3695 52.1271 7.59297 48.4069 5.81892C44.6866 4.04487 42.8971 4.40598 39.4783 6.55926Z" fill="#FEF500"/>
<path fill-rule="evenodd" clip-rule="evenodd" d="M44.0231 6.58142C43.1437 6.6718 42.1545 7.09272 40.4861 8.14356C40.1073 8.38211 39.6555 8.4785 39.2118 8.41542C34.3939 7.73058 29.5086 8.77769 26.7401 9.79823C20.2455 12.1923 14.81 18.9638 12.4881 26.672C10.1691 34.3703 11.1259 42.3686 16.5041 47.3721C16.8836 47.7252 17.0998 48.2185 17.1015 48.7355C17.109 51.0126 17.3669 52.0492 18.3917 52.559C19.4926 53.1066 20.5884 52.7479 22.214 51.3953C22.6493 51.0331 23.2256 50.8854 23.7827 50.9933C26.2351 51.4683 29.4331 51.9306 32.5734 52.0231C35.765 52.1171 38.6667 51.8197 40.6693 50.9447C51.3756 46.2667 58.2712 34.8211 55.4967 22.5174C54.8203 19.5175 53.0076 15.9847 50.8023 13.8156C50.4665 13.4853 50.2675 13.0415 50.2449 12.5722C50.2424 12.5206 50.24 12.467 50.2375 12.4116C50.1775 11.0776 50.0703 8.6914 47.5924 7.50978C45.8638 6.68544 44.8602 6.4954 44.0231 6.58142ZM43.6359 2.85126C45.4784 2.66193 47.2296 3.17836 49.2212 4.12807C53.3317 6.08826 53.8819 9.97893 53.9811 11.6953C56.507 14.4292 58.4145 18.3285 59.1739 21.6963C62.3838 35.9308 54.3649 49.0562 42.1845 54.3783C39.4016 55.5942 35.8177 55.8703 32.4619 55.7715C29.419 55.6818 26.3726 55.2758 23.9177 54.8339C22.1486 56.1416 19.6101 57.3576 16.7065 55.9132C13.7864 54.4606 13.3984 51.5538 13.3428 49.5414C7.08617 43.2134 6.39545 33.837 8.87809 25.5953C11.4334 17.1124 17.5207 9.19763 25.4309 6.28177C28.4837 5.15644 33.6949 4.00603 39.0543 4.61489C40.5851 3.69326 42.0375 3.01552 43.6359 2.85126Z" fill="black"/>
<path fill-rule="evenodd" clip-rule="evenodd" d="M44.0231 6.58142C43.1437 6.6718 42.1545 7.09272 40.4861 8.14356C40.1073 8.38211 39.6555 8.4785 39.2118 8.41542C34.3939 7.73058 29.5086 8.77769 26.7401 9.79823C20.2455 12.1923 14.81 18.9638 12.4881 26.672C10.1691 34.3703 11.1259 42.3686 16.5041 47.3721C16.8836 47.7252 17.0998 48.2185 17.1015 48.7355C17.109 51.0126 17.3669 52.0492 18.3917 52.559C19.4926 53.1066 20.5884 52.7479 22.214 51.3953C22.6493 51.0331 23.2256 50.8854 23.7827 50.9933C26.2351 51.4683 29.4331 51.9306 32.5734 52.0231C35.765 52.1171 38.6667 51.8197 40.6693 50.9447C51.3756 46.2667 58.2712 34.8211 55.4967 22.5174C54.8203 19.5175 53.0076 15.9847 50.8023 13.8156C50.4665 13.4853 50.2675 13.0415 50.2449 12.5722C50.2424 12.5206 50.24 12.467 50.2375 12.4116C50.1775 11.0776 50.0703 8.6914 47.5924 7.50978C45.8638 6.68544 44.8602 6.4954 44.0231 6.58142ZM43.6359 2.85126C45.4784 2.66193 47.2296 3.17836 49.2212 4.12807C53.3317 6.08826 53.8819 9.97893 53.9811 11.6953C56.507 14.4292 58.4145 18.3285 59.1739 21.6963C62.3838 35.9308 54.3649 49.0562 42.1845 54.3783C39.4016 55.5942 35.8177 55.8703 32.4619 55.7715C29.419 55.6818 26.3726 55.2758 23.9177 54.8339C22.1486 56.1416 19.6101 57.3576 16.7065 55.9132C13.7864 54.4606 13.3984 51.5538 13.3428 49.5414C7.08617 43.2134 6.39545 33.837 8.87809 25.5953C11.4334 17.1124 17.5207 9.19763 25.4309 6.28177C28.4837 5.15644 33.6949 4.00603 39.0543 4.61489C40.5851 3.69326 42.0375 3.01552 43.6359 2.85126Z" fill="black"/>
<path fill-rule="evenodd" clip-rule="evenodd" d="M31.7009 27.3737C32.7416 27.3737 33.5852 28.2132 33.5852 29.2487C33.5852 30.8001 33.1919 32.6277 32.3427 34.2268C31.4908 35.8308 30.0769 37.3803 27.9598 37.9776C26.0213 38.5245 24.3047 38.3404 22.9274 37.4366C21.6227 36.5804 20.914 35.2654 20.5177 34.132C20.1152 32.9806 19.9619 31.81 19.9025 30.9665C19.8721 30.5364 19.865 30.1713 19.8655 29.9094C19.8658 29.778 19.868 29.6716 19.8703 29.5947C19.8715 29.5563 19.8727 29.5251 19.8737 29.5018L19.875 29.4729L19.8755 29.4629L19.8757 29.4591L19.8758 29.4575C19.8758 29.4568 19.8759 29.4561 21.7546 29.5577L19.8759 29.4561C19.9324 28.4221 20.8205 27.6294 21.8597 27.6856C22.8974 27.7418 23.6932 28.6231 23.6392 29.6553L23.6389 29.6617L23.6373 29.7077C23.6359 29.7523 23.6344 29.8236 23.6342 29.9172C23.6338 30.1051 23.6389 30.3787 23.6619 30.7042C23.7089 31.3721 23.8257 32.1805 24.0771 32.8998C24.3349 33.637 24.6643 34.0843 25.0022 34.3061C25.2675 34.4802 25.798 34.6897 26.9317 34.3698C27.7569 34.137 28.4705 33.4917 29.0107 32.4747C29.5534 31.4527 29.8165 30.2328 29.8165 29.2487C29.8165 28.2132 30.6602 27.3737 31.7009 27.3737Z" fill="black"/>
<path fill-rule="evenodd" clip-rule="evenodd" d="M23.6859 24.5845C24.1966 23.7558 24.7215 22.2349 23.594 21.0353C22.5992 19.977 21.1909 20.168 20.4163 20.4794C19.8923 20.6901 19.5564 21.0497 19.3693 21.2941C19.1677 21.5574 19.0247 21.8363 18.9249 22.0821C18.748 22.5181 18.5834 23.1613 18.6757 23.8085C18.8241 24.8492 19.6073 25.3511 20.0551 25.5374C20.5066 25.7253 20.958 25.7625 21.2827 25.7584C21.6255 25.7542 21.9968 25.7015 22.3478 25.5872C22.5944 25.5069 23.2682 25.2622 23.6859 24.5845Z" fill="black"/>
<path fill-rule="evenodd" clip-rule="evenodd" d="M35.4117 20.6005C35.7899 21.5587 35.3083 22.6481 34.3359 23.0338C33.0323 23.5507 31.8864 24.1045 30.7537 24.8191C29.8692 25.3771 28.7036 25.1248 28.1502 24.2556C27.5969 23.3864 27.8653 22.2294 28.7497 21.6714C30.1275 20.8022 31.4962 20.1467 32.9663 19.5638C33.9386 19.1781 35.0335 19.6423 35.4117 20.6005Z" fill="black"/>
</g>
<defs>
<clipPath id="clip0_553_8748">
<rect width="54.2687" height="54" fill="white" transform="translate(6.02991 3)"/>
</clipPath>
</defs>
</svg>
