<svg width="89" height="89" viewBox="0 0 89 89" fill="none" xmlns="http://www.w3.org/2000/svg">
<path fill-rule="evenodd" clip-rule="evenodd" d="M63.2332 11.808C60.5997 9.97169 56.0317 12.2432 53.3111 13.9273C52.532 13.7462 51.7636 13.5749 51.0142 13.4078L50.5306 13.2999C48.2371 12.7874 46.3221 12.9284 44.2434 13.0814C43.1888 13.159 42.0921 13.2398 40.8824 13.2399C38.8647 13.24 36.8836 14.0324 34.9776 14.7948C34.4158 15.0195 33.8606 15.2416 33.3129 15.44C30.7726 16.3603 29.0139 17.7384 27.0907 19.2455C26.5197 19.6929 25.9342 20.1518 25.3094 20.6133C19.9681 24.5593 15.7291 30.5006 13.6614 36.724C13.5731 36.9897 13.4844 37.2548 13.3959 37.5193C12.352 40.6378 11.3299 43.6913 11.2889 47.0394C11.2798 47.7828 11.2467 48.5601 11.2129 49.3544C11.0964 52.0877 10.9714 55.0228 11.786 57.4758C11.9566 57.9894 12.1198 58.5186 12.2848 59.0538C12.8689 60.9474 13.4764 62.9172 14.5166 64.5445C14.6431 64.7426 14.7748 64.951 14.9112 65.1669L14.9113 65.1671C15.9086 66.746 17.1601 68.7273 18.5447 69.9935C18.5542 72.7987 18.7509 75.8413 21.6904 77.2784C24.6729 78.7364 27.3298 77.2868 29.614 75.4189C31.0871 75.6994 32.7155 75.7266 34.2037 75.7515L34.2044 75.7515C34.5047 75.7565 34.7992 75.7615 35.0857 75.7683C37.3085 75.8219 39.683 75.9164 41.8798 76.2533C45.5336 76.8135 50.5123 76.6458 53.9011 75.1905C56.4904 74.0786 59.1426 72.2965 61.5311 70.6916L62.1063 70.3054C63.1547 69.6028 64.0307 68.5741 64.8675 67.5913L64.8675 67.5913C65.0969 67.3218 65.3234 67.0559 65.5496 66.801C65.9148 66.3898 66.3293 66.0326 66.7421 65.6769L66.7422 65.6769L66.7422 65.6768C67.1724 65.3062 67.6007 64.9372 67.9693 64.5103C70.712 61.3335 72.9328 58.1383 75.29 54.68C78.0719 50.5985 78.345 43.9767 77.3364 39.3285C77.1864 38.6374 77.0975 37.8992 77.0079 37.1556C76.8673 35.989 76.7252 34.8091 76.3432 33.7766C75.6355 31.8635 74.9015 30.0398 74.1092 28.1641C73.0793 25.7262 71.5772 23.9591 69.8276 22.2677C69.7959 21.6222 69.7161 20.9889 69.6363 20.3559L69.6362 20.3557C69.5336 19.5418 69.4311 18.7285 69.431 17.8905C69.4308 15.2833 67.3189 14.1306 65.2212 12.9857L65.2212 12.9856C64.5318 12.6094 63.844 12.2339 63.2332 11.808Z" fill="#FEF500" stroke="black" stroke-width="2" stroke-linecap="round"/>
<path fill-rule="evenodd" clip-rule="evenodd" d="M59.1179 13.6759C57.5778 14.1426 55.9463 15.0158 54.65 15.8182L53.8694 16.3014L52.9752 16.0936C52.2072 15.9151 51.4482 15.7458 50.6973 15.5784L50.2133 15.4704C48.2787 15.0381 46.667 15.1452 44.5741 15.2993L44.5474 15.3013C43.5065 15.3779 42.3415 15.4637 41.0499 15.4638C39.537 15.4639 37.9632 16.0628 35.9712 16.8596L35.9545 16.8663C35.4042 17.0864 34.8204 17.3199 34.2382 17.5309C32.0736 18.3151 30.5694 19.4763 28.6304 20.9958L28.6203 21.0036C28.0554 21.4464 27.449 21.9215 26.7988 22.4018C21.8349 26.069 17.8666 31.6266 15.9402 37.4245C15.8511 37.693 15.7616 37.9603 15.6731 38.2245C14.6123 41.3938 13.7171 44.1215 13.6811 47.0655C13.6716 47.8428 13.6372 48.6483 13.6039 49.4301L13.6032 49.448C13.4823 52.2874 13.4039 54.7828 14.065 56.7735C14.2431 57.3099 14.4122 57.8582 14.5749 58.3857L14.5783 58.3969C15.1814 60.3522 15.7102 62.0178 16.5587 63.3451C16.6879 63.5474 16.8216 63.7591 16.9562 63.972L16.9596 63.9775C18.0025 65.6285 19.0932 67.3257 20.213 68.3499L20.933 69.0085L20.9363 69.9842C20.9463 72.9659 21.2693 74.5133 22.8342 75.2783C24.5317 76.1082 26.177 75.4905 28.3721 73.6953L29.1763 73.0377L30.1968 73.232C31.4485 73.4704 32.8797 73.5002 34.4083 73.5257L34.4142 73.5258C34.7112 73.5308 35.0123 73.5358 35.3066 73.5429C37.5357 73.5966 40.0346 73.6926 42.3843 74.0529C45.8085 74.5779 50.324 74.376 53.1905 73.145C55.5531 72.1304 58.0278 70.4763 60.4574 68.8438L61.0335 68.457C61.7799 67.9568 62.4609 67.181 63.3407 66.1477L63.3493 66.1377C63.5733 65.8746 63.8121 65.5942 64.0532 65.3227C64.5183 64.7988 65.0296 64.3584 65.4196 64.0225L65.4572 63.9902C65.9088 63.6011 66.2092 63.3369 66.4524 63.0552C69.1043 59.9837 71.263 56.8821 73.6188 53.4258C74.7318 51.7928 75.4221 49.5132 75.6893 46.9821C75.9543 44.4713 75.7834 41.892 75.3293 39.7992C75.157 39.0052 75.0576 38.1792 74.9719 37.4675L74.9662 37.4207C74.8185 36.195 74.6981 35.2889 74.4238 34.5475C73.7304 32.6731 73.0095 30.8815 72.2269 29.0289C71.3613 26.9799 70.093 25.4562 68.449 23.8668L67.8164 23.2552L67.7732 22.3762C67.7464 21.8294 67.6782 21.2796 67.5966 20.633L67.5902 20.5818C67.4915 19.7994 67.374 18.8683 67.3739 17.8896C67.3739 17.3001 67.1777 16.9135 66.7412 16.4952C66.2049 15.9814 65.4348 15.5444 64.3231 14.9376L64.2762 14.912C63.6186 14.5531 62.84 14.1282 62.1284 13.632C61.6836 13.3219 60.7602 13.1782 59.1179 13.6759ZM57.8274 9.41711C59.8077 8.81701 62.4851 8.45572 64.6737 9.98187C65.1668 10.3257 65.7437 10.6433 66.4551 11.0316C66.49 11.0507 66.5254 11.0699 66.5611 11.0894C67.5353 11.6206 68.8128 12.3171 69.82 13.2822C70.9639 14.3783 71.8238 15.8717 71.8239 17.8893C71.824 18.5651 71.9064 19.2414 72.0117 20.0763L72.0159 20.1098C72.0612 20.4689 72.1105 20.86 72.1508 21.2695C73.773 22.914 75.2638 24.7826 76.3261 27.2972C77.1282 29.1959 77.8753 31.0517 78.5974 33.0035C79.0714 34.285 79.2401 35.6886 79.3715 36.7818L79.3843 36.8884C79.4764 37.6534 79.5543 38.2848 79.6781 38.8556C80.2326 41.4111 80.4295 44.4667 80.1147 47.4493C79.802 50.4115 78.9648 53.4835 77.2959 55.9321C74.9374 59.3923 72.6544 62.6812 69.8208 65.9632C69.3434 66.5162 68.808 66.9772 68.4036 67.3255L68.3619 67.3614C67.9306 67.733 67.6309 67.9956 67.3808 68.2772C67.1726 68.5117 66.9611 68.76 66.7288 69.0327C66.7038 69.0622 66.6784 69.092 66.6528 69.1221C65.8673 70.0453 64.8207 71.2754 63.5139 72.1516M63.5139 72.1516L62.8515 72.5963C60.5217 74.162 57.7274 76.0397 54.9464 77.2339C51.0353 78.9135 45.5934 79.0469 41.7099 78.4515C39.6662 78.1381 37.416 78.045 35.1995 77.9916C34.9224 77.985 34.6359 77.9802 34.3338 77.9751L34.2507 77.9737C33.108 77.9547 31.7406 77.9319 30.3912 77.7635C28.0311 79.5157 24.6948 81.1413 20.8797 79.2762C17.0358 77.3969 16.5609 73.5898 16.4968 70.9223C15.1943 69.5171 14.0766 67.7467 13.2703 66.4696C13.2457 66.4306 13.2214 66.392 13.1973 66.354C13.0603 66.137 12.9319 65.9338 12.8092 65.7418C11.605 63.8579 10.9222 61.6425 10.3644 59.8329L10.326 59.7083C10.1596 59.1689 10.0035 58.663 9.84176 58.176C8.89705 55.3312 9.03769 52.0487 9.14901 49.4505C9.15177 49.3861 9.15451 49.3222 9.15721 49.2587C9.19134 48.4574 9.22279 47.7147 9.2314 47.011C9.2767 43.3128 10.3937 39.9766 11.409 36.9442L11.4533 36.812C11.5419 36.547 11.6299 36.2844 11.7172 36.0214C13.9263 29.3725 18.436 23.0474 24.1546 18.8227C24.7501 18.3827 25.3115 17.943 25.8857 17.4931L25.9644 17.4314C27.8486 15.9546 29.8464 14.3889 32.7224 13.347C33.2297 13.1632 33.7504 12.9551 34.3186 12.7279C34.3701 12.7073 34.4221 12.6864 34.4746 12.6654C36.2741 11.9448 38.5985 11.014 41.0496 11.0138C42.1663 11.0137 43.1858 10.9395 44.2474 10.8613L44.3339 10.855C46.3738 10.7046 48.5678 10.5429 51.1831 11.1273L51.6658 11.235L51.6705 11.2361C52.1376 11.3402 52.6164 11.447 53.1027 11.5573C54.4352 10.7824 56.1076 9.93827 57.8274 9.41711" fill="black"/>
<path fill-rule="evenodd" clip-rule="evenodd" d="M39.77 41.9257C40.9988 41.9257 41.995 42.9219 41.995 44.1507C41.995 45.9341 41.8252 48.3524 41.0592 50.5437C40.2916 52.7397 38.7752 55.0818 35.8762 55.9116C33.9579 56.4606 32.215 56.2031 30.7452 55.3082C29.3734 54.473 28.4148 53.1896 27.7184 51.9898C27.0138 50.7761 26.4608 49.4369 26.0088 48.3187C25.9725 48.2289 25.937 48.1411 25.9023 48.0551C25.4705 46.9853 25.157 46.2088 24.8471 45.67C24.2344 44.6048 24.6012 43.2446 25.6664 42.6319C26.7316 42.0192 28.0918 42.3861 28.7045 43.4513C29.1792 44.2766 29.6135 45.3563 30.0023 46.323C30.047 46.434 30.091 46.5435 30.1345 46.6509C30.5921 47.7831 31.0406 48.849 31.567 49.7558C32.1015 50.6767 32.6034 51.2296 33.0594 51.5073C33.4174 51.7252 33.8697 51.8572 34.6517 51.6334C35.5977 51.3626 36.3344 50.5746 36.8585 49.0753C37.3843 47.5712 37.545 45.7289 37.545 44.1507C37.545 42.9219 38.5412 41.9257 39.77 41.9257Z" fill="black"/>
<path fill-rule="evenodd" clip-rule="evenodd" d="M26.9089 32.4788C27.0903 32.4996 27.2184 32.5143 27.3774 32.5221C28.1904 32.5619 29.1638 32.9032 29.7595 33.8552C30.2728 34.6754 30.2293 35.531 30.1555 36.0051C30.0066 36.9618 29.503 37.8631 29.0765 38.3939C28.7254 38.831 28.3011 39.0651 28.0554 39.1819C27.7769 39.3142 27.497 39.4021 27.2553 39.4625C26.7708 39.5835 26.2415 39.6425 25.7472 39.6472C25.2726 39.6517 24.6771 39.6081 24.1098 39.4271C23.7126 39.3003 22.401 38.804 22.1246 37.3175C22.0248 36.7807 22.0821 36.2691 22.1556 35.9017C22.2353 35.5028 22.3716 35.0903 22.5599 34.7036C22.7424 34.3289 23.0206 33.8819 23.4346 33.499C23.6597 33.2908 23.9622 33.07 24.336 32.9103C24.786 32.6458 25.2913 32.4712 25.8789 32.4315C26.2645 32.4054 26.618 32.4456 26.8108 32.4675C26.8144 32.4679 26.8178 32.4683 26.8212 32.4687C26.8519 32.4722 26.881 32.4756 26.9089 32.4788Z" fill="black"/>
<path fill-rule="evenodd" clip-rule="evenodd" d="M44.5352 33.3586C44.665 34.5773 43.7779 35.6782 42.5537 35.8176C42.5539 35.8175 42.5537 35.8176 42.5531 35.8177C42.5422 35.8201 42.4031 35.8511 42.0492 36.0215C41.9004 36.0931 41.7528 36.1694 41.5764 36.2606C41.5509 36.2738 41.5248 36.2873 41.4981 36.3011C41.3033 36.4016 41.0621 36.5254 40.8192 36.6345C40.1737 36.9245 39.5924 37.2996 38.8449 37.7819C38.7082 37.8701 38.5659 37.9619 38.4167 38.0574C37.3771 38.7228 35.9999 38.4268 35.3406 37.3963C34.6813 36.3658 34.9896 34.9911 36.0292 34.3257C36.143 34.2529 36.2619 34.1758 36.3856 34.0956C37.1228 33.6177 38.0293 33.0302 39.0147 32.5875C39.132 32.5348 39.2728 32.4638 39.4729 32.3605C39.4959 32.3486 39.5199 32.3362 39.5446 32.3234C39.716 32.2348 39.9252 32.1265 40.1364 32.0249C40.5881 31.8074 41.2941 31.4941 42.0836 31.4043C43.3078 31.2649 44.4054 32.1399 44.5352 33.3586Z" fill="black"/>
</svg>
