<svg width="72" height="73" viewBox="0 0 72 73" fill="none" xmlns="http://www.w3.org/2000/svg">
<path fill-rule="evenodd" clip-rule="evenodd" d="M54.2332 3.808C51.5997 1.97169 47.0317 4.24324 44.3111 5.9273C43.532 5.74622 42.7636 5.57488 42.0142 5.40778L41.5306 5.29985C39.2371 4.78737 37.3221 4.92836 35.2434 5.08141C34.1888 5.15905 33.0921 5.2398 31.8824 5.23988C29.8647 5.24003 27.8836 6.03241 25.9776 6.79482C25.4158 7.0195 24.8606 7.24157 24.3129 7.43999C21.7726 8.36031 20.0139 9.73844 18.0907 11.2455C17.5197 11.6929 16.9342 12.1518 16.3094 12.6133C10.9681 16.5593 6.72912 22.5006 4.6614 28.724C4.57312 28.9897 4.48441 29.2548 4.39585 29.5193C3.35201 32.6378 2.32989 35.6913 2.28889 39.0394C2.27979 39.7828 2.24668 40.5601 2.21285 41.3544C2.09644 44.0877 1.97143 47.0228 2.78603 49.4758C2.95658 49.9894 3.11977 50.5186 3.28485 51.0538C3.86886 52.9474 4.47637 54.9172 5.51657 56.5445C5.64314 56.7426 5.77478 56.951 5.91117 57.1669L5.91129 57.1671C6.90862 58.746 8.16009 60.7273 9.54474 61.9935C9.55417 64.7987 9.75087 67.8413 12.6904 69.2784C15.6729 70.7364 18.3298 69.2868 20.614 67.4189C22.0871 67.6994 23.7155 67.7266 25.2037 67.7515L25.2044 67.7515C25.5047 67.7565 25.7992 67.7615 26.0857 67.7683C28.3085 67.8219 30.683 67.9164 32.8798 68.2533C36.5336 68.8135 41.5123 68.6458 44.9011 67.1905C47.4904 66.0786 50.1426 64.2965 52.5311 62.6916L53.1063 62.3054C54.1547 61.6028 55.0307 60.5741 55.8675 59.5913L55.8675 59.5913C56.0969 59.3218 56.3234 59.0559 56.5496 58.801C56.9148 58.3898 57.3293 58.0326 57.7421 57.6769L57.7422 57.6769L57.7422 57.6768C58.1724 57.3062 58.6007 56.9372 58.9693 56.5103C61.712 53.3335 63.9328 50.1383 66.29 46.68C69.0719 42.5985 69.345 35.9767 68.3364 31.3285C68.1864 30.6374 68.0975 29.8992 68.0079 29.1556C67.8673 27.989 67.7252 26.8091 67.3432 25.7766C66.6355 23.8635 65.9015 22.0398 65.1092 20.1641C64.0793 17.7262 62.5772 15.9591 60.8276 14.2677C60.7959 13.6222 60.7161 12.9889 60.6363 12.3559L60.6362 12.3557C60.5336 11.5418 60.4311 10.7285 60.431 9.8905C60.4308 7.28331 58.3189 6.13059 56.2212 4.98566L56.2212 4.98563C55.5318 4.60936 54.844 4.23393 54.2332 3.808Z" fill="#FEF500" stroke="black" stroke-width="2" stroke-linecap="round"/>
<path fill-rule="evenodd" clip-rule="evenodd" d="M50.1179 5.67587C48.5778 6.14258 46.9463 7.01578 45.65 7.81819L44.8694 8.30139L43.9752 8.09356C43.2072 7.91506 42.4482 7.74581 41.6973 7.57836L41.2133 7.47037C39.2787 7.03808 37.667 7.14523 35.5741 7.29932L35.5474 7.30129C34.5065 7.37793 33.3415 7.46371 32.0499 7.4638C30.537 7.46392 28.9632 8.06283 26.9712 8.85961L26.9545 8.86628C26.4042 9.08643 25.8204 9.31992 25.2382 9.53086C23.0736 10.3151 21.5694 11.4763 19.6304 12.9958L19.6203 13.0036C19.0554 13.4463 18.449 13.9215 17.7988 14.4018C12.8349 18.069 8.86661 23.6266 6.94025 29.4245C6.85105 29.693 6.76155 29.9603 6.67313 30.2245C5.61226 33.3938 4.71713 36.1215 4.68107 39.0655C4.67155 39.8428 4.63724 40.6483 4.60395 41.4301L4.60318 41.448C4.48225 44.2874 4.40391 46.7828 5.06498 48.7735C5.2431 49.3099 5.41221 49.8582 5.5749 50.3857L5.57834 50.3969C6.1814 52.3522 6.7102 54.0178 7.55865 55.3451C7.68791 55.5474 7.82165 55.7591 7.95616 55.972L7.95962 55.9775C9.00248 57.6285 10.0932 59.3257 11.213 60.3499L11.933 61.0085L11.9363 61.9842C11.9463 64.9659 12.2693 66.5133 13.8342 67.2783C15.5317 68.1082 17.177 67.4905 19.3721 65.6953L20.1763 65.0377L21.1968 65.232C22.4485 65.4703 23.8797 65.5002 25.4083 65.5257L25.4142 65.5258C25.7112 65.5308 26.0123 65.5358 26.3066 65.5429C28.5357 65.5966 31.0346 65.6926 33.3843 66.0529C36.8085 66.5779 41.324 66.376 44.1905 65.145C46.5531 64.1304 49.0278 62.4763 51.4574 60.8438L52.0335 60.457C52.7799 59.9568 53.4609 59.181 54.3407 58.1477L54.3493 58.1377C54.5733 57.8746 54.8121 57.5942 55.0532 57.3227C55.5183 56.7988 56.0296 56.3584 56.4196 56.0225L56.4572 55.9902C56.9088 55.6011 57.2092 55.3369 57.4524 55.0552C60.1043 51.9837 62.263 48.8821 64.6188 45.4258C65.7318 43.7928 66.4221 41.5132 66.6893 38.9821C66.9543 36.4713 66.7834 33.892 66.3293 31.7992C66.157 31.0052 66.0576 30.1792 65.9719 29.4675L65.9662 29.4207C65.8185 28.195 65.6981 27.2889 65.4238 26.5475C64.7304 24.6731 64.0095 22.8815 63.2269 21.0289C62.3613 18.9799 61.093 17.4562 59.449 15.8668L58.8164 15.2552L58.7732 14.3762C58.7464 13.8294 58.6782 13.2796 58.5966 12.633L58.5902 12.5818C58.4915 11.7994 58.374 10.8683 58.3739 9.88964C58.3739 9.30008 58.1777 8.9135 57.7412 8.49522C57.2049 7.98136 56.4348 7.54439 55.3231 6.93764L55.2762 6.91202C54.6186 6.55314 53.84 6.12824 53.1284 5.63205C52.6835 5.32186 51.7602 5.17822 50.1179 5.67587ZM48.8274 1.41711C50.8077 0.817012 53.4851 0.455722 55.6737 1.98187C56.1668 2.32572 56.7437 2.64327 57.4551 3.0316C57.49 3.05066 57.5254 3.06993 57.5611 3.08942C58.5353 3.62056 59.8128 4.31708 60.82 5.28219C61.9639 6.3783 62.8238 7.87168 62.8239 9.8893C62.824 10.5651 62.9064 11.2414 63.0117 12.0763L63.0159 12.1098C63.0612 12.4689 63.1105 12.86 63.1508 13.2695C64.773 14.914 66.2638 16.7826 67.3261 19.2972C68.1282 21.1959 68.8753 23.0517 69.5974 25.0035C70.0714 26.285 70.2401 27.6886 70.3714 28.7818L70.3843 28.8884C70.4764 29.6534 70.5543 30.2848 70.6781 30.8556C71.2326 33.4111 71.4295 36.4667 71.1147 39.4493C70.802 42.4115 69.9648 45.4835 68.2959 47.9321C65.9374 51.3923 63.6544 54.6812 60.8208 57.9632C60.3434 58.5162 59.808 58.9772 59.4036 59.3255L59.3619 59.3614C58.9306 59.733 58.6309 59.9956 58.3808 60.2772C58.1726 60.5117 57.9611 60.76 57.7288 61.0327C57.7038 61.0622 57.6784 61.092 57.6528 61.1221C56.8673 62.0453 55.8207 63.2754 54.5139 64.1516M54.5139 64.1516L53.8515 64.5963C51.5217 66.162 48.7274 68.0397 45.9464 69.2339C42.0353 70.9135 36.5934 71.0469 32.7099 70.4515C30.6662 70.1381 28.416 70.045 26.1995 69.9916C25.9224 69.985 25.6359 69.9802 25.3338 69.9751L25.2507 69.9737C24.108 69.9547 22.7406 69.9319 21.3912 69.7635C19.0311 71.5157 15.6948 73.1413 11.8797 71.2762C8.03579 69.3969 7.5609 65.5898 7.49679 62.9223C6.19433 61.5171 5.07663 59.7467 4.27031 58.4696C4.24568 58.4306 4.22135 58.392 4.19733 58.354C4.06026 58.137 3.93193 57.9338 3.80918 57.7418C2.605 55.8579 1.92216 53.6425 1.36437 51.8329L1.32598 51.7083C1.15961 51.1689 1.00347 50.663 0.841759 50.176C-0.102952 47.3312 0.0376865 44.0487 0.149009 41.4505C0.151767 41.3861 0.154507 41.3222 0.157212 41.2587C0.191339 40.4574 0.222787 39.7147 0.231405 39.011C0.276695 35.3128 1.3937 31.9766 2.40899 28.9442L2.45326 28.812C2.54195 28.547 2.62987 28.2844 2.71724 28.0214C4.92633 21.3725 9.43603 15.0474 15.1546 10.8227C15.7501 10.3827 16.3115 9.94299 16.8857 9.49306L16.9644 9.43136C18.8486 7.95463 20.8464 6.38888 23.7224 5.34697C24.2297 5.16319 24.7504 4.95512 25.3186 4.72787C25.3701 4.70725 25.4221 4.68643 25.4746 4.66543C27.2741 3.94479 29.5985 3.01398 32.0496 3.01381C33.1663 3.01372 34.1858 2.93949 35.2474 2.86133L35.3339 2.85496C37.3738 2.70461 39.5678 2.54292 42.1831 3.12733L42.6658 3.23504L42.6705 3.23609C43.1376 3.34024 43.6164 3.44701 44.1027 3.55726C45.4352 2.78244 47.1075 1.93827 48.8274 1.41711" fill="black"/>
<path fill-rule="evenodd" clip-rule="evenodd" d="M30.77 33.9257C31.9988 33.9257 32.995 34.9219 32.995 36.1507C32.995 37.9341 32.8252 40.3524 32.0592 42.5437C31.2916 44.7397 29.7752 47.0818 26.8762 47.9116C24.9579 48.4606 23.215 48.2031 21.7452 47.3082C20.3734 46.473 19.4148 45.1896 18.7184 43.9898C18.0138 42.7761 17.4608 41.4369 17.0088 40.3187C16.9725 40.2289 16.937 40.1411 16.9023 40.0551C16.4705 38.9853 16.157 38.2088 15.8471 37.67C15.2344 36.6048 15.6012 35.2446 16.6664 34.6319C17.7316 34.0192 19.0918 34.3861 19.7045 35.4513C20.1792 36.2766 20.6135 37.3563 21.0023 38.323C21.047 38.434 21.091 38.5435 21.1345 38.6509C21.5921 39.7831 22.0406 40.849 22.567 41.7558C23.1015 42.6767 23.6034 43.2296 24.0594 43.5073C24.4174 43.7252 24.8697 43.8572 25.6517 43.6334C26.5977 43.3626 27.3344 42.5746 27.8585 41.0753C28.3843 39.5712 28.545 37.7289 28.545 36.1507C28.545 34.9219 29.5412 33.9257 30.77 33.9257Z" fill="black"/>
<path fill-rule="evenodd" clip-rule="evenodd" d="M17.9089 24.4788C18.0903 24.4996 18.2184 24.5143 18.3774 24.5221C19.1904 24.5619 20.1638 24.9032 20.7595 25.8552C21.2728 26.6754 21.2293 27.531 21.1555 28.0051C21.0066 28.9618 20.503 29.8631 20.0765 30.3939C19.7254 30.831 19.3011 31.0651 19.0554 31.1819C18.7769 31.3142 18.497 31.4021 18.2553 31.4625C17.7708 31.5835 17.2415 31.6425 16.7472 31.6472C16.2726 31.6517 15.6771 31.6081 15.1098 31.4271C14.7126 31.3003 13.401 30.804 13.1246 29.3175C13.0248 28.7807 13.0821 28.2691 13.1556 27.9017C13.2353 27.5028 13.3716 27.0903 13.5599 26.7036C13.7424 26.3289 14.0206 25.8819 14.4346 25.499C14.6597 25.2908 14.9622 25.07 15.336 24.9103C15.786 24.6458 16.2913 24.4712 16.8789 24.4315C17.2645 24.4054 17.618 24.4456 17.8108 24.4675C17.8144 24.4679 17.8178 24.4683 17.8212 24.4687C17.8519 24.4722 17.881 24.4756 17.9089 24.4788Z" fill="black"/>
<path fill-rule="evenodd" clip-rule="evenodd" d="M35.5352 25.3586C35.665 26.5773 34.7779 27.6782 33.5537 27.8176C33.5539 27.8175 33.5537 27.8176 33.5531 27.8177C33.5422 27.8201 33.4031 27.8511 33.0492 28.0215C32.9004 28.0931 32.7528 28.1694 32.5764 28.2606C32.5509 28.2738 32.5248 28.2873 32.4981 28.3011C32.3033 28.4016 32.0621 28.5254 31.8192 28.6345C31.1737 28.9245 30.5924 29.2996 29.8449 29.7819C29.7082 29.8701 29.5659 29.9619 29.4167 30.0574C28.3771 30.7228 26.9999 30.4268 26.3406 29.3963C25.6813 28.3658 25.9896 26.9911 27.0292 26.3257C27.143 26.2529 27.2619 26.1758 27.3856 26.0956C28.1228 25.6177 29.0293 25.0302 30.0147 24.5875C30.132 24.5348 30.2728 24.4638 30.4729 24.3605C30.4959 24.3486 30.5199 24.3362 30.5446 24.3234C30.716 24.2348 30.9252 24.1265 31.1364 24.0249C31.5881 23.8074 32.2941 23.4941 33.0836 23.4043C34.3078 23.2649 35.4054 24.1399 35.5352 25.3586Z" fill="black"/>
</svg>
