<svg width="134" height="40" viewBox="0 0 134 40" fill="none" xmlns="http://www.w3.org/2000/svg">
<path fill-rule="evenodd" clip-rule="evenodd" d="M51.6312 9.14999C54.1247 9.1502 57.7751 9.20663 60.5882 10.2969C62.0218 10.8526 63.369 11.7247 64.1974 13.1173C65.0404 14.5345 65.2311 16.2949 64.7245 18.3792C64.3015 20.1199 62.9423 21.1055 61.5105 21.6397C60.0881 22.1704 58.3954 22.3418 56.8484 22.362C55.2825 22.3825 53.7679 22.2483 52.6532 22.1113C52.3762 22.0773 52.1226 22.0429 51.8974 22.0104C51.7518 24.5204 51.6616 27.0612 51.6616 29.6C51.6616 30.2904 51.102 30.85 50.4116 30.85C49.7213 30.85 49.1616 30.2904 49.1616 29.6C49.1616 22.9363 49.7698 16.2862 50.3725 10.2876C50.3834 10.1658 50.4117 10.0491 50.4549 9.93986C50.5282 9.75451 50.644 9.59227 50.7892 9.46384C51.015 9.26412 51.312 9.14613 51.6312 9.14999ZM52.7483 11.6571C52.4971 14.1977 52.2534 16.8283 52.0606 19.5075C52.313 19.5455 52.616 19.588 52.9581 19.63C54.007 19.7589 55.4012 19.8807 56.8157 19.8622C58.2492 19.8435 59.6086 19.6809 60.6366 19.2974C61.6552 18.9173 62.1447 18.4083 62.2953 17.7888C62.6894 16.167 62.4763 15.1139 62.0488 14.3954C61.6069 13.6525 60.817 13.0668 59.6847 12.628C57.701 11.8591 55.0742 11.6897 52.7483 11.6571Z" fill="black"/>
<path fill-rule="evenodd" clip-rule="evenodd" d="M69.9441 11.5515C70.6335 11.5168 71.2206 12.0476 71.2553 12.7371L70.0069 12.8C71.2553 12.7371 71.2553 12.737 71.2553 12.7371L71.2563 12.7561L71.2588 12.8087C71.261 12.8548 71.2642 12.9223 71.2681 13.0093C71.2758 13.1833 71.2866 13.4353 71.2985 13.7492C71.3223 14.3768 71.3509 15.2531 71.37 16.2492C71.4076 18.2137 71.4091 20.6872 71.2567 22.6376C71.2529 23.0866 71.2018 23.6278 71.1493 24.1505C71.1405 24.2375 71.1316 24.3248 71.1228 24.4123C71.0735 24.8967 71.0235 25.3891 70.9908 25.8796C70.9522 26.4595 70.9417 26.9892 70.98 27.4358C71.0201 27.9024 71.105 28.1631 71.1738 28.2819C71.1738 28.2818 71.1739 28.2821 71.1738 28.2819C71.1737 28.2823 71.1737 28.2832 71.1814 28.2881C71.1973 28.2984 71.2451 28.324 71.3467 28.3464C71.5662 28.3947 71.8994 28.3991 72.3461 28.3406C72.7797 28.2839 73.2392 28.1798 73.6865 28.0676C73.7929 28.0409 73.9049 28.012 74.0182 27.9827C74.3335 27.9014 74.6587 27.8174 74.9002 27.7717C75.3534 27.686 75.8069 27.5989 76.2606 27.5116C78.8406 27.0158 81.431 26.518 84.0559 26.2633C84.7431 26.1967 85.3541 26.6997 85.4208 27.3868C85.4875 28.0739 84.9845 28.685 84.2973 28.7517C81.7984 28.9941 79.3378 29.4666 76.7541 29.9627C76.2952 30.0508 75.8324 30.1397 75.3649 30.2282C75.2086 30.2577 75.0118 30.3086 74.7426 30.3781C74.6117 30.4119 74.4636 30.4501 74.2947 30.4925C73.8236 30.6106 73.2512 30.7435 72.6703 30.8195C72.1025 30.8938 71.4386 30.9265 70.8091 30.7879C70.1551 30.6439 69.4474 30.2895 69.0103 29.5345C68.6712 28.9489 68.5416 28.2598 68.4892 27.6496C68.4351 27.0195 68.4543 26.3456 68.4964 25.7135C68.5322 25.1757 68.5873 24.6338 68.6364 24.1507C68.6451 24.0654 68.6536 23.9819 68.6618 23.9007C68.7187 23.3338 68.7569 22.8973 68.7569 22.5855V22.5357L68.7609 22.4861C68.9067 20.6581 68.908 18.2631 68.8704 16.2971C68.8517 15.32 68.8237 14.4598 68.8003 13.844C68.7886 13.5363 68.7781 13.2899 68.7706 13.121C68.7668 13.0366 68.7637 12.9715 68.7617 12.9278L68.7593 12.8785L68.7585 12.8635C68.7238 12.174 69.2546 11.5862 69.9441 11.5515Z" fill="black"/>
<path fill-rule="evenodd" clip-rule="evenodd" d="M115.77 21.5232C115.326 21.4154 114.98 21.1621 114.722 20.8729C114.015 20.0794 113.355 19.2079 112.728 18.3809C112.676 18.3117 112.624 18.2429 112.572 18.1744C111.944 17.346 111.343 16.5656 110.709 15.8682C110.678 15.9357 110.644 16.0184 110.608 16.1189C110.246 17.1278 110.026 18.8825 109.924 20.9602C109.725 25.0429 110.001 29.7679 110.06 30.6541C110.105 31.3429 109.584 31.9385 108.895 31.9842C108.206 32.03 107.611 31.5087 107.565 30.8199C107.505 29.9149 107.22 25.0713 107.427 20.8381C107.529 18.7579 107.754 16.6679 108.255 15.2739C108.487 14.6277 108.891 13.7955 109.677 13.393C110.663 12.8878 111.61 13.3169 112.255 13.8709L112.306 13.9141L112.351 13.9625C113.156 14.8172 113.883 15.7657 114.564 16.664C114.613 16.7281 114.661 16.7919 114.709 16.8554C115.253 17.5738 115.77 18.2552 116.304 18.8828C116.365 18.8205 116.437 18.742 116.52 18.6434C116.956 18.1268 117.407 17.4271 117.918 16.6344C118.128 16.3084 118.349 15.9666 118.582 15.6154C118.96 15.0475 119.366 14.4687 119.785 13.9772C120.188 13.5048 120.69 13.009 121.282 12.7197C121.949 12.3936 122.777 12.3203 123.554 12.824C124.214 13.252 124.658 13.9904 124.992 14.8129C126.012 17.3298 126.976 20.2332 127.595 22.6954C127.823 23.6051 128.131 25.1391 128.377 26.4165C128.501 27.0615 128.611 27.6514 128.69 28.0799C128.73 28.2943 128.762 28.4685 128.784 28.5892L128.818 28.7771C128.941 29.4565 128.49 30.1075 127.81 30.2301C127.131 30.3527 126.481 29.9014 126.358 29.222L126.325 29.0379C126.303 28.9189 126.271 28.7468 126.232 28.5346C126.154 28.1102 126.045 27.5265 125.922 26.889C125.674 25.6016 125.379 24.1355 125.17 23.3046C124.583 20.9668 123.656 18.1737 122.675 15.7521C122.547 15.4377 122.431 15.2263 122.337 15.0895C122.319 15.0629 122.302 15.0402 122.287 15.0208C122.153 15.1117 121.952 15.2892 121.687 15.6003C121.367 15.9753 121.027 16.4538 120.664 16.9997C120.489 17.2632 120.304 17.5492 120.115 17.8435C119.569 18.6906 118.978 19.6067 118.431 20.2553C118.072 20.6811 117.58 21.1854 116.969 21.4277C116.63 21.5618 116.215 21.6316 115.77 21.5232Z" fill="black"/>
<path fill-rule="evenodd" clip-rule="evenodd" d="M101.122 9.42993C99.4784 9.42993 96.806 9.47552 94.5544 9.52081C93.4264 9.54349 92.4006 9.56617 91.6567 9.58318C91.2848 9.59169 90.9833 9.59878 90.7747 9.60374L90.4502 9.61155L90.4392 9.61182L90.4282 9.61229C89.4295 9.65444 88.5572 9.91225 87.8854 10.4723C87.2056 11.039 86.8828 11.7884 86.7422 12.5118C86.6053 13.2162 86.6269 13.9637 86.6868 14.643C86.7294 15.1268 86.7991 15.6423 86.8637 16.1205L86.8637 16.1205C86.8888 16.3065 86.9132 16.4869 86.9349 16.6576L86.9371 16.6748L87.6984 21.5665L87.7004 21.5827L87.7133 21.6834C87.7246 21.7697 87.7411 21.8932 87.7624 22.0441C87.8049 22.3454 87.867 22.7596 87.9452 23.2094C88.0905 24.0449 88.3238 25.2106 88.6501 25.9095C89.2179 27.1256 90.4743 27.7109 91.6067 28.0155C92.7939 28.335 94.2026 28.443 95.5698 28.4497C98.3174 28.4631 101.191 28.0651 102.461 27.8637C103.142 27.7556 103.607 27.1151 103.499 26.4333C103.391 25.7515 102.751 25.2864 102.069 25.3946C100.841 25.5894 98.1254 25.9621 95.582 25.9497C94.3036 25.9435 93.1414 25.8395 92.2562 25.6014C91.3163 25.3485 90.9988 25.0306 90.9153 24.8518C90.754 24.5062 90.5642 23.6782 90.4083 22.7812C90.3359 22.3647 90.2778 21.978 90.2379 21.6948C90.2179 21.5535 90.2026 21.4389 90.1924 21.3602L90.1809 21.2705L90.1781 21.2482L90.1773 21.242L90.1748 21.2216L90.1095 20.8019C92.9493 20.4043 95.9884 20.05 98.2932 20.05C98.9836 20.05 99.5432 19.4904 99.5432 18.8C99.5432 18.1097 98.9836 17.55 98.2932 17.55C95.7965 17.55 92.5905 17.9293 89.725 18.3313L89.4127 16.3246C89.3861 16.1169 89.3591 15.9171 89.3329 15.723L89.3329 15.7228C89.2716 15.2693 89.2144 14.8464 89.1771 14.4235C89.1241 13.8216 89.1262 13.3492 89.1963 12.9887C89.2626 12.6473 89.3732 12.4868 89.4862 12.3926C89.6066 12.2922 89.8844 12.139 90.5232 12.1105L90.8342 12.103C91.0421 12.0981 91.3428 12.091 91.7139 12.0825C92.4561 12.0656 93.4796 12.0429 94.6046 12.0203C96.8589 11.975 99.5072 11.9299 101.122 11.9299C101.813 11.9299 102.372 11.3703 102.372 10.6799C102.372 9.98958 101.813 9.42993 101.122 9.42993Z" fill="black"/>
<g clip-path="url(#clip0_1111_1019)">
<path fill-rule="evenodd" clip-rule="evenodd" d="M26.1885 4.37284C22.7335 3.87928 19.2785 4.62862 17.3042 5.36C7.74853 8.89993 2.01659 24.9418 10.0945 32.4945C10.0992 33.905 10.196 35.4348 11.6414 36.1574C13.1081 36.8906 14.4146 36.1617 15.5378 35.2225C18.8766 35.8724 24.3066 36.5016 27.4812 35.1076C35.0723 31.7743 40.0192 23.584 38.0343 14.7379C37.5407 12.5382 36.2353 9.95847 34.5793 8.32145C34.5436 7.57965 34.5793 5.06198 32.1114 3.87928C29.6435 2.69658 28.4564 2.93732 26.1885 4.37284Z" fill="#FEF500"/>
<path fill-rule="evenodd" clip-rule="evenodd" d="M29.2032 4.38763C28.6198 4.44787 27.9636 4.72849 26.8568 5.42905C26.6056 5.58808 26.3059 5.65234 26.0115 5.61029C22.8155 5.15373 19.5748 5.8518 17.7382 6.53217C13.4299 8.12819 9.8242 12.6426 8.2839 17.7814C6.74559 22.9136 7.38031 28.2457 10.948 31.5814C11.1998 31.8168 11.3431 32.1457 11.3443 32.4903C11.3493 34.0084 11.5203 34.6995 12.2001 35.0393C12.9305 35.4044 13.6574 35.1653 14.7357 34.2636C15.0246 34.0221 15.4068 33.9236 15.7764 33.9955C17.4032 34.3122 19.5247 34.6204 21.6079 34.6821C23.7251 34.7448 25.6499 34.5465 26.9784 33.9631C34.0806 30.8445 38.6549 23.2141 36.8144 15.0116C36.3657 13.0117 35.1632 10.6565 33.7003 9.21044C33.4775 8.99021 33.3455 8.69437 33.3305 8.38146C33.3288 8.34706 33.3272 8.31133 33.3256 8.2744C33.2858 7.38507 33.2147 5.79428 31.571 5.00653C30.4242 4.45697 29.7585 4.33028 29.2032 4.38763ZM28.9463 1.90085C30.1685 1.77463 31.3303 2.11892 32.6514 2.75206C35.3782 4.05885 35.7432 6.65263 35.809 7.79687C37.4846 9.61946 38.75 12.219 39.2537 14.4642C41.3831 23.9539 36.0636 32.7041 27.9835 36.2522C26.1374 37.0628 23.76 37.2469 21.5339 37.181C19.5153 37.1212 17.4945 36.8505 15.8659 36.5559C14.6924 37.4278 13.0084 38.2384 11.0823 37.2755C9.14515 36.3071 8.88779 34.3692 8.85087 33.0276C4.70047 28.8089 4.24226 22.558 5.88917 17.0636C7.58427 11.4083 11.6224 6.13176 16.8697 4.18786C18.8949 3.43763 22.3518 2.6707 25.907 3.0766C26.9225 2.46219 27.886 2.01036 28.9463 1.90085Z" fill="black"/>
<path fill-rule="evenodd" clip-rule="evenodd" d="M29.2032 4.38763C28.6198 4.44787 27.9636 4.72849 26.8568 5.42905C26.6056 5.58808 26.3059 5.65234 26.0115 5.61029C22.8155 5.15373 19.5748 5.8518 17.7382 6.53217C13.4299 8.12819 9.8242 12.6426 8.2839 17.7814C6.74559 22.9136 7.38031 28.2457 10.948 31.5814C11.1998 31.8168 11.3431 32.1457 11.3443 32.4903C11.3493 34.0084 11.5203 34.6995 12.2001 35.0393C12.9305 35.4044 13.6574 35.1653 14.7357 34.2636C15.0246 34.0221 15.4068 33.9236 15.7764 33.9955C17.4032 34.3122 19.5247 34.6204 21.6079 34.6821C23.7251 34.7448 25.6499 34.5465 26.9784 33.9631C34.0806 30.8445 38.6549 23.2141 36.8144 15.0116C36.3657 13.0117 35.1632 10.6565 33.7003 9.21044C33.4775 8.99021 33.3455 8.69437 33.3305 8.38146C33.3288 8.34706 33.3272 8.31133 33.3256 8.2744C33.2858 7.38507 33.2147 5.79428 31.571 5.00653C30.4242 4.45697 29.7585 4.33028 29.2032 4.38763ZM28.9463 1.90085C30.1685 1.77463 31.3303 2.11892 32.6514 2.75206C35.3782 4.05885 35.7432 6.65263 35.809 7.79687C37.4846 9.61946 38.75 12.219 39.2537 14.4642C41.3831 23.9539 36.0636 32.7041 27.9835 36.2522C26.1374 37.0628 23.76 37.2469 21.5339 37.181C19.5153 37.1212 17.4945 36.8505 15.8659 36.5559C14.6924 37.4278 13.0084 38.2384 11.0823 37.2755C9.14515 36.3071 8.88779 34.3692 8.85087 33.0276C4.70047 28.8089 4.24226 22.558 5.88917 17.0636C7.58427 11.4083 11.6224 6.13176 16.8697 4.18786C18.8949 3.43763 22.3518 2.6707 25.907 3.0766C26.9225 2.46219 27.886 2.01036 28.9463 1.90085Z" fill="black"/>
<path fill-rule="evenodd" clip-rule="evenodd" d="M21.0294 18.2491C21.7198 18.2491 22.2794 18.8088 22.2794 19.4991C22.2794 20.5334 22.0185 21.7518 21.4552 22.8179C20.8901 23.8872 19.9522 24.9202 18.5477 25.3184C17.2618 25.683 16.123 25.5603 15.2094 24.9577C14.3439 24.3869 13.8738 23.5103 13.6109 22.7547C13.3439 21.9871 13.2422 21.2067 13.2028 20.6444C13.1826 20.3576 13.1779 20.1142 13.1782 19.9396C13.1784 19.852 13.1799 19.7811 13.1814 19.7298C13.1822 19.7042 13.183 19.6834 13.1837 19.6679L13.1845 19.6486L13.1849 19.642L13.185 19.6395L13.1851 19.6384C13.1851 19.6379 13.1851 19.6374 14.4314 19.7052L13.1851 19.6374C13.2226 18.9481 13.8118 18.4197 14.5011 18.4571C15.1895 18.4945 15.7174 19.0821 15.6816 19.7702L15.6814 19.7745L15.6803 19.8052C15.6794 19.8349 15.6784 19.8824 15.6782 19.9448C15.678 20.0701 15.6814 20.2525 15.6966 20.4695C15.7279 20.9147 15.8053 21.4537 15.9721 21.9332C16.1431 22.4247 16.3616 22.7229 16.5858 22.8707C16.7617 22.9868 17.1137 23.1265 17.8657 22.9132C18.4131 22.758 18.8865 22.3278 19.2448 21.6498C19.6049 20.9685 19.7794 20.1552 19.7794 19.4991C19.7794 18.8088 20.3391 18.2491 21.0294 18.2491Z" fill="black"/>
<path fill-rule="evenodd" clip-rule="evenodd" d="M15.7123 16.3897C16.051 15.8372 16.3993 14.8232 15.6513 14.0236C14.9914 13.318 14.0572 13.4454 13.5434 13.6529C13.1958 13.7934 12.973 14.0331 12.8488 14.1961C12.7151 14.3716 12.6202 14.5575 12.554 14.7214C12.4366 15.0121 12.3275 15.4409 12.3887 15.8723C12.4871 16.5661 13.0067 16.9007 13.3037 17.0249C13.6033 17.1502 13.9027 17.175 14.1181 17.1723C14.3455 17.1694 14.5918 17.1343 14.8246 17.0581C14.9882 17.0046 15.4352 16.8415 15.7123 16.3897Z" fill="black"/>
<path fill-rule="evenodd" clip-rule="evenodd" d="M23.4911 13.7337C23.742 14.3725 23.4225 15.0987 22.7774 15.3558C21.9127 15.7005 21.1525 16.0696 20.4011 16.546C19.8144 16.918 19.0412 16.7499 18.6741 16.1704C18.307 15.5909 18.485 14.8196 19.0718 14.4476C19.9857 13.8681 20.8937 13.4311 21.8689 13.0425C22.5139 12.7854 23.2402 13.0949 23.4911 13.7337Z" fill="black"/>
</g>
<defs>
<clipPath id="clip0_1111_1019">
<rect width="36" height="36" fill="white" transform="translate(4 2)"/>
</clipPath>
</defs>
</svg>
