<svg width="32" height="32" viewBox="0 0 32 32" fill="none" xmlns="http://www.w3.org/2000/svg">
<path d="M20.1263 23.5243C20.1346 25.6911 18.9345 26.7848 17.3161 27.0223C14.8827 27.3795 12.841 25.8552 12.7813 23.5616L20.1263 23.5243Z" fill="#FFE600"/>
<path d="M8.83757 14.9135C8.69774 16.1424 8.5905 17.3014 8.65994 18.6126C8.72938 19.9239 7.29968 20.9988 6.81811 21.9634C6.66271 22.3872 6.77019 23.1799 7.88884 23.2255C14.4938 23.4945 19.3978 23.2298 26.0912 22.3997C26.9182 22.2971 26.8817 20.3733 26.2974 19.835C25.487 19.0884 25.0856 19.2638 24.3092 18.5352C23.676 17.7356 23.7506 16.651 23.4277 15.3283C22.9507 13.3746 23.1048 12.8857 22.0803 11.0459C21.1851 9.43851 20.1625 8.72545 18.5567 7.99319C17.5791 7.54734 16.3698 7.34456 15.1663 7.4541C14.1373 7.50859 13.4646 7.77775 12.5628 8.31061C9.79147 9.94809 9.19658 11.7586 8.83757 14.9135Z" fill="#FFE600" stroke="black" stroke-width="2" stroke-linecap="round"/>
<path d="M12.7808 23.5616C12.8405 25.8552 14.8823 27.3795 17.3156 27.0223C18.934 26.7848 20.1341 25.6911 20.1259 23.5243" stroke="black" stroke-width="2" stroke-linecap="round"/>
<path d="M15.0908 5C15.0937 5.7573 15.0969 6.5964 15.0999 7.37142" stroke="black" stroke-width="2" stroke-linecap="round"/>
</svg>
