<svg width="16" height="16" viewBox="0 0 16 16" fill="none" xmlns="http://www.w3.org/2000/svg">
<g clip-path="url(#clip0_1685_10103)">
<path d="M15.25 8C15.25 12.0041 12.0041 15.25 8.00005 15.25C5.01014 15.25 2.30381 13.9894 1.17426 11.6715C0.97802 11.2688 0.862359 10.6935 0.804146 10.0105C0.749703 9.37185 0.749874 8.70749 0.75003 8.09715C0.750039 8.06461 0.750047 8.03222 0.750047 8C0.750047 3.93075 3.55825 0.749985 7.5 0.749985C8.49702 0.749985 9.89053 0.947354 10.6994 1.26902C13.4737 2.58822 15.25 4.98936 15.25 8Z" stroke="#444444" stroke-width="1.5"/>
<path fill-rule="evenodd" clip-rule="evenodd" d="M7.71712 9.29602C7.30555 9.24933 7.00975 8.87783 7.05644 8.46626L7.59201 3.74522C7.6387 3.33365 8.0102 3.03785 8.42177 3.08454C8.83335 3.13123 9.12914 3.50273 9.08245 3.9143L8.54688 8.63534C8.50019 9.04691 8.12869 9.34271 7.71712 9.29602Z" fill="#444444"/>
<path fill-rule="evenodd" clip-rule="evenodd" d="M7.875 12.25C7.39175 12.25 7 11.8582 7 11.375C7 10.8918 7.39175 10.5 7.875 10.5C8.35825 10.5 8.75 10.8918 8.75 11.375C8.75 11.8582 8.35825 12.25 7.875 12.25Z" fill="#444444"/>
</g>
<defs>
<clipPath id="clip0_1685_10103">
<rect width="16" height="16" fill="white"/>
</clipPath>
</defs>
</svg>
