<svg width="119" height="138" viewBox="0 0 119 138" fill="none" xmlns="http://www.w3.org/2000/svg">
<path fill-rule="evenodd" clip-rule="evenodd" d="M90.0896 61.8253C97.2198 61.8253 103 67.6724 103 74.8851C103 85.6911 100.305 98.4206 94.4871 109.558C88.6506 120.731 78.9634 131.523 64.4576 135.684C51.1763 139.493 39.4149 138.211 29.9783 131.915C21.0392 125.952 16.184 116.792 13.469 108.898C10.711 100.879 9.66064 92.7254 9.25338 86.8502C9.04569 83.854 8.99645 81.311 9.00019 79.4868C9.00207 78.5721 9.01729 77.8307 9.03326 77.2952C9.04124 77.0273 9.04943 76.8103 9.05627 76.6482L9.06533 76.4466L9.06875 76.3774L9.07012 76.351L9.07071 76.3397C9.07097 76.3347 9.07123 76.3299 21.9431 77.0376L9.07123 76.3299C9.45819 69.1278 15.5435 63.6067 22.6633 63.9982C29.7729 64.3891 35.2255 70.528 34.8556 77.717L34.8536 77.7621L34.8423 78.0824C34.8331 78.3929 34.8223 78.8892 34.8209 79.5411C34.8182 80.85 34.8538 82.756 35.0109 85.0232C35.3334 89.6748 36.1329 95.3054 37.8561 100.316C39.6221 105.451 41.8791 108.566 44.1942 110.111C46.0117 111.323 49.6464 112.783 57.4141 110.555C63.0676 108.933 67.9573 104.439 71.6578 97.3549C75.3766 90.2362 77.1792 81.7396 77.1792 74.8851C77.1792 67.6724 82.9594 61.8253 90.0896 61.8253Z" fill="black"/>
<path fill-rule="evenodd" clip-rule="evenodd" d="M34.9809 42.5358C38.5277 36.6861 42.1737 25.9486 34.3429 17.4805C27.4338 10.0091 17.6526 11.3579 12.2734 13.5561C8.63386 15.0433 6.30123 17.5818 5.00139 19.3075C3.60123 21.1663 2.60831 23.1348 1.91521 24.8705C0.686207 27.9483 -0.456884 32.4891 0.184096 37.0576C1.21488 44.4045 6.65452 47.9478 9.76443 49.2631C12.9002 50.5892 16.0353 50.8518 18.2901 50.8233C20.6709 50.7932 23.2497 50.4212 25.6874 49.6145C27.4004 49.0477 32.0801 47.3203 34.9809 42.5358Z" fill="black"/>
<path fill-rule="evenodd" clip-rule="evenodd" d="M115.665 15.0928C118.273 21.7343 114.951 29.2851 108.245 31.9578C99.2543 35.541 91.3508 39.3794 83.539 44.3322C77.4389 48.1999 69.3998 46.4513 65.5832 40.4268C61.7666 34.4022 63.6178 26.383 69.7179 22.5154C79.2204 16.4906 88.6601 11.9475 98.7987 7.90672C105.505 5.23395 113.056 8.45126 115.665 15.0928Z" fill="black"/>
</svg>
