<svg width="319" height="190" viewBox="0 0 319 190" fill="none" xmlns="http://www.w3.org/2000/svg">
<path d="M1 8.80812C1.3655 7.37281 0.618678 2.22095 1.82345 1.07455C18.6224 1.07455 41.2867 0.906815 58.1428 1.07455C125.688 1.07455 191.485 1.43607 258.188 1.43607C279.866 1.43607 300.452 1.43607 316.978 1.70163C317.88 3.46288 317.778 42.8399 317.88 48.3329C318.419 77.5085 316.971 106.71 316.971 135.889C316.971 152.948 314.903 170.931 316.477 187.974C313.641 188.769 286.653 188.186 284.428 188.179C234.163 188.025 181.37 189 131.11 189C86.7945 189 47.1987 187.97 2.8457 187.97C0.878008 187.97 1.62084 168.63 1.62084 167.44C1.62084 114.564 0.999953 61.67 1 8.80812Z" fill="white" stroke="black" stroke-width="2" stroke-linecap="round" stroke-linejoin="round"/>
<path d="M317 129C304.37 129 230.416 129.819 217.778 129.909C154.922 130.357 154.138 129 91.2361 129C61.2972 129 31.1165 129.909 0.999996 129.909" stroke="black" stroke-width="2" stroke-linecap="round"/>
<path d="M159.213 129.914C159.213 129.914 159 140.608 159 157C159 168.5 159 188 159 188" stroke="black" stroke-width="2" stroke-linecap="round"/>
</svg>
