<svg width="319" height="150" viewBox="0 0 319 150" fill="none" xmlns="http://www.w3.org/2000/svg">
<path d="M1 7.14682C1.3655 6.01689 0.618678 1.96117 1.82345 1.05869C18.6224 1.05869 41.2867 0.926642 58.1428 1.05869C125.688 1.05869 191.485 1.34329 258.188 1.34329C279.866 1.34329 300.452 1.34329 316.978 1.55235C317.88 2.93886 317.778 33.9378 317.88 38.2621C318.419 61.2301 316.971 84.2187 316.971 107.189C316.971 120.618 314.904 134.775 316.477 148.192C313.641 148.818 286.653 148.359 284.428 148.354C234.163 148.232 181.37 149 131.11 149C86.7945 149 47.1987 148.189 2.8457 148.189C0.878008 148.189 1.62084 132.964 1.62084 132.027C1.62084 90.4015 0.999953 48.7615 1 7.14682Z" fill="white" stroke="black" stroke-width="2" stroke-linecap="round" stroke-linejoin="round"/>
<path d="M317 89C304.37 89 230.416 89.8192 217.778 89.9093C154.922 90.3574 154.138 89 91.2361 89C61.2972 89 31.1165 89.9093 0.999996 89.9093" stroke="black" stroke-width="2" stroke-linecap="round"/>
<path d="M159.213 89.9142C159.213 89.9142 159 100.608 159 117C159 128.5 159 148 159 148" stroke="black" stroke-width="2" stroke-linecap="round"/>
</svg>
