<svg width="319" height="402" viewBox="0 0 319 402" fill="none" xmlns="http://www.w3.org/2000/svg">
<path d="M1 17.613C1.3655 14.5592 0.618678 3.59776 1.82345 1.15861C18.6224 1.15861 41.2867 0.801734 58.1428 1.15861C125.688 1.15861 191.485 1.92781 258.188 1.92781C279.866 1.92781 300.452 1.92781 316.978 2.49283C317.88 6.24018 317.778 90.021 317.88 101.708C318.419 163.784 316.971 225.915 316.971 287.998C316.971 324.293 314.904 362.555 316.477 398.817C313.641 400.509 286.653 399.268 284.428 399.253C234.163 398.925 181.37 401 131.11 401C86.7945 401 47.1987 398.808 2.8457 398.808C0.878008 398.808 1.62084 357.659 1.62084 355.127C1.62084 242.626 0.999953 130.085 1 17.613Z" fill="white" stroke="black" stroke-width="2" stroke-linecap="round" stroke-linejoin="round"/>
<path d="M317 342C304.37 342 230.416 342.819 217.778 342.909C154.922 343.357 154.138 342 91.2361 342C61.2972 342 31.1165 342.909 1 342.909" stroke="black" stroke-width="2" stroke-linecap="round"/>
<path d="M159.213 342.914C159.213 342.914 159 353.608 159 370C159 381.5 159 401 159 401" stroke="black" stroke-width="2" stroke-linecap="round"/>
</svg>
