<svg width="40" height="40" viewBox="0 0 40 40" fill="none" xmlns="http://www.w3.org/2000/svg">
<path fill-rule="evenodd" clip-rule="evenodd" d="M19.9591 6.88333C19.8946 6.33482 19.3977 5.94245 18.8492 6.00694C18.3007 6.07143 17.9083 6.56836 17.9728 7.11687L18.9659 7.0001C17.9728 7.11687 17.9728 7.11691 17.9728 7.11701L17.9729 7.11757L17.9731 7.11989L17.9743 7.12936L17.9787 7.16734L17.9961 7.31727C18.0114 7.44929 18.0338 7.64434 18.0624 7.8959C18.1195 8.39903 18.2011 9.12812 18.2991 10.0309C18.4952 11.8367 18.7566 14.3365 19.0179 17.1127C19.0694 17.6601 19.1209 18.2178 19.1719 18.7827C14.1271 19.0436 8.82819 19.2571 5 19.2571C4.44772 19.2571 4 19.7048 4 20.2571C4 20.8094 4.44772 21.2571 5 21.2571C8.89513 21.2571 14.2666 21.0397 19.3466 20.7763C19.7392 25.3971 20.061 30.2415 20.061 33.6937C20.061 34.246 20.5087 34.6937 21.061 34.6937C21.6133 34.6937 22.061 34.246 22.061 33.6937C22.061 30.1769 21.7369 25.2941 21.3447 20.6697C22.049 20.6311 22.7428 20.592 23.4209 20.553C26.4747 20.3772 29.2197 20.2013 31.2012 20.0695C32.1921 20.0036 32.9922 19.9486 33.5447 19.9101C33.821 19.8909 34.0354 19.8758 34.1808 19.8654L34.3463 19.8537L34.3886 19.8506L34.3994 19.8498L34.4021 19.8496L34.4028 19.8496C34.403 19.8496 34.4031 19.8496 34.3311 18.8522L34.4031 19.8496C34.9539 19.8098 35.3683 19.3311 35.3285 18.7802C35.2888 18.2293 34.81 17.815 34.2591 17.8548L34.3311 18.8522C34.2591 17.8548 34.2591 17.8548 34.259 17.8548L34.2583 17.8548L34.2557 17.855L34.2453 17.8558L34.2036 17.8588L34.0393 17.8705C33.8947 17.8807 33.6811 17.8958 33.4058 17.915C32.855 17.9533 32.057 18.0081 31.0684 18.0739C29.0912 18.2055 26.3524 18.3809 23.306 18.5563C22.6081 18.5965 21.8944 18.6366 21.1704 18.6763C21.1169 18.0828 21.063 17.4979 21.0091 16.9252C20.7466 14.1373 20.4842 11.6277 20.2875 9.81506C20.1891 8.90865 20.107 8.17629 20.0496 7.67028C20.0209 7.41727 19.9983 7.22082 19.9829 7.08749L19.9652 6.93563L19.9607 6.89673L19.9595 6.8868L19.9592 6.88425L19.9591 6.88358C19.9591 6.88342 19.9591 6.88333 18.9659 7.0001L19.9591 6.88333Z" fill="black"/>
</svg>
