<svg width="39" height="44" viewBox="0 0 39 44" fill="none" xmlns="http://www.w3.org/2000/svg">
<path fill-rule="evenodd" clip-rule="evenodd" d="M22.1885 10.3728C18.7335 9.87928 15.2785 10.6286 13.3042 11.36C3.74853 14.8999 -1.98341 30.9418 6.09452 38.4945C6.09917 39.905 6.19597 41.4348 7.64144 42.1574C9.10807 42.8906 10.4146 42.1617 11.5378 41.2225C14.8766 41.8724 20.3066 42.5016 23.4812 41.1076C31.0723 37.7743 36.0192 29.584 34.0343 20.7379C33.5407 18.5382 32.2353 15.9585 30.5793 14.3214C30.5436 13.5797 30.5793 11.062 28.1114 9.87928C25.6435 8.69658 24.4564 8.93732 22.1885 10.3728Z" fill="#FEF500"/>
<path fill-rule="evenodd" clip-rule="evenodd" d="M25.2034 10.3876C24.62 10.4479 23.9639 10.7285 22.8571 11.429C22.6058 11.5881 22.3061 11.6523 22.0118 11.6103C18.8157 11.1537 15.575 11.8518 13.7384 12.5322C9.43014 14.1282 5.82445 18.6425 4.28415 23.7814C2.74583 28.9135 3.38056 34.2457 6.94823 37.5814C7.2 37.8168 7.34339 38.1457 7.34453 38.4903C7.34953 40.0084 7.52059 40.6995 8.20039 41.0393C8.93073 41.4044 9.65762 41.1652 10.736 40.2636C11.0248 40.022 11.4071 39.9236 11.7766 39.9955C13.4035 40.3122 15.5249 40.6204 17.6081 40.6821C19.7253 40.7447 21.6502 40.5465 22.9786 39.9631C30.0808 36.8445 34.6551 29.2141 32.8146 21.0116C32.3659 19.0117 31.1634 16.6565 29.7005 15.2104C29.4778 14.9902 29.3458 14.6944 29.3307 14.3814C29.3291 14.347 29.3275 14.3113 29.3258 14.2744C29.2861 13.3851 29.2149 11.7943 27.5712 11.0065C26.4245 10.457 25.7587 10.3303 25.2034 10.3876ZM24.9466 7.90084C26.1688 7.77461 27.3305 8.1189 28.6516 8.75204C31.3785 10.0588 31.7434 12.6526 31.8092 13.7969C33.4848 15.6194 34.7502 18.219 35.254 20.4642C37.3833 29.9538 32.0638 38.7041 23.9838 42.2522C22.1377 43.0628 19.7603 43.2469 17.5341 43.181C15.5155 43.1212 13.4947 42.8505 11.8662 42.5559C10.6926 43.4277 9.00868 44.2384 7.08252 43.2755C5.14539 42.3071 4.88804 40.3692 4.85111 39.0276C0.700711 34.8089 0.242505 28.558 1.88941 23.0636C3.58451 17.4083 7.62262 12.1317 12.87 10.1878C14.8951 9.43762 18.3521 8.67068 21.9073 9.07659C22.9228 8.46217 23.8863 8.01034 24.9466 7.90084Z" fill="black"/>
<path fill-rule="evenodd" clip-rule="evenodd" d="M25.2034 10.3876C24.62 10.4479 23.9639 10.7285 22.8571 11.429C22.6058 11.5881 22.3061 11.6523 22.0118 11.6103C18.8157 11.1537 15.575 11.8518 13.7384 12.5322C9.43014 14.1282 5.82445 18.6425 4.28415 23.7814C2.74583 28.9135 3.38056 34.2457 6.94823 37.5814C7.2 37.8168 7.34339 38.1457 7.34453 38.4903C7.34953 40.0084 7.52059 40.6995 8.20039 41.0393C8.93073 41.4044 9.65762 41.1652 10.736 40.2636C11.0248 40.022 11.4071 39.9236 11.7766 39.9955C13.4035 40.3122 15.5249 40.6204 17.6081 40.6821C19.7253 40.7447 21.6502 40.5465 22.9786 39.9631C30.0808 36.8445 34.6551 29.2141 32.8146 21.0116C32.3659 19.0117 31.1634 16.6565 29.7005 15.2104C29.4778 14.9902 29.3458 14.6944 29.3307 14.3814C29.3291 14.347 29.3275 14.3113 29.3258 14.2744C29.2861 13.3851 29.2149 11.7943 27.5712 11.0065C26.4245 10.457 25.7587 10.3303 25.2034 10.3876ZM24.9466 7.90084C26.1688 7.77461 27.3305 8.1189 28.6516 8.75204C31.3785 10.0588 31.7434 12.6526 31.8092 13.7969C33.4848 15.6194 34.7502 18.219 35.254 20.4642C37.3833 29.9538 32.0638 38.7041 23.9838 42.2522C22.1377 43.0628 19.7603 43.2469 17.5341 43.181C15.5155 43.1212 13.4947 42.8505 11.8662 42.5559C10.6926 43.4277 9.00868 44.2384 7.08252 43.2755C5.14539 42.3071 4.88804 40.3692 4.85111 39.0276C0.700711 34.8089 0.242505 28.558 1.88941 23.0636C3.58451 17.4083 7.62262 12.1317 12.87 10.1878C14.8951 9.43762 18.3521 8.67068 21.9073 9.07659C22.9228 8.46217 23.8863 8.01034 24.9466 7.90084Z" fill="black"/>
<path fill-rule="evenodd" clip-rule="evenodd" d="M11.7123 22.3897C12.051 21.8372 12.3993 20.8232 11.6513 20.0236C10.9914 19.318 10.0572 19.4454 9.54338 19.6529C9.19575 19.7934 8.97295 20.0331 8.8488 20.1961C8.71506 20.3716 8.62022 20.5575 8.55402 20.7214C8.43664 21.0121 8.32745 21.4409 8.38868 21.8723C8.48713 22.5661 9.0067 22.9007 9.30374 23.0249C9.60325 23.1502 9.9027 23.175 10.1181 23.1723C10.3455 23.1694 10.5918 23.1343 10.8246 23.0581C10.9882 23.0046 11.4352 22.8415 11.7123 22.3897Z" fill="black"/>
<path fill-rule="evenodd" clip-rule="evenodd" d="M18.3412 22.4002C18.6799 21.8477 19.0282 20.8337 18.2802 20.0341C17.6203 19.3285 16.6861 19.4559 16.1723 19.6634C15.8247 19.8039 15.6019 20.0436 15.4777 20.2066C15.344 20.3821 15.2491 20.568 15.1829 20.7319C15.0655 21.0226 14.9564 21.4514 15.0176 21.8828C15.116 22.5766 15.6356 22.9112 15.9326 23.0354C16.2322 23.1607 16.5316 23.1855 16.747 23.1828C16.9744 23.1799 17.2207 23.1448 17.4535 23.0686C17.6171 23.0151 18.0641 22.852 18.3412 22.4002Z" fill="black"/>
<path d="M10.6904 27.12C8.26337 31.8349 12.8868 33.7213 14.5341 30.1206C16.1814 26.5199 13.1174 22.4052 10.6904 27.12Z" fill="white" stroke="black" stroke-width="2" stroke-linecap="round"/>
<path d="M36.7044 10.1523C36.7044 10.1523 36.5511 10.2486 36.7043 10.3252" stroke="black" stroke-width="2" stroke-linecap="round"/>
<path d="M38 1.5C38 1.5 36.9418 4.95339 36.9418 6.66884" stroke="black" stroke-width="2" stroke-linecap="round"/>
</svg>
