<svg width="24" height="24" viewBox="0 0 24 24" fill="none" xmlns="http://www.w3.org/2000/svg">
<path d="M20.0655 4.72695H21.0655C21.0655 4.17466 20.6178 3.72695 20.0655 3.72695V4.72695ZM9.58457 4.71335V3.71331L9.5758 3.71339L9.58457 4.71335ZM4.85074 4.72695L5.12546 5.68847L4.85074 4.72695ZM4.73513 14.2559L5.7177 14.0701L5.7177 14.07L4.73513 14.2559ZM6.0848 19.5217L5.21064 20.0074L6.0848 19.5217ZM17.5769 20.8679L17.3323 19.8983L17.5769 20.8679ZM20.0655 3.72695C18.3306 3.72695 16.5794 3.72355 14.827 3.72015C13.0749 3.71675 11.3217 3.71335 9.58457 3.71335V5.71335C11.3195 5.71335 13.0707 5.71675 14.8231 5.72015C16.5752 5.72354 18.3284 5.72695 20.0655 5.72695V3.72695ZM9.5758 3.71339C8.83659 3.71987 8.03234 3.64394 7.1244 3.60062C6.29318 3.56097 5.34141 3.54674 4.57601 3.76542L5.12546 5.68847C5.53377 5.57181 6.17419 5.55757 7.0291 5.59835C7.80728 5.63547 8.78309 5.72041 9.59333 5.71331L9.5758 3.71339ZM4.57601 3.76542C3.94028 3.94706 3.6659 4.5142 3.55105 4.8137C3.41329 5.17294 3.33422 5.60092 3.28498 6.027C3.18506 6.89161 3.18326 7.98597 3.22687 9.07367C3.31419 11.2518 3.59292 13.5978 3.75255 14.4418L5.7177 14.07C5.58074 13.346 5.30976 11.1011 5.22526 8.99356C5.18296 7.93841 5.18975 6.96622 5.27175 6.25661C5.31348 5.89558 5.36871 5.65952 5.41845 5.52981C5.4911 5.34035 5.45743 5.59362 5.12546 5.68847L4.57601 3.76542ZM3.75255 14.4418C3.89141 15.1759 4.0563 16.2239 4.2672 17.1913C4.47821 18.1593 4.76567 19.2064 5.21064 20.0074L6.95896 19.0361C6.66546 18.5078 6.42637 17.706 6.22131 16.7653C6.01614 15.8242 5.87542 14.9039 5.7177 14.0701L3.75255 14.4418ZM5.21064 20.0074C5.6237 20.7508 6.31832 21.2093 7.01917 21.4988C7.72351 21.7898 8.5269 21.9494 9.30246 22.0408C10.841 22.2222 12.514 22.1559 13.4351 22.1559V20.1559C12.3981 20.1559 10.921 20.2178 9.53654 20.0546C8.85056 19.9737 8.24917 19.843 7.78282 19.6503C7.31298 19.4562 7.07102 19.2378 6.95896 19.0361L5.21064 20.0074ZM13.4351 22.1559C14.7397 22.1559 16.5322 22.1627 17.8215 21.8376L17.3323 19.8983C16.338 20.1491 14.832 20.1559 13.4351 20.1559V22.1559ZM17.8215 21.8376C18.5459 21.6548 19.0409 21.1194 19.374 20.5776C19.7129 20.0262 19.9661 19.3386 20.1631 18.6072C20.5586 17.1386 20.7836 15.2756 20.9136 13.423C21.1741 9.7106 21.0655 5.79784 21.0655 4.72695H19.0655C19.0655 5.87387 19.1725 9.6634 18.9185 13.283C18.7913 15.0963 18.5767 16.8067 18.2319 18.0871C18.0587 18.7301 17.8665 19.2108 17.6702 19.5302C17.468 19.8592 17.3378 19.8969 17.3323 19.8983L17.8215 21.8376Z" fill="black"/>
<path d="M4.95947 9.85352H19.6455" stroke="black" stroke-width="2" stroke-linecap="round"/>
<path d="M9 3L9 7" stroke="black" stroke-width="2" stroke-linecap="round"/>
<path d="M14 2L14.2607 6.67149" stroke="black" stroke-width="2" stroke-linecap="round"/>
</svg>
