<svg width="345" height="50" viewBox="0 0 345 50" fill="none" xmlns="http://www.w3.org/2000/svg">
<path d="M1 22.8341C1 13.6154 9.61861 4.5323 19.0169 3.01846C28.4152 1.50461 54.9497 0.999998 75.2426 1C118.303 1.22505 158.841 0.889539 201.95 1.22501C234.066 1.47495 300.954 1.00002 317.289 1C333.624 0.99998 344 10.9279 344 22.842C344 39.4019 330.882 43.993 320 45.9107C297.544 49.8679 257.987 48.6621 237.091 48.7176C200.711 48.8143 161.63 48.451 125.232 48.7176C90.8449 48.9695 24.8752 49.9296 15.0598 45.9107C3.96794 41.3691 1 32.0529 1 22.8341Z" fill="white" stroke="black" stroke-width="2" stroke-linecap="round"/>
</svg>
