<svg width="24" height="24" viewBox="0 0 24 24" fill="none" xmlns="http://www.w3.org/2000/svg">
<path fill-rule="evenodd" clip-rule="evenodd" d="M3.64837 18.6829C3.26172 19.0742 3.2932 19.6796 3.71868 20.0351C4.14417 20.3907 4.80253 20.3617 5.18919 19.9705L4.58034 19.4617C5.18919 19.9705 5.18922 19.9704 5.18928 19.9704L5.18961 19.97L5.19093 19.9687L5.19626 19.9633L5.21749 19.9418L5.3011 19.8573L5.62337 19.532C5.90352 19.2494 6.30945 18.8405 6.81224 18.3353C7.81789 17.3249 9.21079 15.9298 10.7598 14.3912C11.0816 14.0716 11.4101 13.7458 11.743 13.4162C12.1403 13.7723 12.5335 14.1244 12.9194 14.4698C14.6124 15.9855 16.1646 17.3715 17.2936 18.3787C17.858 18.8823 18.3167 19.2912 18.6343 19.5742L19.0004 19.9004L19.0959 19.9854L19.1202 20.0071L19.1264 20.0126L19.1279 20.0139L19.1283 20.0143C19.1284 20.0144 19.1284 20.0144 19.722 19.4507L19.1285 20.0144C19.5415 20.3821 20.2005 20.3724 20.6004 19.9925C21.0004 19.6127 20.9897 19.0067 20.5767 18.6389L19.9893 19.1968C20.5767 18.6389 20.5766 18.6389 20.5765 18.6388L20.5762 18.6385L20.5746 18.6371L20.5685 18.6317L20.5442 18.6101L20.449 18.5252L20.0832 18.1993C19.7659 17.9165 19.3075 17.5079 18.7433 17.0046C17.615 15.998 16.0636 14.6127 14.3716 13.098C13.975 12.7429 13.5707 12.3808 13.1623 12.0149C15.6355 9.57988 18.1956 7.09731 20.0632 5.37991C20.4698 5.00607 20.4698 4.39998 20.0632 4.02614C19.6567 3.65231 18.9976 3.65231 18.5911 4.02615C16.708 5.75776 14.1424 8.24537 11.6716 10.6777C9.05949 8.33283 6.46151 5.9891 4.79597 4.45754C4.38944 4.08371 3.73032 4.08371 3.32378 4.45754C2.91725 4.83137 2.91725 5.43747 3.32378 5.8113C5.00506 7.35733 7.62598 9.7216 10.2521 12.0791C9.90625 12.4214 9.56545 12.7594 9.23203 13.0906C7.67964 14.6325 6.28397 16.0304 5.2764 17.0427C4.77259 17.5489 4.36574 17.9588 4.08478 18.2422L3.76134 18.5687L3.67719 18.6537L3.6557 18.6755L3.65024 18.681L3.64886 18.6824L3.6485 18.6828C3.64842 18.6828 3.64838 18.6829 4.28111 19.2116L3.64837 18.6829Z" fill="black"/>
</svg>
