<svg width="347" height="4" viewBox="0 0 347 4" fill="none" xmlns="http://www.w3.org/2000/svg">
<path d="M1 1.00275C14.2844 1.00275 34.4559 1.00289 47.7574 1.00289C66.7894 1.00289 78.8933 1.00275 97.928 1.00275C112.605 1.00275 122.452 1.24882 137.123 1.68899C146.5 1.97031 155.691 1.99011 165.032 2.7674C174.535 3.55804 191.382 2.07951 200.923 2.07951C228.341 2.07951 223.557 1.00275 250.967 1.00275C259.593 1.00275 283.816 1.06718 292.417 1.00267C299.405 0.95026 313.78 1.6851 320.725 1.885C324.621 1.99714 331.331 1.885 334.879 1.885C340.945 1.885 342.462 2.07951 346 2.07951" stroke="black" stroke-width="2" stroke-linecap="round"/>
</svg>
