<svg width="345" height="140" viewBox="0 0 345 140" fill="none" xmlns="http://www.w3.org/2000/svg">
<path d="M1 8.39279C1.39547 7.03383 0.587402 2.15601 1.89099 1.07058C20.0678 1.07058 44.5909 0.911772 62.8296 1.07058C135.915 1.07058 207.109 1.41287 279.282 1.41287C302.738 1.41287 325.013 1.41287 342.895 1.66431C343.87 3.33188 343.76 40.6144 343.87 45.8152C344.453 73.4389 342.887 61.0873 342.887 88.7141C342.887 104.865 340.65 121.892 342.352 138.028C339.283 138.782 310.081 138.229 307.675 138.223C253.287 138.077 196.164 139 141.781 139C93.8313 139 50.9879 138.025 2.99708 138.025C0.868003 138.025 1.67176 119.713 1.67176 118.586C1.67176 68.5234 0.999949 58.4429 1 8.39279Z" fill="white"/>
<path d="M1.89099 1.07058V0.0705826H1.52917L1.25112 0.3021L1.89099 1.07058ZM1 8.39279L0.039831 8.11337L1.44733e-07 8.25024L0 8.39279L1 8.39279ZM307.675 138.223L307.677 137.223L307.677 137.223L307.675 138.223ZM342.352 138.028L342.59 139L343.438 138.792L343.346 137.923L342.352 138.028ZM342.895 1.66431L343.758 1.15946C343.581 0.857122 343.259 0.669331 342.909 0.664406L342.895 1.66431ZM62.8296 1.07058L62.8209 2.07058H62.8296V1.07058ZM343.87 45.8152L344.87 45.7941L344.87 45.7941L343.87 45.8152ZM1.25112 0.3021C0.635315 0.814846 0.393522 1.63693 0.273288 2.30414C0.14376 3.02292 0.110245 3.84709 0.104976 4.62231C0.100044 5.34785 0.122938 6.24559 0.122741 6.82768C0.122506 7.52195 0.0919096 7.93442 0.039831 8.11337L1.96017 8.67221C2.10583 8.17169 2.12253 7.46481 2.12274 6.82836C2.12299 6.07973 2.0995 5.43537 2.10493 4.63591C2.11003 3.88612 2.14363 3.20239 2.24158 2.65884C2.34883 2.06371 2.49487 1.86903 2.53086 1.83907L1.25112 0.3021ZM307.672 139.223C308.899 139.226 316.727 139.365 324.759 139.41C328.754 139.433 332.776 139.431 335.994 139.377C337.602 139.35 339.017 139.31 340.131 139.252C341.208 139.196 342.098 139.12 342.59 139L342.113 137.057C341.838 137.125 341.144 137.197 340.028 137.255C338.948 137.311 337.559 137.351 335.961 137.378C332.765 137.431 328.761 137.433 324.771 137.41C316.833 137.366 308.857 137.226 307.677 137.223L307.672 139.223ZM342.909 0.664406C325.019 0.412852 302.736 0.412874 279.282 0.412874V2.41287C302.74 2.41287 325.008 2.4129 342.881 2.66421L342.909 0.664406ZM62.8383 0.0706205C44.5944 -0.0882362 20.0565 0.0705826 1.89099 0.0705826V2.07058C20.0791 2.07058 44.5875 1.91178 62.8209 2.07054L62.8383 0.0706205ZM279.282 0.412874C243.197 0.412874 207.356 0.327304 171.4 0.241731C135.445 0.156159 99.3738 0.0705826 62.8296 0.0705826V2.07058C99.371 2.07058 135.44 2.15615 171.396 2.24173C207.351 2.3273 243.194 2.41287 279.282 2.41287V0.412874ZM344.87 45.7941C344.815 43.1963 344.815 32.6102 344.707 22.4042C344.653 17.3129 344.571 12.3243 344.442 8.50131C344.378 6.5914 344.301 4.96134 344.209 3.75095C344.163 3.14742 344.112 2.63337 344.055 2.23501C344.026 2.03661 343.994 1.85189 343.956 1.69191C343.924 1.55757 343.868 1.34746 343.758 1.15946L342.031 2.16916C341.982 2.08538 341.985 2.04905 342.01 2.15392C342.029 2.23315 342.051 2.35308 342.075 2.52061C342.123 2.85413 342.17 3.31713 342.215 3.9028C342.304 5.0708 342.379 6.66765 342.444 8.56874C342.572 12.3677 342.653 17.3375 342.707 22.4254C342.815 32.5777 342.815 43.2332 342.87 45.8363L344.87 45.7941ZM343.887 88.7141C343.887 74.931 344.277 71.1401 344.593 67.3467C344.916 63.4809 345.162 59.6252 344.87 45.7941L342.87 45.8363C343.161 59.6289 342.915 63.4092 342.6 67.1803C342.28 71.0238 341.887 74.8704 341.887 88.7141H343.887ZM343.346 137.923C342.503 129.931 342.634 121.7 342.98 113.418C343.325 105.161 343.887 96.8173 343.887 88.7141H341.887C341.887 96.7621 341.33 105.007 340.982 113.335C340.635 121.638 340.498 129.989 341.357 138.133L343.346 137.923ZM141.781 140C196.215 140 253.257 139.076 307.672 139.223L307.677 137.223C253.316 137.077 196.113 138 141.781 138V140ZM2.99708 139.025C26.9863 139.025 49.6896 139.268 72.3937 139.512C95.0965 139.756 117.8 140 141.781 140V138C117.812 138 95.1193 137.756 72.4152 137.512C49.7124 137.268 26.9987 137.025 2.99708 137.025V139.025ZM0.671756 118.586C0.671756 119.032 0.471457 124.063 0.536109 128.742C0.568823 131.11 0.668357 133.481 0.900035 135.274C1.01465 136.161 1.16877 136.968 1.38841 137.575C1.49667 137.875 1.64441 138.194 1.86051 138.456C2.08291 138.725 2.46114 139.025 2.99708 139.025V137.025C3.26688 137.025 3.40189 137.181 3.40216 137.182C3.40333 137.183 3.38788 137.164 3.36104 137.112C3.33485 137.061 3.30362 136.99 3.2693 136.896C3.12538 136.497 2.99298 135.865 2.88355 135.018C2.66713 133.342 2.5684 131.065 2.53592 128.714C2.47018 123.956 2.67176 119.267 2.67176 118.586H0.671756ZM0 8.39279C-2.54142e-05 33.4234 0.167962 48.4604 0.335921 63.4959C0.503852 78.5289 0.671756 93.5605 0.671756 118.586H2.67176C2.67176 93.5494 2.50376 78.5091 2.3358 63.4736C2.16787 48.4406 1.99997 33.4123 2 8.39279L0 8.39279Z" fill="black"/>
</svg>
