<svg width="345" height="52" viewBox="0 0 345 52" fill="none" xmlns="http://www.w3.org/2000/svg">
<path d="M343.527 50.163L308.714 50.1754C308.714 50.1754 200.469 50.5326 146.346 50.5326C137.498 50.5326 1.08676 52.0974 1.08676 49.5007C1.08676 42.5493 0.59006 7.19158 1.97402 1.01969C20.0753 1.01969 44.4966 0.975383 62.6595 1.01969C108.601 1.13177 154.544 1.30072 200.486 1.22326C217.854 1.19398 260.83 1.22364 278.213 1.22364C301.571 1.22364 320.481 1.40223 343.629 1.40223C344.52 1.40223 343.527 45.2854 343.527 50.163Z" fill="#F4F1E8" stroke="black" stroke-width="2" stroke-linecap="round" stroke-linejoin="round"/>
<path d="M140.814 30.6992C140.621 28.4316 140.48 24.459 140.428 20.6621C140.498 20.0469 140.639 20.0645 140.973 19.9941C141.324 19.9414 141.588 20.1172 141.746 20.4863C141.658 23.3867 141.816 28.7305 142.098 30.7168C142.115 31.0859 141.939 31.3145 141.535 31.3848C141.113 31.4551 140.867 31.2266 140.814 30.6992ZM137.826 30.1191C137.844 29.4688 137.861 28.5371 137.879 27.3594V26.9727C137.545 26.9727 137.211 26.9727 136.859 26.9551C136.279 26.9375 135.77 26.9023 135.312 26.8848C135.031 26.8848 134.838 26.8145 134.715 26.6738C134.451 27.0781 134.223 27.3594 134.029 27.5176C133.115 28.5547 131.34 29.8203 129.459 30.2598C129.195 30.3477 128.984 30.2246 128.791 29.9082C128.738 29.5215 128.861 29.2578 129.125 29.1172C130.672 28.5723 131.639 28.0273 132.605 27.1309C134.082 25.6719 134.557 24.4941 134.715 23.0703C134.75 22.9824 134.768 22.7715 134.768 22.4023C134.68 22.1562 134.521 22.0332 134.293 22.0508H130.637C130.145 22.0508 129.898 21.9805 129.898 21.3652C129.934 21.0137 130.162 20.8379 130.602 20.8379C132.025 20.873 133.449 20.8906 134.891 20.873C135.383 20.873 135.928 21.0488 135.98 21.9453C135.998 22.4902 135.998 22.9121 135.963 23.1934V23.2109C136.402 23.2285 136.895 23.2285 137.404 23.2461C137.562 23.2637 137.721 23.2637 137.861 23.2637V22.5957C137.879 22.2441 137.861 21.7695 137.826 21.1719C137.809 20.6973 137.896 20.3809 138.318 20.3809C138.477 20.3633 139.074 20.3281 139.092 21.1016C139.145 21.7695 139.145 22.2441 139.127 22.543C139.145 24.3887 139.145 25.9355 139.127 27.2012C139.109 28.4668 139.092 29.4863 139.109 30.2422C139.057 30.6816 138.828 30.8926 138.424 30.875C137.984 30.7871 137.791 30.541 137.826 30.1191ZM137.896 25.8125C137.879 25.373 137.879 24.916 137.879 24.4414L137.211 24.4062C136.666 24.3887 136.191 24.3711 135.752 24.3535C135.629 24.8633 135.471 25.3379 135.26 25.7422H135.33C135.84 25.7598 136.42 25.7773 137.053 25.7949C137.387 25.8125 137.668 25.8125 137.896 25.8125ZM150.729 20.8203C150.025 20.9082 149.217 20.9434 148.32 20.9434C148.268 21.4883 148.232 22.1035 148.197 22.8066C148.197 23.1758 148.25 23.4219 148.531 23.6152C149.445 24.3887 150.219 24.9512 151.273 25.5664C151.502 25.6367 151.625 26.0059 151.432 26.3398C151.273 26.6738 150.852 26.7266 150.5 26.5156C149.604 26.041 148.531 25.25 147.477 24.3359C146.932 24.8105 145.807 25.6016 145.033 26.0938C144.734 26.252 144.488 26.2168 144.295 25.9883C144.031 25.6895 144.049 25.4082 144.33 25.1445C145.086 24.5996 145.842 24.0547 146.58 23.4746C146.809 23.2812 146.932 23.0879 146.932 22.666C146.984 22.0859 147.02 21.5059 147.037 20.9258C146.246 20.9082 145.49 20.873 144.77 20.8203C144.418 20.8027 144.207 20.627 144.207 20.1523C144.207 19.7832 144.312 19.625 144.928 19.625C145.789 19.6426 146.791 19.6602 147.934 19.6953C149.076 19.7305 149.99 19.7129 150.658 19.6426C151.062 19.625 151.326 19.7129 151.326 20.1348C151.379 20.4336 151.203 20.8203 150.729 20.8203ZM148.338 28.6074C148.004 28.6777 147.758 28.6426 147.617 28.502C147.125 28.5547 146.738 28.6602 146.457 28.8184C146.088 29.0117 145.912 29.3457 145.912 29.8203C145.912 30.4004 146.914 30.7344 147.811 30.7871C148.936 30.9277 149.498 30.998 150.061 30.9453C150.834 31.0332 151.73 31.0156 152.75 30.9102C153.295 30.8926 153.682 30.8574 153.91 30.7695C154.121 30.6816 154.227 30.5059 154.227 30.2422C154.227 29.8379 153.98 29.4336 153.488 29.0469C152.979 28.6777 152.082 28.4668 150.799 28.4141C150.219 28.4492 149.744 28.4844 149.34 28.502C148.936 28.5195 148.602 28.5547 148.338 28.6074ZM148.197 27.4297C148.602 27.3418 148.971 27.3066 149.305 27.2891C149.709 27.2891 150.166 27.2891 150.711 27.2715C153.945 27.3594 155.475 28.5723 155.527 30.2773C155.545 31.6133 154.789 32.0703 152.82 32.0703C151.748 32.1758 150.781 32.1934 149.938 32.1055C148.865 32.123 147.846 32.0352 146.879 31.8242C145.525 31.5605 144.523 30.8574 144.576 29.9258C144.594 28.0801 146.035 27.3594 147.811 27.3594C147.969 27.3594 148.109 27.377 148.197 27.4297ZM154.543 27.377C154.525 26.8672 154.473 25.918 154.402 24.5293C154.385 24.1074 154.35 23.668 154.314 23.2109C153.928 23.1934 153.506 23.1758 153.049 23.1582C152.398 23.1406 151.678 23.1406 150.904 23.1758C150.447 23.2109 150.219 23.0176 150.201 22.6133C150.254 22.2266 150.482 22.0156 150.852 21.998H153.418C153.682 22.0156 153.945 22.0156 154.209 22.0332C154.156 21.418 154.086 20.7676 153.998 20.0996C154.086 19.4844 154.227 19.502 154.561 19.4492C154.912 19.4141 155.176 19.5898 155.334 19.959C155.404 21.2773 155.51 22.6836 155.633 24.1953C155.756 25.707 155.826 26.7793 155.826 27.3945C155.809 27.7988 155.598 28.0273 155.158 28.0801C154.824 28.0801 154.613 27.8516 154.543 27.377ZM166.461 20.2227C166.479 20.873 166.479 21.4004 166.479 21.8398C166.443 22.209 166.531 22.4199 166.742 22.4727C167.357 22.9473 167.885 23.3516 168.324 23.668C168.764 24.002 169.221 24.3711 169.678 24.8105C169.906 25.1094 169.924 25.373 169.748 25.6016C169.432 25.8477 169.15 25.8828 168.887 25.707C168.307 25.3203 167.832 24.9688 167.48 24.6699C167.129 24.3711 166.672 23.9844 166.092 23.5273C165.688 24.002 164.141 25.0391 163.033 25.6016C162.717 25.8125 162.436 25.7773 162.207 25.4961C161.979 25.1621 162.031 24.8633 162.33 24.5996C163.191 24.1074 164.053 23.5273 164.879 22.877C165.107 22.666 165.178 22.4551 165.178 22.0332C165.178 21.4355 165.178 20.8379 165.16 20.2227C165.248 19.8535 165.459 19.6777 165.811 19.7129C166.145 19.6953 166.373 19.8711 166.461 20.2227ZM173.158 21.1895C173.457 21.1895 173.809 21.1895 174.195 21.207C174.67 21.2422 174.898 21.4355 174.863 21.7871C174.863 22.1914 174.652 22.3848 174.213 22.332C173.844 22.3496 173.51 22.3496 173.193 22.332C173.211 22.6309 173.229 22.9121 173.246 23.1758C173.334 24.1953 173.422 25.0391 173.545 25.6895C173.562 26.041 173.369 26.252 172.982 26.3398C172.578 26.375 172.35 26.1289 172.279 25.6191C171.98 23.5098 171.963 23.0176 171.875 20.0117C171.963 19.3965 172.068 19.4141 172.402 19.3613C172.754 19.3262 173 19.502 173.158 19.8711C173.141 20.3281 173.141 20.7676 173.158 21.1895ZM174.002 28.6426C174.02 29.5742 174.037 30.6992 174.037 31.2617C174.055 31.7715 173.791 31.9121 173.439 31.9121C173.035 31.9297 172.824 31.7012 172.807 31.2617C172.789 31.0332 172.789 30.7695 172.789 30.4355C172.789 30.1016 172.789 29.7324 172.771 29.3105C172.771 28.7305 172.613 28.5195 172.068 28.5371C170.592 28.5195 169.484 28.502 168.729 28.502C167.973 28.502 166.549 28.4844 164.457 28.4668C164.158 28.4844 163.912 28.4844 163.719 28.502C163.525 28.5195 163.35 28.5195 163.191 28.502C162.822 28.502 162.629 28.3086 162.611 27.9395C162.611 27.2188 163.455 27.2539 164.369 27.2539C166.355 27.2715 167.832 27.2891 168.764 27.3066C169.695 27.3242 170.891 27.3242 172.332 27.3242C173.932 27.3945 173.932 27.8867 174.002 28.6426ZM181.895 21.9453C181.262 22.0332 180.646 22.0684 180.031 22.0684C180.049 22.6484 180.066 23.1934 180.084 23.7031C180.102 24.3535 180.119 25.0742 180.137 25.8828C181.068 26.709 182 27.5527 182.475 28.1855C182.703 28.5195 182.686 28.8184 182.439 29.0469C182.105 29.2754 181.824 29.2578 181.596 28.9941C181.297 28.7129 180.98 28.3965 180.664 28.0625C180.33 27.7285 179.926 27.3594 179.434 26.9375C178.889 27.4824 178.203 28.3965 177.359 29.6797C177.113 29.9785 176.814 30.0664 176.463 29.9082C176.199 29.6797 176.111 29.416 176.234 29.082C176.867 28.0098 177.746 26.9023 178.854 25.5664C178.836 24.8105 178.836 24.1777 178.818 23.6855C178.801 23.2812 178.801 22.7363 178.783 22.0508C178.062 22.0332 177.289 21.998 176.48 21.9453C176.129 21.9277 175.918 21.752 175.918 21.2773C175.918 20.9082 176.234 20.7148 176.639 20.7324C178.484 20.8203 180.436 20.9082 181.824 20.7676C182.229 20.75 182.51 20.873 182.51 21.2949C182.562 21.5938 182.369 21.9453 181.895 21.9453ZM186.711 30.2949C186.764 26.8672 186.641 24.1074 186.5 20.8906C186.57 20.2754 186.711 20.293 187.045 20.2227C187.396 20.1699 187.643 20.3457 187.783 20.7148C187.818 22.6309 187.871 24.459 187.941 26.1992C188.012 27.9395 188.029 29.3105 187.994 30.3125C188.012 30.6816 187.836 30.9102 187.432 30.9805C187.01 31.0508 186.764 30.8223 186.711 30.2949ZM183.916 29.8906C183.934 29.2402 183.951 28.3965 183.969 27.3594C183.986 26.7969 183.986 26.0938 183.969 25.25C183.705 25.25 183.441 25.25 183.178 25.2324C182.703 25.2148 182.229 25.1973 181.771 25.1797C181.262 25.1797 181.016 24.9512 181.068 24.4766C181.121 24.1777 181.367 24.0195 181.789 24.0371C182.229 24.0371 182.738 24.0371 183.318 24.0547C183.547 24.0723 183.758 24.0723 183.951 24.0898C183.951 23.6855 183.951 23.2637 183.934 22.8242C183.951 22.4727 183.934 21.998 183.898 21.4004C183.881 20.9258 183.969 20.6094 184.391 20.6094C184.549 20.5918 185.146 20.5566 185.164 21.3301C185.217 21.998 185.217 22.4727 185.199 22.7715C185.217 24.6172 185.234 26.0938 185.217 27.2012C185.199 28.3086 185.182 29.2578 185.199 30.0137C185.146 30.4707 184.918 30.6992 184.514 30.6992C184.074 30.5938 183.881 30.3301 183.916 29.8906ZM193.268 24.3008C193.338 24.2832 193.408 24.2656 193.479 24.248C193.812 24.125 194.199 24.0547 194.639 24.0371C195.148 24.0195 195.535 24.002 195.764 24.002C196.467 24.0723 197.258 24.3535 197.803 24.7227C198.646 25.2676 199.613 26.4453 199.42 28.1328C199.227 29.7324 198.541 30.4883 197.557 30.9102C197.223 31.0684 196.273 31.1914 195.57 31.1738C193.373 31.1914 192.037 30.3301 191.633 28.8535C191.51 28.5195 191.457 28.1152 191.475 27.6055C191.422 26.6914 191.721 25.7773 192.195 25.127C192.459 24.7578 192.758 24.5293 193.268 24.3008ZM193.566 25.5137C193.197 25.7422 192.969 26.041 192.863 26.375C192.74 26.7969 192.67 27.1836 192.688 27.5527C192.67 27.9746 192.74 28.3613 192.863 28.6953C193.145 29.4688 194.076 29.9961 195.57 29.9961C197.469 29.9785 198.102 29.3809 198.225 28.0977C198.277 26.9727 197.803 26.3398 197.504 26.041C197.152 25.6367 196.484 25.3555 195.852 25.2324C195.078 25.1797 194.393 25.2324 193.777 25.4258C193.707 25.4785 193.637 25.4961 193.566 25.5137ZM201.389 21.0137C201.389 20.5215 201.424 20.1523 202.057 20.1523C202.461 20.2051 202.672 20.4512 202.654 20.9082C202.742 21.9805 202.83 23.2109 202.9 24.5645C203.305 24.582 203.727 24.5996 204.166 24.6172C204.535 24.6699 204.729 24.8984 204.746 25.2676C204.729 25.584 204.535 25.7246 204.166 25.6895C203.867 25.6719 203.604 25.6719 203.34 25.6719H202.953C202.971 25.9355 202.971 26.2168 202.988 26.498C203.076 28.6602 203.129 30.1543 203.129 30.998C203.217 31.332 202.971 31.7188 202.426 31.7363C202.162 31.7188 201.986 31.4551 201.898 30.9805C201.811 28.4316 201.67 25.3203 201.389 21.0137ZM190.016 22.7891C189.963 22.3848 190.227 22.1738 190.771 22.1211C193.742 21.998 195.869 21.9102 199.262 21.7168C199.473 21.6992 199.895 21.7344 199.912 22.1738C199.965 22.4727 199.807 22.8594 199.402 22.877C197.012 23.0703 192.986 23.2461 190.877 23.3164C190.367 23.3691 190.139 23.3516 190.016 22.7891ZM192.477 21.0488C192.072 21.1191 191.826 20.9609 191.738 20.5566C191.756 20.1523 191.967 19.9414 192.336 19.9238C193.162 19.8359 193.936 19.7656 194.691 19.7129C195.447 19.6602 196.273 19.6074 197.205 19.5371C197.574 19.4844 197.803 19.6426 197.855 19.9766C197.873 20.3457 197.715 20.5742 197.398 20.627C195.693 20.8379 194.867 20.9082 192.477 21.0488ZM205.748 28.959C207.787 28.2559 208.455 27.8516 209.422 26.9551C210.529 25.8828 211.197 24.3008 211.268 23.3867C211.25 23.2109 211.25 23 211.25 22.7363C211.285 22.4902 211.18 22.3672 210.951 22.3848C209.352 22.5078 207.805 22.5605 206.311 22.5605C205.818 22.5605 205.52 22.4902 205.52 21.875C205.555 21.5234 205.783 21.3477 206.223 21.3477C207.365 21.3652 209.088 21.3125 211.408 21.207C211.9 21.207 212.445 21.3828 212.498 22.2793C212.586 22.6133 212.586 23.0176 212.498 23.5098C212.357 24.916 211.426 26.8672 210.811 27.377C209.809 28.5547 208.033 29.6094 206.117 30.084C205.836 30.1719 205.607 30.0488 205.432 29.7324C205.379 29.3633 205.484 29.0996 205.748 28.959ZM215.082 20.8906C215.082 20.3984 215.012 19.959 215.645 19.8008C216.102 19.8535 216.33 20.0996 216.33 20.5566C216.4 21.6289 216.453 22.4727 216.506 23.0879C216.541 23.7031 216.559 24.5469 216.559 25.6016C216.559 28.0098 216.594 28.8359 216.734 30.2949C216.822 30.6289 216.629 31.2617 216.084 31.2793C215.785 31.2617 215.574 31.0684 215.451 30.6641C215.328 29.2051 215.293 28.3613 215.275 26.0938C215.293 24.9863 215.293 24.1777 215.24 23.668C215.188 23.1582 215.135 22.2441 215.082 20.8906Z" fill="black"/>
</svg>
